<svg width="15" height="19" viewBox="0 0 15 19" fill="none" xmlns="http://www.w3.org/2000/svg">
<g id="APPLE">
<mask id="mask0_1128_49905" style="mask-type:luminance" maskUnits="userSpaceOnUse" x="0" y="0" width="15" height="19">
<rect id="Background" x="0.676758" y="0.294189" width="13.98" height="18.64" fill="white"/>
</mask>
<g mask="url(#mask0_1128_49905)">
<path id="Shape" fill-rule="evenodd" clip-rule="evenodd" d="M12.2822 10.0769C12.275 8.74081 12.8793 7.73236 14.1026 6.98967C13.4181 6.01034 12.3842 5.47153 11.0189 5.36595C9.72652 5.26401 8.31396 6.11956 7.79699 6.11956C7.2509 6.11956 5.99852 5.40236 5.01555 5.40236C2.98409 5.43512 0.825195 7.02243 0.825195 10.2517C0.825195 11.2055 0.999945 12.1909 1.34945 13.2079C1.81545 14.544 3.49741 17.8205 5.25219 17.7659C6.16963 17.7441 6.81766 17.1142 8.01179 17.1142C9.16951 17.1142 9.77021 17.7659 10.7932 17.7659C12.5626 17.7404 14.0843 14.7624 14.5285 13.4227C12.1548 12.305 12.2822 10.1461 12.2822 10.0769L12.2822 10.0769ZM10.2247 4.09868C11.2186 2.91912 11.1276 1.84513 11.0985 1.45923C10.2211 1.5102 9.20537 2.05629 8.62651 2.72981C7.98941 3.45065 7.61442 4.3426 7.69451 5.34742C8.64472 5.42023 9.51119 4.93238 10.2247 4.09868Z" fill="black"/>
</g>
</g>
</svg>
