<svg width="18" height="18" viewBox="0 0 18 18" fill="none" xmlns="http://www.w3.org/2000/svg">
<g id="24 / shopping / bascket">
<path id="icon" fill-rule="evenodd" clip-rule="evenodd" d="M3.00098 6.75016H4.50081C4.50103 7.02507 4.65294 7.28967 4.91557 7.42098C5.28605 7.60623 5.73655 7.45606 5.9218 7.08557L6.0895 6.75016H11.9125L12.0802 7.08557C12.2654 7.45606 12.7159 7.60623 13.0864 7.42098C13.349 7.28967 13.5009 7.02507 13.5011 6.75016H15.001V8.25016H3.00098V6.75016ZM12.8395 5.25016H15.001C15.8294 5.25016 16.501 5.92174 16.501 6.75016V8.25016C16.501 8.88018 16.1126 9.41948 15.5622 9.64167C15.5647 9.6775 15.566 9.71368 15.566 9.75016C15.566 9.85961 15.554 9.96872 15.5303 10.0756L14.3636 15.3256C14.2111 16.0119 13.6024 16.5002 12.8993 16.5002H5.10261C4.39956 16.5002 3.79084 16.0119 3.63832 15.3256L2.47166 10.0756C2.43919 9.92943 2.42923 9.78355 2.43948 9.64154C1.88923 9.41927 1.50098 8.88006 1.50098 8.25016V6.75016C1.50098 5.92174 2.17255 5.25016 3.00098 5.25016H5.16245L6.83016 1.91475C7.0154 1.54427 7.4659 1.3941 7.83639 1.57934C8.20687 1.76459 8.35704 2.21509 8.1718 2.58557L6.8395 5.25016H11.1625L9.83016 2.58557C9.64491 2.21509 9.79508 1.76459 10.1656 1.57934C10.5361 1.3941 10.9866 1.54427 11.1718 1.91475L12.8395 5.25016ZM3.93594 9.75016H14.066L12.8993 15.0002H5.10261L3.93594 9.75016Z" fill="#005B52"/>
</g>
</svg>
