<svg width="19" height="19" viewBox="0 0 19 19" fill="none" xmlns="http://www.w3.org/2000/svg">
<g id="24 / shopping / bascket">
<path id="icon" fill-rule="evenodd" clip-rule="evenodd" d="M3.18164 6.79191H4.68148C4.68169 7.06682 4.83361 7.33142 5.09623 7.46273C5.46671 7.64797 5.91722 7.49781 6.10246 7.12732L6.27017 6.79191H12.0931L12.2608 7.12732C12.4461 7.49781 12.8966 7.64797 13.2671 7.46273C13.5297 7.33142 13.6816 7.06682 13.6818 6.79191H15.1816V8.29191H3.18164V6.79191ZM13.0202 5.29191H15.1816C16.0101 5.29191 16.6816 5.96349 16.6816 6.79191V8.29191C16.6816 8.92193 16.2932 9.46122 15.7428 9.68341C15.7454 9.71925 15.7467 9.75543 15.7467 9.79191C15.7467 9.90136 15.7347 10.0105 15.711 10.1173L14.5443 15.3673C14.3918 16.0536 13.7831 16.5419 13.08 16.5419H5.28327C4.58022 16.5419 3.9715 16.0536 3.81899 15.3673L2.65232 10.1173C2.61985 9.97118 2.60989 9.8253 2.62015 9.68328C2.0699 9.46101 1.68164 8.9218 1.68164 8.29191V6.79191C1.68164 5.96349 2.35321 5.29191 3.18164 5.29191H5.34311L7.01082 1.9565C7.19606 1.58602 7.64657 1.43585 8.01705 1.62109C8.38753 1.80633 8.5377 2.25684 8.35246 2.62732L7.02017 5.29191H11.3431L10.0108 2.62732C9.82558 2.25684 9.97575 1.80633 10.3462 1.62109C10.7167 1.43585 11.1672 1.58602 11.3525 1.9565L13.0202 5.29191ZM4.1166 9.79191H14.2467L13.08 15.0419H5.28327L4.1166 9.79191Z" fill="white"/>
</g>
</svg>
