<svg width="16" height="15" viewBox="0 0 16 15" fill="none" xmlns="http://www.w3.org/2000/svg">
<g id="fi-rr-bookmark" clip-path="url(#clip0_757_5099)">
<path id="Vector" d="M13.3084 15C13.0771 14.9994 12.8484 14.9529 12.6352 14.8633C12.422 14.7738 12.2287 14.6428 12.0665 14.4781L8.22273 10.6569L4.37898 14.4806C4.13213 14.7311 3.81554 14.9014 3.47049 14.9692C3.12545 15.0371 2.76795 14.9995 2.44461 14.8613C2.11806 14.7299 1.8387 14.5031 1.64302 14.2106C1.44734 13.918 1.34443 13.5732 1.34773 13.2213V3.125C1.34773 2.2962 1.67697 1.50134 2.26302 0.915291C2.84908 0.32924 3.64393 0 4.47273 0L11.9727 0C12.3831 0 12.7895 0.0808305 13.1686 0.237876C13.5478 0.394922 13.8923 0.625108 14.1824 0.915291C14.4726 1.20547 14.7028 1.54997 14.8599 1.92911C15.0169 2.30826 15.0977 2.71462 15.0977 3.125V13.2213C15.1012 13.5729 14.9987 13.9175 14.8035 14.21C14.6083 14.5026 14.3294 14.7295 14.0034 14.8613C13.7832 14.9533 13.547 15.0005 13.3084 15ZM4.47273 1.25C3.97545 1.25 3.49854 1.44754 3.14691 1.79918C2.79528 2.15081 2.59773 2.62772 2.59773 3.125V13.2213C2.59751 13.3254 2.62815 13.4273 2.6858 13.514C2.74344 13.6008 2.8255 13.6685 2.9216 13.7086C3.01771 13.7487 3.12355 13.7595 3.22576 13.7395C3.32797 13.7195 3.42196 13.6696 3.49586 13.5963L7.78523 9.33313C7.90234 9.21672 8.06074 9.15138 8.22586 9.15138C8.39097 9.15138 8.54938 9.21672 8.66648 9.33313L12.9509 13.595C13.0248 13.6684 13.1188 13.7182 13.221 13.7382C13.3232 13.7582 13.429 13.7475 13.5251 13.7073C13.6212 13.6672 13.7033 13.5995 13.7609 13.5128C13.8186 13.426 13.8492 13.3241 13.849 13.22V3.125C13.849 2.62772 13.6514 2.15081 13.2998 1.79918C12.9482 1.44754 12.4713 1.25 11.974 1.25H4.47273Z" fill="#005B52"/>
</g>
<defs>
<clipPath id="clip0_757_5099">
<rect width="15" height="15" fill="white" transform="translate(0.722656)"/>
</clipPath>
</defs>
</svg>
