<svg width="23" height="23" viewBox="0 0 23 23" fill="none" xmlns="http://www.w3.org/2000/svg">
<g id="fi-rr-comment-user" clip-path="url(#clip0_1049_38339)">
<path id="Vector" d="M11.5 9.91349C10.7707 9.91349 10.0712 9.62376 9.55546 9.10804C9.03973 8.59231 8.75 7.89284 8.75 7.16349C8.75 6.43415 9.03973 5.73467 9.55546 5.21895C10.0712 4.70322 10.7707 4.41349 11.5 4.41349C12.2293 4.41349 12.9288 4.70322 13.4445 5.21895C13.9603 5.73467 14.25 6.43415 14.25 7.16349C14.25 7.89284 13.9603 8.59231 13.4445 9.10804C12.9288 9.62376 12.2293 9.91349 11.5 9.91349ZM8.72067 14.7251C8.90917 14.1362 9.27989 13.6223 9.77936 13.2578C10.2788 12.8932 10.8812 12.6968 11.4995 12.6968C12.1179 12.6968 12.7203 12.8932 13.2197 13.2578C13.7192 13.6223 14.0899 14.1362 14.2784 14.7251C14.3392 14.9607 14.4911 15.1624 14.7006 15.286C14.9102 15.4096 15.1603 15.4449 15.3958 15.3842C15.6314 15.3234 15.8332 15.1715 15.9568 14.962C16.0804 14.7524 16.1157 14.5023 16.0549 14.2667C14.8532 9.73199 8.14408 9.73383 6.946 14.2667C6.91291 14.3842 6.90361 14.5071 6.91866 14.6283C6.93371 14.7494 6.97279 14.8663 7.03363 14.9721C7.09446 15.078 7.17582 15.1706 7.27292 15.2445C7.37003 15.3185 7.48093 15.3723 7.59911 15.4028C7.7173 15.4333 7.84038 15.44 7.96116 15.4223C8.08193 15.4046 8.19796 15.363 8.30242 15.2998C8.40689 15.2367 8.4977 15.1533 8.56952 15.0546C8.64134 14.9559 8.69273 14.8439 8.72067 14.7251ZM11.5083 22.4397C11.056 22.44 10.6195 22.2739 10.2817 21.9732L6.84608 19.0802H4.16667C3.19421 19.0802 2.26158 18.6939 1.57394 18.0062C0.886308 17.3186 0.5 16.386 0.5 15.4135V4.41349C0.5 3.44103 0.886308 2.5084 1.57394 1.82077C2.26158 1.13313 3.19421 0.746826 4.16667 0.746826L18.8333 0.746826C19.8058 0.746826 20.7384 1.13313 21.4261 1.82077C22.1137 2.5084 22.5 3.44103 22.5 4.41349V15.4135C22.5 16.386 22.1137 17.3186 21.4261 18.0062C20.7384 18.6939 19.8058 19.0802 18.8333 19.0802H16.2181L12.6917 21.9952C12.365 22.2833 11.9439 22.4415 11.5083 22.4397ZM4.16667 2.58016C3.68044 2.58016 3.21412 2.77331 2.8703 3.11713C2.52649 3.46095 2.33333 3.92726 2.33333 4.41349V15.4135C2.33333 15.8997 2.52649 16.366 2.8703 16.7099C3.21412 17.0537 3.68044 17.2468 4.16667 17.2468H7.18158C7.3976 17.2468 7.60667 17.3231 7.77192 17.4622L11.4808 20.5881L15.3051 17.4567C15.4694 17.321 15.6759 17.2468 15.889 17.2468H18.8333C19.3196 17.2468 19.7859 17.0537 20.1297 16.7099C20.4735 16.366 20.6667 15.8997 20.6667 15.4135V4.41349C20.6667 3.92726 20.4735 3.46095 20.1297 3.11713C19.7859 2.77331 19.3196 2.58016 18.8333 2.58016H4.16667Z" fill="black"/>
</g>
<defs>
<clipPath id="clip0_1049_38339">
<rect width="22" height="22" fill="white" transform="translate(0.5 0.746826)"/>
</clipPath>
</defs>
</svg>
