<svg width="7" height="7" viewBox="0 0 7 7" fill="none" xmlns="http://www.w3.org/2000/svg">
<g id="fi-rr-confetti" clip-path="url(#clip0_1739_68804)">
<path id="Vector" d="M5.84951 2.06083C5.57387 2.06083 5.30952 1.94489 5.11461 1.73852C4.9197 1.53214 4.8102 1.25224 4.8102 0.960382C4.8102 0.814453 4.75545 0.674501 4.658 0.571314C4.56054 0.468126 4.42836 0.410156 4.29054 0.410156C4.15272 0.410156 4.02054 0.468126 3.92309 0.571314C3.82564 0.674501 3.77089 0.814453 3.77089 0.960382C3.77089 1.25224 3.66139 1.53214 3.46648 1.73852C3.27157 1.94489 3.00721 2.06083 2.73157 2.06083C2.59375 2.06083 2.46157 2.1188 2.36412 2.22199C2.26666 2.32518 2.21191 2.46513 2.21191 2.61106C2.21191 2.75699 2.26666 2.89694 2.36412 3.00013C2.46157 3.10331 2.59375 3.16128 2.73157 3.16128C3.00721 3.16128 3.27157 3.27722 3.46648 3.4836C3.66139 3.68997 3.77089 3.96988 3.77089 4.26173C3.77089 4.40766 3.82564 4.54761 3.92309 4.6508C4.02054 4.75399 4.15272 4.81196 4.29054 4.81196C4.42836 4.81196 4.56054 4.75399 4.658 4.6508C4.75545 4.54761 4.8102 4.40766 4.8102 4.26173C4.8102 3.96988 4.9197 3.68997 5.11461 3.4836C5.30952 3.27722 5.57387 3.16128 5.84951 3.16128C5.98734 3.16128 6.11951 3.10331 6.21697 3.00013C6.31442 2.89694 6.36917 2.75699 6.36917 2.61106C6.36917 2.46513 6.31442 2.32518 6.21697 2.22199C6.11951 2.1188 5.98734 2.06083 5.84951 2.06083Z" fill="white"/>
<path id="Vector_2" d="M2.63976 4.75103C2.47762 4.75103 2.32212 4.68662 2.20747 4.57196C2.09281 4.45731 2.0284 4.30181 2.0284 4.13967C2.0284 4.05859 1.9962 3.98084 1.93887 3.92352C1.88155 3.86619 1.80379 3.83398 1.72272 3.83398C1.64165 3.83398 1.5639 3.86619 1.50657 3.92352C1.44925 3.98084 1.41704 4.05859 1.41704 4.13967C1.41704 4.30181 1.35263 4.45731 1.23798 4.57196C1.12333 4.68662 0.967824 4.75103 0.805681 4.75103C0.724609 4.75103 0.646858 4.78323 0.589532 4.84056C0.532205 4.89788 0.5 4.97564 0.5 5.05671C0.5 5.13778 0.532205 5.21553 0.589532 5.27286C0.646858 5.33018 0.724609 5.36239 0.805681 5.36239C0.967824 5.36239 1.12333 5.4268 1.23798 5.54145C1.35263 5.6561 1.41704 5.81161 1.41704 5.97375C1.41704 6.05482 1.44925 6.13257 1.50657 6.1899C1.5639 6.24722 1.64165 6.27943 1.72272 6.27943C1.80379 6.27943 1.88155 6.24722 1.93887 6.1899C1.9962 6.13257 2.0284 6.05482 2.0284 5.97375C2.0284 5.81161 2.09281 5.6561 2.20747 5.54145C2.32212 5.4268 2.47762 5.36239 2.63976 5.36239C2.72084 5.36239 2.79859 5.33018 2.85591 5.27286C2.91324 5.21553 2.94545 5.13778 2.94545 5.05671C2.94545 4.97564 2.91324 4.89788 2.85591 4.84056C2.79859 4.78323 2.72084 4.75103 2.63976 4.75103Z" fill="white"/>
</g>
<defs>
<clipPath id="clip0_1739_68804">
<rect width="5.86907" height="5.86907" fill="white" transform="translate(0.5 0.410156)"/>
</clipPath>
</defs>
</svg>
