<svg width="22" height="22" viewBox="0 0 22 22" fill="none" xmlns="http://www.w3.org/2000/svg">
<g id="Group 770634">
<circle id="Ellipse 621" cx="11" cy="11.1143" r="10.25" fill="#D9D9D9" stroke="#EDEDED" stroke-width="0.5"/>
<g id="Mask group">
<mask id="mask0_1128_19110" style="mask-type:luminance" maskUnits="userSpaceOnUse" x="1" y="1" width="20" height="21">
<g id="Group">
<path id="Vector" d="M11 21.1143C16.5228 21.1143 21 16.6371 21 11.1143C21 5.59141 16.5228 1.11426 11 1.11426C5.47715 1.11426 1 5.59141 1 11.1143C1 16.6371 5.47715 21.1143 11 21.1143Z" fill="white"/>
</g>
</mask>
<g mask="url(#mask0_1128_19110)">
<g id="Group_2">
<path id="Vector_2" d="M1 1.11426L1.3125 1.97363L1 2.87207V3.77051L2.25 5.87988L1 7.98926V9.23926L2.25 11.1143L1 12.9893V14.2393L2.25 16.3486L1 18.458V21.1143L1.85938 20.8018L2.75781 21.1143H3.65625L5.76562 19.8643L7.875 21.1143H9.125L11 19.8643L12.875 21.1143H14.125L16.2344 19.8643L18.3438 21.1143H21L20.6875 20.2549L21 19.3564V18.458L19.75 16.3486L21 14.2393V12.9893L19.75 11.1143L21 9.23926V7.98926L19.75 5.87988L21 3.77051V1.11426L20.1406 1.42676L19.2422 1.11426H18.3438L16.2344 2.36426L14.125 1.11426H12.875L11 2.36426L9.125 1.11426H7.875L5.76562 2.36426L3.65625 1.11426H1Z" fill="#EEEEEE"/>
<path id="Vector_3" d="M14.125 1.11426V5.33301L18.3438 1.11426H14.125ZM21 3.77051L16.7812 7.98926H21V3.77051ZM1 7.98926H5.21875L1 3.77051V7.98926ZM3.65625 1.11426L7.875 5.33301V1.11426H3.65625ZM7.875 21.1143V16.8955L3.65625 21.1143H7.875ZM1 18.458L5.21875 14.2393H1V18.458ZM21 14.2393H16.7812L21 18.458V14.2393ZM18.3438 21.1143L14.125 16.8955V21.1143H18.3438Z" fill="#0052B4"/>
<path id="Vector_4" d="M1 1.11426V2.87207L6.11719 7.98926H7.875L1 1.11426ZM9.125 1.11426V9.23926H1V12.9893H9.125V21.1143H12.875V12.9893H21V9.23926H12.875V1.11426H9.125ZM19.2422 1.11426L14.125 6.23145V7.98926L21 1.11426H19.2422ZM7.875 14.2393L1 21.1143H2.75781L7.875 15.9971V14.2393ZM14.125 14.2393L21 21.1143V19.3564L15.8828 14.2393H14.125Z" fill="#D80027"/>
</g>
</g>
</g>
</g>
</svg>
