<svg width="14" height="15" viewBox="0 0 14 15" fill="none" xmlns="http://www.w3.org/2000/svg">
<g id="fi-rr-cross" clip-path="url(#clip0_1238_92724)">
<path id="Vector" d="M13.829 0.671036C13.7196 0.561678 13.5712 0.500244 13.4165 0.500244C13.2619 0.500244 13.1135 0.561678 13.0041 0.671036L6.99988 6.67529L0.995626 0.671036C0.886234 0.561678 0.737888 0.500244 0.583209 0.500244C0.42853 0.500244 0.280183 0.561678 0.170792 0.671036C0.061434 0.780427 0 0.928774 0 1.08345C0 1.23813 0.061434 1.38648 0.170792 1.49587L6.17504 7.50012L0.170792 13.5044C0.061434 13.6138 0 13.7621 0 13.9168C0 14.0715 0.061434 14.2198 0.170792 14.3292C0.280183 14.4386 0.42853 14.5 0.583209 14.5C0.737888 14.5 0.886234 14.4386 0.995626 14.3292L6.99988 8.32495L13.0041 14.3292C13.1135 14.4386 13.2619 14.5 13.4165 14.5C13.5712 14.5 13.7196 14.4386 13.829 14.3292C13.9383 14.2198 13.9998 14.0715 13.9998 13.9168C13.9998 13.7621 13.9383 13.6138 13.829 13.5044L7.82471 7.50012L13.829 1.49587C13.9383 1.38648 13.9998 1.23813 13.9998 1.08345C13.9998 0.928774 13.9383 0.780427 13.829 0.671036Z" fill="currentcolor"/>
</g>
<defs>
<clipPath id="clip0_1238_92724">
<rect width="14" height="14" fill="white" transform="translate(0 0.5)"/>
</clipPath>
</defs>
</svg>
