<svg width="14" height="15" viewBox="0 0 14 15" fill="none" xmlns="http://www.w3.org/2000/svg">
<g id="fi-rr-apps" clip-path="url(#clip0_1238_10656)">
<path id="Vector" d="M4.08333 0.5H2.33333C1.71449 0.5 1.121 0.745833 0.683417 1.18342C0.245833 1.621 0 2.21449 0 2.83333L0 4.58333C0 5.20217 0.245833 5.79566 0.683417 6.23325C1.121 6.67083 1.71449 6.91667 2.33333 6.91667H4.08333C4.70217 6.91667 5.29566 6.67083 5.73325 6.23325C6.17083 5.79566 6.41667 5.20217 6.41667 4.58333V2.83333C6.41667 2.21449 6.17083 1.621 5.73325 1.18342C5.29566 0.745833 4.70217 0.5 4.08333 0.5V0.5ZM5.25 4.58333C5.25 4.89275 5.12708 5.1895 4.90829 5.40829C4.6895 5.62708 4.39275 5.75 4.08333 5.75H2.33333C2.02391 5.75 1.72717 5.62708 1.50838 5.40829C1.28958 5.1895 1.16667 4.89275 1.16667 4.58333V2.83333C1.16667 2.52391 1.28958 2.22717 1.50838 2.00838C1.72717 1.78958 2.02391 1.66667 2.33333 1.66667H4.08333C4.39275 1.66667 4.6895 1.78958 4.90829 2.00838C5.12708 2.22717 5.25 2.52391 5.25 2.83333V4.58333Z" fill="black"/>
<path id="Vector_2" d="M11.6663 0.5H9.91634C9.2975 0.5 8.70401 0.745833 8.26642 1.18342C7.82884 1.621 7.58301 2.2145 7.58301 2.83333V4.58334C7.58301 5.20218 7.82884 5.79567 8.26642 6.23325C8.70401 6.67084 9.2975 6.91667 9.91634 6.91667H11.6663C12.2852 6.91667 12.8787 6.67084 13.3162 6.23325C13.7538 5.79567 13.9997 5.20218 13.9997 4.58334V2.83333C13.9997 2.2145 13.7538 1.621 13.3162 1.18342C12.8787 0.745833 12.2852 0.5 11.6663 0.5V0.5ZM12.833 4.58334C12.833 4.89276 12.7101 5.1895 12.4913 5.40829C12.2725 5.62709 11.9758 5.75 11.6663 5.75H9.91634C9.60692 5.75 9.31017 5.62709 9.09138 5.40829C8.87259 5.1895 8.74967 4.89276 8.74967 4.58334V2.83333C8.74967 2.52392 8.87259 2.22717 9.09138 2.00838C9.31017 1.78958 9.60692 1.66667 9.91634 1.66667H11.6663C11.9758 1.66667 12.2725 1.78958 12.4913 2.00838C12.7101 2.22717 12.833 2.52392 12.833 2.83333V4.58334Z" fill="black"/>
<path id="Vector_3" d="M4.08333 8.08325H2.33333C1.71449 8.08325 1.121 8.32908 0.683417 8.76667C0.245833 9.20426 0 9.79775 0 10.4166L0 12.1666C0 12.7854 0.245833 13.3789 0.683417 13.8165C1.121 14.2541 1.71449 14.4999 2.33333 14.4999H4.08333C4.70217 14.4999 5.29566 14.2541 5.73325 13.8165C6.17083 13.3789 6.41667 12.7854 6.41667 12.1666V10.4166C6.41667 9.79775 6.17083 9.20426 5.73325 8.76667C5.29566 8.32908 4.70217 8.08325 4.08333 8.08325ZM5.25 12.1666C5.25 12.476 5.12708 12.7728 4.90829 12.9915C4.6895 13.2103 4.39275 13.3333 4.08333 13.3333H2.33333C2.02391 13.3333 1.72717 13.2103 1.50838 12.9915C1.28958 12.7728 1.16667 12.476 1.16667 12.1666V10.4166C1.16667 10.1072 1.28958 9.81042 1.50838 9.59163C1.72717 9.37284 2.02391 9.24992 2.33333 9.24992H4.08333C4.39275 9.24992 4.6895 9.37284 4.90829 9.59163C5.12708 9.81042 5.25 10.1072 5.25 10.4166V12.1666Z" fill="black"/>
<path id="Vector_4" d="M11.6663 8.08325H9.91634C9.2975 8.08325 8.70401 8.32908 8.26642 8.76667C7.82884 9.20426 7.58301 9.79775 7.58301 10.4166V12.1666C7.58301 12.7854 7.82884 13.3789 8.26642 13.8165C8.70401 14.2541 9.2975 14.4999 9.91634 14.4999H11.6663C12.2852 14.4999 12.8787 14.2541 13.3162 13.8165C13.7538 13.3789 13.9997 12.7854 13.9997 12.1666V10.4166C13.9997 9.79775 13.7538 9.20426 13.3162 8.76667C12.8787 8.32908 12.2852 8.08325 11.6663 8.08325ZM12.833 12.1666C12.833 12.476 12.7101 12.7728 12.4913 12.9915C12.2725 13.2103 11.9758 13.3333 11.6663 13.3333H9.91634C9.60692 13.3333 9.31017 13.2103 9.09138 12.9915C8.87259 12.7728 8.74967 12.476 8.74967 12.1666V10.4166C8.74967 10.1072 8.87259 9.81042 9.09138 9.59163C9.31017 9.37284 9.60692 9.24992 9.91634 9.24992H11.6663C11.9758 9.24992 12.2725 9.37284 12.4913 9.59163C12.7101 9.81042 12.833 10.1072 12.833 10.4166V12.1666Z" fill="black"/>
</g>
<defs>
<clipPath id="clip0_1238_10656">
<rect width="14" height="14" fill="white" transform="translate(0 0.5)"/>
</clipPath>
</defs>
</svg>
