<svg width="13" height="13" viewBox="0 0 13 13" fill="none" xmlns="http://www.w3.org/2000/svg">
<g id="fi-rr-confetti" clip-path="url(#clip0_1246_11491)">
<path id="Vector" d="M11.8154 3.875C11.2518 3.875 10.7113 3.63795 10.3128 3.21599C9.91431 2.79403 9.69043 2.22174 9.69043 1.625C9.69043 1.32663 9.57849 1.04048 9.37923 0.829505C9.17997 0.618526 8.90972 0.5 8.62793 0.5C8.34614 0.5 8.07589 0.618526 7.87663 0.829505C7.67737 1.04048 7.56543 1.32663 7.56543 1.625C7.56543 2.22174 7.34155 2.79403 6.94303 3.21599C6.54452 3.63795 6.00401 3.875 5.44043 3.875C5.15864 3.875 4.88839 3.99353 4.68913 4.2045C4.48987 4.41548 4.37793 4.70163 4.37793 5C4.37793 5.29837 4.48987 5.58452 4.68913 5.7955C4.88839 6.00647 5.15864 6.125 5.44043 6.125C6.00401 6.125 6.54452 6.36205 6.94303 6.78401C7.34155 7.20597 7.56543 7.77826 7.56543 8.375C7.56543 8.67337 7.67737 8.95952 7.87663 9.1705C8.07589 9.38147 8.34614 9.5 8.62793 9.5C8.90972 9.5 9.17997 9.38147 9.37923 9.1705C9.57849 8.95952 9.69043 8.67337 9.69043 8.375C9.69043 7.77826 9.91431 7.20597 10.3128 6.78401C10.7113 6.36205 11.2518 6.125 11.8154 6.125C12.0972 6.125 12.3675 6.00647 12.5667 5.7955C12.766 5.58452 12.8779 5.29837 12.8779 5C12.8779 4.70163 12.766 4.41548 12.5667 4.2045C12.3675 3.99353 12.0972 3.875 11.8154 3.875Z" fill="black"/>
<path id="Vector_2" d="M5.25293 9.375C4.92141 9.375 4.60347 9.2433 4.36905 9.00888C4.13463 8.77446 4.00293 8.45652 4.00293 8.125C4.00293 7.95924 3.93708 7.80027 3.81987 7.68306C3.70266 7.56585 3.54369 7.5 3.37793 7.5C3.21217 7.5 3.0532 7.56585 2.93599 7.68306C2.81878 7.80027 2.75293 7.95924 2.75293 8.125C2.75293 8.45652 2.62123 8.77446 2.38681 9.00888C2.15239 9.2433 1.83445 9.375 1.50293 9.375C1.33717 9.375 1.1782 9.44085 1.06099 9.55806C0.943777 9.67527 0.87793 9.83424 0.87793 10C0.87793 10.1658 0.943777 10.3247 1.06099 10.4419C1.1782 10.5592 1.33717 10.625 1.50293 10.625C1.83445 10.625 2.15239 10.7567 2.38681 10.9911C2.62123 11.2255 2.75293 11.5435 2.75293 11.875C2.75293 12.0408 2.81878 12.1997 2.93599 12.3169C3.0532 12.4342 3.21217 12.5 3.37793 12.5C3.54369 12.5 3.70266 12.4342 3.81987 12.3169C3.93708 12.1997 4.00293 12.0408 4.00293 11.875C4.00293 11.5435 4.13463 11.2255 4.36905 10.9911C4.60347 10.7567 4.92141 10.625 5.25293 10.625C5.41869 10.625 5.57766 10.5592 5.69487 10.4419C5.81208 10.3247 5.87793 10.1658 5.87793 10C5.87793 9.83424 5.81208 9.67527 5.69487 9.55806C5.57766 9.44085 5.41869 9.375 5.25293 9.375Z" fill="black"/>
</g>
<defs>
<clipPath id="clip0_1246_11491">
<rect width="12" height="12" fill="white" transform="translate(0.87793 0.5)"/>
</clipPath>
</defs>
</svg>
