<svg width="16" height="15" viewBox="0 0 16 15" fill="none" xmlns="http://www.w3.org/2000/svg">
<g id="fi-rr-bell-school" clip-path="url(#clip0_757_5087)">
<path id="Vector" d="M6.41038 5.00096C6.65761 5.00096 6.89928 5.07427 7.10484 5.21162C7.3104 5.34898 7.47062 5.5442 7.56523 5.77261C7.65984 6.00101 7.68459 6.25235 7.63636 6.49482C7.58813 6.7373 7.46908 6.96003 7.29426 7.13484C7.11945 7.30966 6.89672 7.42871 6.65424 7.47694C6.41177 7.52517 6.16043 7.50042 5.93203 7.40581C5.70362 7.3112 5.50839 7.15098 5.37104 6.94542C5.23369 6.73986 5.16038 6.49819 5.16038 6.25096C5.16038 5.91944 5.29208 5.6015 5.5265 5.36708C5.76092 5.13266 6.07886 5.00096 6.41038 5.00096ZM15.1604 6.25096C15.1541 8.30947 14.436 10.3024 13.1277 11.8918C11.8195 13.4812 10.0018 14.5691 7.98288 14.971C7.71552 15.0198 7.44067 15.0089 7.178 14.9391C6.91534 14.8693 6.67135 14.7423 6.46351 14.5672C6.25122 14.3904 6.08043 14.1691 5.96324 13.919C5.84604 13.6688 5.78532 13.396 5.78538 13.1197V12.4691C4.73362 12.3641 3.72567 11.9941 2.85579 11.3936C1.98591 10.7932 1.28253 9.98191 0.81141 9.03572C0.340294 8.08954 0.116839 7.03932 0.161944 5.9833C0.207048 4.92727 0.519238 3.89993 1.06932 2.99736C1.6194 2.09479 2.3894 1.34647 3.30731 0.822382C4.22521 0.298294 5.26104 0.0155615 6.31793 0.000624257C7.37481 -0.014313 8.41822 0.239034 9.35057 0.736971C10.2829 1.23491 11.0738 1.96117 11.6491 2.84784C11.6939 2.91686 11.7246 2.99403 11.7396 3.07494C11.7545 3.15584 11.7534 3.2389 11.7363 3.31937C11.7191 3.39983 11.6863 3.47614 11.6396 3.54392C11.593 3.6117 11.5335 3.66963 11.4644 3.7144C11.3954 3.75917 11.3182 3.78991 11.2373 3.80486C11.1564 3.81981 11.0734 3.81867 10.9929 3.80152C10.9124 3.78438 10.8361 3.75154 10.7684 3.70491C10.7006 3.65827 10.6427 3.59874 10.5979 3.52971C10.0109 2.62496 9.14716 1.93423 8.13548 1.56061C7.1238 1.18698 6.01843 1.15047 4.9843 1.45653C3.95017 1.76259 3.04272 2.39482 2.39734 3.25887C1.75197 4.12293 1.40326 5.17249 1.40326 6.25096C1.40326 7.32943 1.75197 8.37899 2.39734 9.24305C3.04272 10.1071 3.95017 10.7393 4.9843 11.0454C6.01843 11.3514 7.1238 11.3149 8.13548 10.9413C9.14716 10.5677 10.0109 9.87696 10.5979 8.97221C10.6427 8.90339 10.7005 8.84406 10.7682 8.79761C10.8359 8.75116 10.9121 8.7185 10.9925 8.7015C11.0728 8.6845 11.1557 8.68348 11.2364 8.69851C11.3171 8.71353 11.3941 8.74431 11.4629 8.78909C11.5317 8.83386 11.591 8.89175 11.6375 8.95945C11.6839 9.02715 11.7166 9.10334 11.7336 9.18366C11.7506 9.26398 11.7516 9.34687 11.7366 9.42758C11.7216 9.5083 11.6908 9.58526 11.646 9.65409C11.1375 10.4381 10.459 11.0976 9.66088 11.5837C8.86271 12.0697 7.96535 12.3697 7.03538 12.4616V13.1197C7.03544 13.2129 7.05603 13.305 7.09567 13.3893C7.13531 13.4737 7.19304 13.5483 7.26475 13.6078C7.33196 13.6656 7.41126 13.7075 7.49682 13.7306C7.58238 13.7536 7.67202 13.7571 7.75913 13.741C9.1819 13.4589 10.4946 12.7767 11.5431 11.7744C12.5915 10.7722 13.3321 9.49147 13.6779 8.08284C13.549 8.11119 13.4174 8.12565 13.2854 8.12596C12.9145 8.12596 12.552 8.01599 12.2437 7.80997C11.9353 7.60394 11.695 7.3111 11.5531 6.96849C11.4112 6.62588 11.3741 6.24888 11.4464 5.88517C11.5188 5.52145 11.6973 5.18736 11.9596 4.92514C12.2218 4.66291 12.5559 4.48434 12.9196 4.41199C13.2833 4.33964 13.6603 4.37677 14.0029 4.51869C14.3455 4.6606 14.6384 4.90092 14.8444 5.20927C15.0504 5.51761 15.1604 5.88012 15.1604 6.25096ZM13.9104 6.25096C13.9104 6.12735 13.8737 6.00651 13.805 5.90373C13.7364 5.80095 13.6388 5.72084 13.5246 5.67354C13.4104 5.62623 13.2847 5.61385 13.1634 5.63797C13.0422 5.66209 12.9308 5.72161 12.8434 5.80902C12.756 5.89643 12.6965 6.00779 12.6724 6.12903C12.6483 6.25027 12.6607 6.37593 12.708 6.49014C12.7553 6.60434 12.8354 6.70195 12.9381 6.77063C13.0409 6.8393 13.1618 6.87596 13.2854 6.87596C13.4511 6.87596 13.6101 6.81011 13.7273 6.6929C13.8445 6.57569 13.9104 6.41672 13.9104 6.25096Z" fill="#005B52"/>
</g>
<defs>
<clipPath id="clip0_757_5087">
<rect width="15" height="15" fill="white" transform="translate(0.160156)"/>
</clipPath>
</defs>
</svg>
