<svg class="w-[14px] h-[14px]" viewBox="0 0 14 15" fill="none" xmlns="http://www.w3.org/2000/svg">
<g id="fi-rr-film" clip-path="url(#clip0_2840_158853)">
<path id="Vector" d="M11.0833 0.763672H2.91667C2.1434 0.764598 1.40208 1.07219 0.855295 1.61897C0.308514 2.16575 0.00092625 2.90707 0 3.68034L0 11.847C0.00092625 12.6203 0.308514 13.3616 0.855295 13.9084C1.40208 14.4552 2.1434 14.7627 2.91667 14.7637H11.0833C11.8566 14.7627 12.5979 14.4552 13.1447 13.9084C13.6915 13.3616 13.9991 12.6203 14 11.847V3.68034C13.9991 2.90707 13.6915 2.16575 13.1447 1.61897C12.5979 1.07219 11.8566 0.764598 11.0833 0.763672V0.763672ZM11.6667 7.18034H12.8333V8.347H11.6667V7.18034ZM11.6667 6.01367V4.847H12.8333V6.01367H11.6667ZM10.5 7.18034H3.5V1.93034H10.5V7.18034ZM2.33333 8.347H1.16667V7.18034H2.33333V8.347ZM2.33333 6.01367H1.16667V4.847H2.33333V6.01367ZM1.16667 9.51367H2.33333V10.6803H1.16667V9.51367ZM3.5 8.347H10.5V13.597H3.5V8.347ZM11.6667 9.51367H12.8333V10.6803H11.6667V9.51367ZM12.8333 3.68034H11.6667V2.03767C12.0067 2.15789 12.3013 2.38022 12.5101 2.67426C12.719 2.9683 12.8318 3.31969 12.8333 3.68034ZM2.33333 2.03767V3.68034H1.16667C1.16816 3.31969 1.28105 2.9683 1.48988 2.67426C1.69872 2.38022 1.9933 2.15789 2.33333 2.03767ZM1.16667 11.847H2.33333V13.4897C1.9933 13.3695 1.69872 13.1471 1.48988 12.8531C1.28105 12.559 1.16816 12.2077 1.16667 11.847ZM11.6667 13.4897V11.847H12.8333C12.8318 12.2077 12.719 12.559 12.5101 12.8531C12.3013 13.1471 12.0067 13.3695 11.6667 13.4897Z" fill="black"/>
</g>
<defs>
<clipPath id="clip0_2840_158853">
<rect width="14" height="14" fill="white" transform="translate(0 0.763672)"/>
</clipPath>
</defs>
</svg>
