<svg class="w-[14px] h-[14px]" viewBox="0 0 14 15" fill="none" xmlns="http://www.w3.org/2000/svg">
<g id="fi-rr-file-music" clip-path="url(#clip0_2840_158877)">
<path id="Vector" d="M8.74935 7.29298C8.74935 7.44769 8.68789 7.59607 8.57849 7.70546C8.4691 7.81486 8.32072 7.87632 8.16602 7.87632H7.58268V10.5013C7.58268 10.7897 7.49715 11.0717 7.33691 11.3115C7.17666 11.5513 6.9489 11.7383 6.68243 11.8486C6.41595 11.959 6.12273 11.9879 5.83984 11.9316C5.55695 11.8754 5.2971 11.7365 5.09315 11.5325C4.8892 11.3286 4.75031 11.0687 4.69404 10.7858C4.63777 10.5029 4.66665 10.2097 4.77702 9.94323C4.8874 9.67676 5.07432 9.449 5.31414 9.28876C5.55396 9.12851 5.83592 9.04298 6.12435 9.04298C6.22229 9.04318 6.31998 9.05295 6.41602 9.07215V7.87632C6.41602 7.5669 6.53893 7.27015 6.75772 7.05136C6.97652 6.83257 7.27326 6.70965 7.58268 6.70965H8.16602C8.32072 6.70965 8.4691 6.77111 8.57849 6.8805C8.68789 6.9899 8.74935 7.13827 8.74935 7.29298ZM12.8327 6.40923V11.3763C12.8318 12.1496 12.5242 12.8909 11.9774 13.4377C11.4306 13.9845 10.6893 14.2921 9.91602 14.293H4.08268C3.30942 14.2921 2.56809 13.9845 2.02131 13.4377C1.47453 12.8909 1.16694 12.1496 1.16602 11.3763V3.20965C1.16694 2.43639 1.47453 1.69506 2.02131 1.14828C2.56809 0.601497 3.30942 0.293909 4.08268 0.292983H6.71643C7.25293 0.291582 7.78438 0.396603 8.28002 0.601968C8.77566 0.807333 9.22565 1.10896 9.60393 1.4894L11.6363 3.52173C12.0167 3.90002 12.3183 4.35001 12.5237 4.84564C12.7291 5.34128 12.8341 5.87273 12.8327 6.40923ZM8.7791 2.31423C8.59564 2.1361 8.3895 1.98292 8.16602 1.85865V4.37632C8.16602 4.53103 8.22747 4.6794 8.33687 4.78879C8.44627 4.89819 8.59464 4.95965 8.74935 4.95965H11.267C11.1427 4.73616 10.9896 4.53002 10.8114 4.34657L8.7791 2.31423ZM11.666 6.40923C11.666 6.31298 11.6473 6.22082 11.6386 6.12632H8.74935C8.28522 6.12632 7.8401 5.94194 7.51191 5.61375C7.18372 5.28556 6.99935 4.84044 6.99935 4.37632V1.48707C6.90485 1.47832 6.81268 1.45965 6.71643 1.45965H4.08268C3.61855 1.45965 3.17343 1.64402 2.84525 1.97221C2.51706 2.3004 2.33268 2.74552 2.33268 3.20965V11.3763C2.33268 11.8404 2.51706 12.2856 2.84525 12.6138C3.17343 12.9419 3.61855 13.1263 4.08268 13.1263H9.91602C10.3801 13.1263 10.8253 12.9419 11.1535 12.6138C11.4816 12.2856 11.666 11.8404 11.666 11.3763V6.40923Z" fill="black"/>
</g>
<defs>
<clipPath id="clip0_2840_158877">
<rect width="14" height="14" fill="white" transform="translate(0 0.292969)"/>
</clipPath>
</defs>
</svg>
