<svg width="40" height="41" viewBox="0 0 40 41" fill="none" xmlns="http://www.w3.org/2000/svg">
<g id="fi-rr-edit-alt" clip-path="url(#clip0_1110_66060)">
<path id="Vector" d="M15.4801 22.3923C11.6184 23.1357 9.70507 27.4357 8.87507 30.1157C8.7968 30.3655 8.77847 30.6302 8.82157 30.8884C8.86468 31.1466 8.968 31.391 9.12316 31.6019C9.27833 31.8127 9.48098 31.984 9.7147 32.102C9.94842 32.2199 10.2066 32.2811 10.4684 32.2807H16.6667C17.3619 32.2808 18.0495 32.1359 18.6856 31.8554C19.3216 31.5748 19.8922 31.1647 20.3608 30.6512C20.8294 30.1377 21.1858 29.5322 21.4073 28.8732C21.6287 28.2142 21.7102 27.5163 21.6467 26.824C21.5582 26.1167 21.3245 25.4352 20.9603 24.8224C20.5962 24.2095 20.1094 23.6784 19.5305 23.2624C18.9516 22.8464 18.2931 22.5544 17.5961 22.4047C16.8991 22.255 16.1787 22.2508 15.4801 22.3923Z" fill="#0D0D0D"/>
<path id="Vector_2" d="M38.3333 15.5793C37.8913 15.5793 37.4674 15.7549 37.1548 16.0674C36.8423 16.38 36.6667 16.8039 36.6667 17.2459V25.6143H30C28.6739 25.6143 27.4021 26.141 26.4645 27.0787C25.5268 28.0164 25 29.2882 25 30.6143V37.2809H8.33333C7.00725 37.2809 5.73548 36.7541 4.7978 35.8165C3.86012 34.8788 3.33333 33.607 3.33333 32.2809V8.94759C3.33333 7.62151 3.86012 6.34974 4.7978 5.41206C5.73548 4.47438 7.00725 3.94759 8.33333 3.94759H26.7367C27.1787 3.94759 27.6026 3.772 27.9152 3.45944C28.2277 3.14688 28.4033 2.72295 28.4033 2.28092C28.4033 1.8389 28.2277 1.41497 27.9152 1.10241C27.6026 0.789853 27.1787 0.614258 26.7367 0.614258H8.33333C6.12401 0.616904 4.00593 1.49573 2.4437 3.05796C0.88147 4.62019 0.00264643 6.73827 0 8.94759L0 32.2809C0.00264643 34.4902 0.88147 36.6083 2.4437 38.1706C4.00593 39.7328 6.12401 40.6116 8.33333 40.6143H27.2383C28.3329 40.6173 29.4173 40.4033 30.4286 39.9845C31.4399 39.5656 32.3581 38.9504 33.13 38.1743L37.56 33.7443C38.3361 32.9723 38.9514 32.0542 39.3702 31.0429C39.789 30.0315 40.0031 28.9472 40 27.8526V17.2459C40 16.8039 39.8244 16.38 39.5118 16.0674C39.1993 15.7549 38.7754 15.5793 38.3333 15.5793ZM30.7733 35.8176C30.1012 36.4822 29.2557 36.9442 28.3333 37.1509V30.6143C28.3333 30.1722 28.5089 29.7483 28.8215 29.4357C29.134 29.1232 29.558 28.9476 30 28.9476H36.5417C36.335 29.8699 35.8729 30.7155 35.2083 31.3876L30.7733 35.8176Z" fill="#0D0D0D"/>
<path id="Vector_3" d="M24.2769 24.2307C23.9473 24.2306 23.6251 24.1328 23.3511 23.9497C23.0771 23.7665 22.8635 23.5063 22.7374 23.2018C22.6113 22.8973 22.5783 22.5622 22.6426 22.239C22.7068 21.9157 22.8655 21.6188 23.0985 21.3857L36.1869 8.29735C36.3332 8.15137 36.4492 7.97796 36.5284 7.78706C36.6076 7.59616 36.6484 7.39152 36.6484 7.18485C36.6484 6.97818 36.6076 6.77354 36.5284 6.58264C36.4492 6.39174 36.3332 6.21834 36.1869 6.07235C36.0381 5.91765 35.8578 5.79667 35.6583 5.71761C35.4587 5.63854 35.2446 5.60321 35.0302 5.61402C34.8159 5.61868 34.605 5.66757 34.4105 5.75763C34.2161 5.84768 34.0423 5.97696 33.9002 6.13735L21.2335 20.149C20.9371 20.477 20.5226 20.6738 20.0811 20.6962C19.6396 20.7185 19.2073 20.5646 18.8794 20.2682C18.5514 19.9718 18.3546 19.5573 18.3322 19.1158C18.3099 18.6743 18.4638 18.242 18.7602 17.914L31.4269 3.91402C31.8711 3.41813 32.4114 3.01765 33.015 2.73688C33.6187 2.45611 34.2731 2.30091 34.9385 2.28068C35.605 2.2664 36.2676 2.38622 36.8869 2.63302C37.5062 2.87981 38.0695 3.24856 38.5435 3.71735C39.4623 4.63815 39.9782 5.88577 39.9782 7.18652C39.9782 8.48726 39.4623 9.73489 38.5435 10.6557L25.4552 23.744C25.3007 23.899 25.117 24.0218 24.9148 24.1054C24.7125 24.1889 24.4957 24.2315 24.2769 24.2307Z" fill="#0D0D0D"/>
</g>
<defs>
<clipPath id="clip0_1110_66060">
<rect width="40" height="40" fill="white" transform="translate(0 0.614258)"/>
</clipPath>
</defs>
</svg>
