<svg width="40" height="41" viewBox="0 0 40 41" fill="none" xmlns="http://www.w3.org/2000/svg">
<g id="fi-rr-cloud-share" clip-path="url(#clip0_1110_28296)">
<path id="Vector" d="M35.0003 30.1141C33.7075 30.1155 32.466 30.62 31.5386 31.5207L26.6053 29.0524C26.6385 28.8522 26.6591 28.6502 26.667 28.4474C26.6591 28.2446 26.6385 28.0426 26.6053 27.8424L31.5386 25.3741C32.3693 26.1697 33.4494 26.654 34.5961 26.7448C35.7428 26.8357 36.8857 26.5276 37.8314 25.8727C38.777 25.2178 39.4673 24.2562 39.7856 23.1508C40.1038 22.0454 40.0303 20.864 39.5776 19.8066C39.1249 18.7491 38.3207 17.8805 37.3012 17.3478C36.2817 16.8151 35.1095 16.651 33.9829 16.8832C32.8563 17.1154 31.8445 17.7297 31.1188 18.6222C30.393 19.5147 29.9979 20.6304 30.0003 21.7807C30.0081 21.9835 30.0287 22.1856 30.062 22.3857L25.1286 24.8541C24.423 24.1713 23.5319 23.7114 22.5666 23.5318C21.6013 23.3521 20.6044 23.4607 19.7004 23.8439C18.7964 24.2271 18.0252 24.8681 17.4831 25.6867C16.941 26.5054 16.6519 27.4655 16.6519 28.4474C16.6519 29.4293 16.941 30.3894 17.4831 31.2081C18.0252 32.0267 18.7964 32.6677 19.7004 33.0509C20.6044 33.4341 21.6013 33.5426 22.5666 33.363C23.5319 33.1834 24.423 32.7235 25.1286 32.0407L30.062 34.5091C30.0287 34.7092 30.0081 34.9113 30.0003 35.1141C30.0003 36.103 30.2935 37.0697 30.8429 37.8919C31.3924 38.7142 32.1732 39.355 33.0869 39.7335C34.0005 40.1119 35.0058 40.2109 35.9757 40.018C36.9457 39.8251 37.8366 39.3489 38.5358 38.6496C39.2351 37.9503 39.7113 37.0594 39.9042 36.0895C40.0971 35.1196 39.9981 34.1143 39.6197 33.2006C39.2413 32.287 38.6004 31.5061 37.7781 30.9567C36.9559 30.4073 35.9892 30.1141 35.0003 30.1141ZM35.0003 20.1141C35.3299 20.1141 35.6522 20.2118 35.9262 20.3949C36.2003 20.5781 36.4139 20.8384 36.5401 21.1429C36.6662 21.4475 36.6992 21.7826 36.6349 22.1059C36.5706 22.4292 36.4119 22.7262 36.1788 22.9592C35.9457 23.1923 35.6487 23.3511 35.3254 23.4154C35.0021 23.4797 34.667 23.4467 34.3625 23.3205C34.0579 23.1944 33.7976 22.9808 33.6145 22.7067C33.4314 22.4326 33.3336 22.1104 33.3336 21.7807C33.3336 21.3387 33.5092 20.9148 33.8218 20.6022C34.1343 20.2897 34.5583 20.1141 35.0003 20.1141ZM21.667 30.1141C21.3373 30.1141 21.0151 30.0163 20.741 29.8332C20.4669 29.65 20.2533 29.3897 20.1272 29.0852C20.001 28.7807 19.968 28.4455 20.0323 28.1222C20.0966 27.7989 20.2554 27.502 20.4884 27.2689C20.7215 27.0358 21.0185 26.8771 21.3418 26.8128C21.6651 26.7484 22.0002 26.7815 22.3048 26.9076C22.6093 27.0337 22.8696 27.2474 23.0527 27.5214C23.2359 27.7955 23.3336 28.1178 23.3336 28.4474C23.3336 28.8894 23.158 29.3134 22.8455 29.6259C22.5329 29.9385 22.109 30.1141 21.667 30.1141ZM35.0003 36.7807C34.6707 36.7807 34.3484 36.683 34.0743 36.4999C33.8003 36.3167 33.5866 36.0564 33.4605 35.7519C33.3343 35.4473 33.3013 35.1122 33.3657 34.7889C33.43 34.4656 33.5887 34.1686 33.8218 33.9356C34.0549 33.7025 34.3518 33.5437 34.6751 33.4794C34.9984 33.4151 35.3336 33.4481 35.6381 33.5743C35.9426 33.7004 36.2029 33.914 36.3861 34.1881C36.5692 34.4622 36.667 34.7844 36.667 35.1141C36.667 35.5561 36.4914 35.98 36.1788 36.2926C35.8662 36.6051 35.4423 36.7807 35.0003 36.7807ZM20.0003 36.7807C20.0003 37.2228 19.8247 37.6467 19.5121 37.9592C19.1996 38.2718 18.7757 38.4474 18.3336 38.4474H9.46529C7.24408 38.4068 5.10356 37.6078 3.39912 36.1828C1.69469 34.7579 0.528896 32.7929 0.095295 30.6141C-0.188523 28.7386 0.122705 26.8213 0.985209 25.1318C1.84771 23.4424 3.2181 22.0658 4.90363 21.1957C3.45671 18.5646 2.98455 15.5074 3.5703 12.5624C4.13983 9.64953 5.66498 7.00997 7.90416 5.06183C10.1433 3.11369 12.9685 1.96836 15.9321 1.80726C18.8958 1.64616 21.8285 2.47851 24.2656 4.17246C26.7028 5.86641 28.505 8.3251 29.387 11.1591C29.471 11.4466 29.6248 11.709 29.8348 11.9227C30.0447 12.1364 30.3043 12.2949 30.5903 12.3841C30.8042 12.4443 31.004 12.5467 31.1778 12.6852C31.3516 12.8238 31.4959 12.9957 31.6022 13.1909C31.7086 13.386 31.7748 13.6005 31.7971 13.8216C31.8193 14.0428 31.7971 14.2661 31.7317 14.4785C31.6664 14.691 31.5592 14.8882 31.4165 15.0586C31.2738 15.229 31.0984 15.3691 30.9007 15.4707C30.7031 15.5723 30.4871 15.6334 30.2655 15.6503C30.0438 15.6671 29.8211 15.6395 29.6103 15.5691C28.8068 15.3193 28.0764 14.877 27.4827 14.2807C26.889 13.6843 26.4499 12.952 26.2036 12.1474C25.8025 10.8127 25.1269 9.57665 24.2201 8.51842C23.3133 7.4602 22.1953 6.60319 20.9378 6.00239C19.6804 5.40159 18.3112 5.07025 16.9182 5.02963C15.5251 4.98902 14.139 5.24002 12.8487 5.76653C11.5583 6.29305 10.3923 7.08346 9.42537 8.08705C8.45843 9.09064 7.71193 10.2853 7.23377 11.5943C6.7556 12.9033 6.55633 14.2978 6.64872 15.6884C6.74112 17.0789 7.12314 18.4348 7.7703 19.6691C8.18269 20.439 8.2754 21.3403 8.02837 22.1781C7.78134 23.0159 7.21444 23.7227 6.45029 24.1457C5.3775 24.7009 4.50558 25.5781 3.95703 26.6543C3.40848 27.7305 3.21087 28.9515 3.39196 30.1457C3.70047 31.535 4.46706 32.7802 5.56854 33.6813C6.67003 34.5824 8.04245 35.087 9.46529 35.1141H18.3336C18.7757 35.1141 19.1996 35.2897 19.5121 35.6022C19.8247 35.9148 20.0003 36.3387 20.0003 36.7807Z" fill="#0D0D0D"/>
</g>
<defs>
<clipPath id="clip0_1110_28296">
<rect width="40" height="40" fill="white" transform="translate(0 0.114258)"/>
</clipPath>
</defs>
</svg>
