<svg width="17" height="18" viewBox="0 0 17 18" fill="none" xmlns="http://www.w3.org/2000/svg">
<g id="fi-rr-envelope" clip-path="url(#clip0_1307_33599)">
<path id="Vector" d="M13.4583 1.32227H3.54167C2.6027 1.32339 1.70252 1.69689 1.03857 2.36084C0.374625 3.02479 0.00112473 3.92497 0 4.86393L0 13.3639C0.00112473 14.3029 0.374625 15.2031 1.03857 15.867C1.70252 16.531 2.6027 16.9045 3.54167 16.9056H13.4583C14.3973 16.9045 15.2975 16.531 15.9614 15.867C16.6254 15.2031 16.9989 14.3029 17 13.3639V4.86393C16.9989 3.92497 16.6254 3.02479 15.9614 2.36084C15.2975 1.69689 14.3973 1.32339 13.4583 1.32227ZM3.54167 2.73893H13.4583C13.8825 2.73977 14.2967 2.86751 14.6476 3.10571C14.9985 3.34391 15.2701 3.68169 15.4275 4.07556L10.0031 9.50068C9.60389 9.89828 9.06342 10.1215 8.5 10.1215C7.93658 10.1215 7.39611 9.89828 6.99692 9.50068L1.5725 4.07556C1.72986 3.68169 2.00148 3.34391 2.35241 3.10571C2.70334 2.86751 3.11753 2.73977 3.54167 2.73893ZM13.4583 15.4889H3.54167C2.97808 15.4889 2.43758 15.265 2.03906 14.8665C1.64055 14.468 1.41667 13.9275 1.41667 13.3639V5.92643L5.99533 10.5023C6.66019 11.1654 7.56093 11.5379 8.5 11.5379C9.43907 11.5379 10.3398 11.1654 11.0047 10.5023L15.5833 5.92643V13.3639C15.5833 13.9275 15.3595 14.468 14.9609 14.8665C14.5624 15.265 14.0219 15.4889 13.4583 15.4889Z" fill="#787878"/>
</g>
<defs>
<clipPath id="clip0_1307_33599">
<rect width="17" height="17" fill="white" transform="translate(0 0.614258)"/>
</clipPath>
</defs>
</svg>
