<svg width="21" height="21" viewBox="0 0 21 21" fill="none" xmlns="http://www.w3.org/2000/svg">
<g id="icons8-google">
<mask id="mask0_1128_49889" style="mask-type:luminance" maskUnits="userSpaceOnUse" x="0" y="0" width="21" height="21">
<rect id="Background" x="0.337891" y="0.619141" width="19.99" height="19.99" fill="white"/>
</mask>
<g mask="url(#mask0_1128_49889)">
<path id="Shape" fill-rule="evenodd" clip-rule="evenodd" d="M18.4993 8.9833H17.8283V8.94873H10.3321V12.2804H15.0393C14.3526 14.2198 12.5073 15.6121 10.3321 15.6121C7.57223 15.6121 5.3346 13.3744 5.3346 10.6146C5.3346 7.8547 7.57223 5.61707 10.3321 5.61707C11.606 5.61707 12.765 6.09766 13.6475 6.88268L16.0034 4.52678C14.5158 3.14039 12.526 2.2854 10.3321 2.2854C5.73231 2.2854 2.00293 6.01478 2.00293 10.6146C2.00293 15.2143 5.73231 18.9437 10.3321 18.9437C14.9319 18.9437 18.6613 15.2143 18.6613 10.6146C18.6613 10.0561 18.6038 9.51095 18.4993 8.9833Z" fill="#FFC107"/>
<path id="Shape_2" fill-rule="evenodd" clip-rule="evenodd" d="M2.96387 6.73776L5.70042 8.74467C6.44088 6.91142 8.23415 5.61707 10.3327 5.61707C11.6066 5.61707 12.7656 6.09766 13.6481 6.88268L16.004 4.52678C14.5164 3.14039 12.5266 2.2854 10.3327 2.2854C7.13345 2.2854 4.359 4.09158 2.96387 6.73776Z" fill="#FF3D00"/>
<path id="Shape_3" fill-rule="evenodd" clip-rule="evenodd" d="M10.3311 18.9436C12.4825 18.9436 14.4373 18.1202 15.9153 16.7813L13.3375 14.5999C12.5012 15.2334 11.4617 15.6119 10.3311 15.6119C8.16464 15.6119 6.32514 14.2305 5.63216 12.3027L2.91602 14.3954C4.29449 17.0928 7.09392 18.9436 10.3311 18.9436Z" fill="#4CAF50"/>
<path id="Shape_4" fill-rule="evenodd" clip-rule="evenodd" d="M18.4992 8.98256H17.8283V8.948H10.332V12.2797H15.0393C14.7094 13.2113 14.1101 14.0146 13.3372 14.5998C13.3376 14.5993 13.338 14.5993 13.3384 14.5989L15.9163 16.7803C15.7339 16.9461 18.6612 14.7784 18.6612 10.6138C18.6612 10.0554 18.6037 9.51022 18.4992 8.98256Z" fill="#1976D2"/>
</g>
</g>
</svg>
