<svg width="16" height="15" viewBox="0 0 16 15" fill="none" xmlns="http://www.w3.org/2000/svg">
<g id="fi-rr-envelope" clip-path="url(#clip0_757_5093)">
<path id="Vector" d="M12.3164 0.625H3.56641C2.73791 0.625992 1.94363 0.955551 1.35779 1.54139C0.771957 2.12722 0.442399 2.9215 0.441406 3.75L0.441406 11.25C0.442399 12.0785 0.771957 12.8728 1.35779 13.4586C1.94363 14.0444 2.73791 14.374 3.56641 14.375H12.3164C13.1449 14.374 13.9392 14.0444 14.525 13.4586C15.1109 12.8728 15.4404 12.0785 15.4414 11.25V3.75C15.4404 2.9215 15.1109 2.12722 14.525 1.54139C13.9392 0.955551 13.1449 0.625992 12.3164 0.625ZM3.56641 1.875H12.3164C12.6906 1.87574 13.0561 1.98845 13.3658 2.19863C13.6754 2.40881 13.9151 2.70684 14.0539 3.05438L9.26766 7.84125C8.91542 8.19207 8.43854 8.38904 7.94141 8.38904C7.44427 8.38904 6.96739 8.19207 6.61516 7.84125L1.82891 3.05438C1.96775 2.70684 2.20741 2.40881 2.51706 2.19863C2.82671 1.98845 3.19217 1.87574 3.56641 1.875ZM12.3164 13.125H3.56641C3.06913 13.125 2.59221 12.9275 2.24058 12.5758C1.88895 12.2242 1.69141 11.7473 1.69141 11.25V4.6875L5.73141 8.725C6.31805 9.31016 7.11282 9.63877 7.94141 9.63877C8.77 9.63877 9.56476 9.31016 10.1514 8.725L14.1914 4.6875V11.25C14.1914 11.7473 13.9939 12.2242 13.6422 12.5758C13.2906 12.9275 12.8137 13.125 12.3164 13.125Z" fill="#005B52"/>
</g>
<defs>
<clipPath id="clip0_757_5093">
<rect width="15" height="15" fill="white" transform="translate(0.441406)"/>
</clipPath>
</defs>
</svg>
