<svg width="24" height="25" viewBox="0 0 24 25" fill="none" xmlns="http://www.w3.org/2000/svg">
<g id="pinterest">
<path id="Vector" d="M21.9997 12.1252C21.9997 17.6422 17.5227 22.1142 11.9997 22.1142C11.2422 22.1148 10.4871 22.0276 9.7497 21.8542C9.67479 21.8381 9.60484 21.8042 9.54569 21.7555C9.48654 21.7068 9.43991 21.6447 9.4097 21.5742C9.37556 21.5061 9.35779 21.4309 9.35779 21.3547C9.35779 21.2785 9.37556 21.2034 9.4097 21.1352L9.5597 20.8452C9.81575 20.3606 10.0042 19.8431 10.1197 19.3072L10.7797 16.2112C11.1684 16.5782 11.6278 16.8622 12.1298 17.046C12.6318 17.2298 13.1659 17.3095 13.6997 17.2802C16.7897 17.2802 18.8697 14.8622 18.8697 11.2862C18.8697 7.86024 15.8697 5.29324 11.9897 5.29324C8.1097 5.29324 5.1097 7.99024 5.1097 11.2862C5.11549 12.0389 5.27657 12.7823 5.58285 13.4699C5.88913 14.1575 6.33403 14.7745 6.8897 15.2822C6.95282 15.3448 7.03176 15.389 7.11807 15.4101C7.20438 15.4313 7.29482 15.4285 7.3797 15.4022C7.46558 15.3791 7.54311 15.332 7.6033 15.2665C7.66348 15.201 7.70385 15.1198 7.7197 15.0322L7.9197 14.1332C7.93423 14.0579 7.9319 13.9803 7.91288 13.9059C7.89387 13.8316 7.85863 13.7624 7.8097 13.7032C7.21616 13.0526 6.88172 12.2069 6.8697 11.3262C6.8697 8.97924 9.1597 7.07124 11.9897 7.07124C14.8197 7.07124 17.1097 8.85924 17.1097 11.3262C17.1097 13.3942 16.2197 15.5912 13.6997 15.5912C13.4179 15.6216 13.1328 15.5957 12.8611 15.515C12.5893 15.4343 12.3364 15.3005 12.1168 15.1212C11.8972 14.9419 11.7155 14.7208 11.5821 14.4707C11.4487 14.2206 11.3663 13.9465 11.3397 13.6642L11.9897 10.6672C12.067 10.4158 12.0883 10.1505 12.052 9.88994C12.0157 9.6294 11.9228 9.37998 11.7797 9.15924C11.6938 9.026 11.5792 8.91372 11.4442 8.83065C11.3092 8.74758 11.1573 8.69584 10.9997 8.67924C9.5297 8.67924 9.4497 11.1472 9.4497 11.6762C9.44303 12.3269 9.49637 12.9729 9.6097 13.6142L8.3297 19.3772C8.22129 19.8654 8.17758 20.3657 8.1997 20.8652C8.2005 20.9197 8.18821 20.9736 8.16384 21.0223C8.13948 21.071 8.10376 21.1132 8.0597 21.1452C8.01258 21.1724 7.95912 21.1868 7.9047 21.1868C7.85029 21.1868 7.79683 21.1724 7.7497 21.1452C5.57736 20.1277 3.84394 18.3622 2.8665 16.1715C1.88906 13.9809 1.73294 11.5116 2.4267 9.21524C3.12258 6.91838 4.62128 4.94839 6.64921 3.66492C8.67714 2.38145 11.099 1.8701 13.4727 2.22424C15.8459 2.57557 18.0134 3.7692 19.5791 5.58695C21.1447 7.4047 22.004 9.72618 21.9997 12.1252Z" fill="white"/>
</g>
</svg>
