<svg width="25" height="25" viewBox="0 0 25 25" fill="none" xmlns="http://www.w3.org/2000/svg">
<g id="fi-rr-plus-small">
<path id="Vector" d="M17.333 11.8573H13.333V7.85725C13.333 7.59204 13.2277 7.33768 13.0401 7.15015C12.8526 6.96261 12.5982 6.85725 12.333 6.85725C12.0678 6.85725 11.8134 6.96261 11.6259 7.15015C11.4384 7.33768 11.333 7.59204 11.333 7.85725V11.8573H7.33301C7.06779 11.8573 6.81344 11.9626 6.6259 12.1501C6.43836 12.3377 6.33301 12.592 6.33301 12.8573C6.33301 13.1225 6.43836 13.3768 6.6259 13.5644C6.81344 13.7519 7.06779 13.8573 7.33301 13.8573H11.333V17.8573C11.333 18.1225 11.4384 18.3768 11.6259 18.5644C11.8134 18.7519 12.0678 18.8573 12.333 18.8573C12.5982 18.8573 12.8526 18.7519 13.0401 18.5644C13.2277 18.3768 13.333 18.1225 13.333 17.8573V13.8573H17.333C17.5982 13.8573 17.8526 13.7519 18.0401 13.5644C18.2277 13.3768 18.333 13.1225 18.333 12.8573C18.333 12.592 18.2277 12.3377 18.0401 12.1501C17.8526 11.9626 17.5982 11.8573 17.333 11.8573Z" fill="#DBF226"/>
</g>
</svg>
