<svg width="18" height="19" viewBox="0 0 18 19" fill="none" xmlns="http://www.w3.org/2000/svg">
<g id="Telegram">
<path id="Oval" fill-rule="evenodd" clip-rule="evenodd" d="M9 18.6143C13.9706 18.6143 18 14.5848 18 9.61426C18 4.6437 13.9706 0.614258 9 0.614258C4.02944 0.614258 0 4.6437 0 9.61426C0 14.5848 4.02944 18.6143 9 18.6143Z" fill="url(#paint0_linear_1128_49898)"/>
<path id="Shape" fill-rule="evenodd" clip-rule="evenodd" d="M7.35137 13.7397C7.0598 13.7397 7.10934 13.6297 7.00878 13.352L6.15137 10.5302L12.7514 6.61475" fill="#C8DAEA"/>
<path id="Shape_2" fill-rule="evenodd" clip-rule="evenodd" d="M7.35059 13.7398C7.57559 13.7398 7.675 13.6369 7.80059 13.5148L9.00059 12.3479L7.50374 11.4453" fill="#A9C9DD"/>
<path id="Shape_3" fill-rule="evenodd" clip-rule="evenodd" d="M7.50304 11.4443L11.13 14.124C11.5439 14.3524 11.8426 14.2341 11.9457 13.7397L13.4221 6.78252C13.5733 6.1765 13.1911 5.90164 12.7952 6.0814L4.12591 9.42423C3.53415 9.66158 3.5376 9.99172 4.01804 10.1388L6.24277 10.8332L11.3932 7.58383C11.6364 7.43638 11.8595 7.51565 11.6764 7.67821" fill="url(#paint1_linear_1128_49898)"/>
</g>
<defs>
<linearGradient id="paint0_linear_1128_49898" x1="6.7509" y1="1.36486" x2="2.2509" y2="11.8643" gradientUnits="userSpaceOnUse">
<stop stop-color="#37AEE2"/>
<stop offset="1" stop-color="#1E96C8"/>
</linearGradient>
<linearGradient id="paint1_linear_1128_49898" x1="7.87339" y1="10.1664" x2="8.83502" y2="13.277" gradientUnits="userSpaceOnUse">
<stop stop-color="#EFF7FC"/>
<stop offset="1" stop-color="white"/>
</linearGradient>
</defs>
</svg>
