<svg width="24" height="25" viewBox="0 0 24 25" fill="none" xmlns="http://www.w3.org/2000/svg">
<g id="tik-tok">
<path id="Vector" d="M21 7.59426V9.59426C20.9993 9.66348 20.9848 9.73186 20.9573 9.7954C20.9298 9.85893 20.89 9.91635 20.84 9.96426C20.7903 10.0098 20.7319 10.0447 20.6683 10.0671C20.6047 10.0894 20.5373 10.0986 20.47 10.0943C18.8357 9.99156 17.2737 9.38353 16 8.35426V16.1143C16 17.301 15.6481 18.461 14.9888 19.4477C14.3295 20.4344 13.3925 21.2034 12.2961 21.6575C11.1997 22.1117 9.99335 22.2305 8.82946 21.999C7.66558 21.7675 6.59648 21.196 5.75736 20.3569C4.91825 19.5178 4.3468 18.4487 4.11529 17.2848C3.88378 16.1209 4.0026 14.9145 4.45673 13.8182C4.91085 12.7218 5.67989 11.7847 6.66658 11.1254C7.65328 10.4662 8.81331 10.1143 10 10.1143C10.1833 10.1043 10.3667 10.1043 10.55 10.1143C10.6729 10.1243 10.7875 10.1804 10.8709 10.2712C10.9543 10.362 11.0004 10.481 11 10.6043V12.6043C11.0005 12.6746 10.9856 12.7442 10.9562 12.8082C10.9268 12.8721 10.8837 12.9288 10.83 12.9743C10.7763 13.0225 10.7126 13.0583 10.6434 13.079C10.5743 13.0998 10.5014 13.105 10.43 13.0943C10.2864 13.0906 10.1427 13.0973 10 13.1143C9.40666 13.1143 8.82664 13.2902 8.33329 13.6199C7.83994 13.9495 7.45543 14.418 7.22836 14.9662C7.0013 15.5144 6.94189 16.1176 7.05765 16.6995C7.1734 17.2815 7.45913 17.816 7.87868 18.2356C8.29824 18.6551 8.83279 18.9409 9.41473 19.0566C9.99668 19.1724 10.5999 19.113 11.1481 18.8859C11.6962 18.6588 12.1648 18.2743 12.4944 17.781C12.8241 17.2876 13 16.7076 13 16.1143V2.61426C13 2.48166 13.0527 2.35448 13.1464 2.26071C13.2402 2.16694 13.3674 2.11426 13.5 2.11426H15.5C15.6244 2.11364 15.7445 2.1594 15.837 2.24261C15.9294 2.32582 15.9876 2.4405 16 2.56426C16.1015 3.73691 16.6135 4.83615 17.4458 5.66844C18.2781 6.50073 19.3774 7.01272 20.55 7.11426C20.6704 7.12629 20.7823 7.18155 20.8651 7.26982C20.9478 7.35808 20.9958 7.47335 21 7.59426Z" fill="white"/>
</g>
</svg>
