<svg width="85" height="63" viewBox="0 0 85 63" fill="none" xmlns="http://www.w3.org/2000/svg">
<g id="Union">
<mask id="path-1-inside-1_2426_131209" fill="white">
<path fill-rule="evenodd" clip-rule="evenodd" d="M55.5078 14.6208L42.5 0.0644531L29.4922 14.6208H6.5C3.18629 14.6208 0.5 17.3071 0.5 20.6208V56.6208C0.5 59.9346 3.18629 62.6208 6.5 62.6208H78.5C81.8137 62.6208 84.5 59.9346 84.5 56.6208V20.6208C84.5 17.3071 81.8137 14.6208 78.5 14.6208H55.5078Z"/>
</mask>
<path fill-rule="evenodd" clip-rule="evenodd" d="M55.5078 14.6208L42.5 0.0644531L29.4922 14.6208H6.5C3.18629 14.6208 0.5 17.3071 0.5 20.6208V56.6208C0.5 59.9346 3.18629 62.6208 6.5 62.6208H78.5C81.8137 62.6208 84.5 59.9346 84.5 56.6208V20.6208C84.5 17.3071 81.8137 14.6208 78.5 14.6208H55.5078Z" fill="white"/>
<path d="M42.5 0.0644531L43.2457 -0.601878L42.5 -1.4363L41.7543 -0.601878L42.5 0.0644531ZM55.5078 14.6208L54.7622 15.2872L55.0604 15.6208H55.5078V14.6208ZM29.4922 14.6208V15.6208H29.9396L30.2378 15.2872L29.4922 14.6208ZM41.7543 0.730784L54.7622 15.2872L56.2535 13.9545L43.2457 -0.601878L41.7543 0.730784ZM30.2378 15.2872L43.2457 0.730784L41.7543 -0.601878L28.7465 13.9545L30.2378 15.2872ZM6.5 15.6208H29.4922V13.6208H6.5V15.6208ZM1.5 20.6208C1.5 17.8594 3.73858 15.6208 6.5 15.6208V13.6208C2.63401 13.6208 -0.5 16.7549 -0.5 20.6208H1.5ZM1.5 56.6208V20.6208H-0.5V56.6208H1.5ZM6.5 61.6208C3.73858 61.6208 1.5 59.3823 1.5 56.6208H-0.5C-0.5 60.4868 2.63401 63.6208 6.5 63.6208V61.6208ZM78.5 61.6208H6.5V63.6208H78.5V61.6208ZM83.5 56.6208C83.5 59.3823 81.2614 61.6208 78.5 61.6208V63.6208C82.366 63.6208 85.5 60.4868 85.5 56.6208H83.5ZM83.5 20.6208V56.6208H85.5V20.6208H83.5ZM78.5 15.6208C81.2614 15.6208 83.5 17.8594 83.5 20.6208H85.5C85.5 16.7549 82.366 13.6208 78.5 13.6208V15.6208ZM55.5078 15.6208H78.5V13.6208H55.5078V15.6208Z" fill="#EEEEEE" mask="url(#path-1-inside-1_2426_131209)"/>
<path d="M42.5 0.0644531L43.2457 -0.601878L42.5 -1.4363L41.7543 -0.601878L42.5 0.0644531ZM55.5078 14.6208L54.7622 15.2872L55.0604 15.6208H55.5078V14.6208ZM29.4922 14.6208V15.6208H29.9396L30.2378 15.2872L29.4922 14.6208ZM41.7543 0.730784L54.7622 15.2872L56.2535 13.9545L43.2457 -0.601878L41.7543 0.730784ZM30.2378 15.2872L43.2457 0.730784L41.7543 -0.601878L28.7465 13.9545L30.2378 15.2872ZM6.5 15.6208H29.4922V13.6208H6.5V15.6208ZM1.5 20.6208C1.5 17.8594 3.73858 15.6208 6.5 15.6208V13.6208C2.63401 13.6208 -0.5 16.7549 -0.5 20.6208H1.5ZM1.5 56.6208V20.6208H-0.5V56.6208H1.5ZM6.5 61.6208C3.73858 61.6208 1.5 59.3823 1.5 56.6208H-0.5C-0.5 60.4868 2.63401 63.6208 6.5 63.6208V61.6208ZM78.5 61.6208H6.5V63.6208H78.5V61.6208ZM83.5 56.6208C83.5 59.3823 81.2614 61.6208 78.5 61.6208V63.6208C82.366 63.6208 85.5 60.4868 85.5 56.6208H83.5ZM83.5 20.6208V56.6208H85.5V20.6208H83.5ZM78.5 15.6208C81.2614 15.6208 83.5 17.8594 83.5 20.6208H85.5C85.5 16.7549 82.366 13.6208 78.5 13.6208V15.6208ZM55.5078 15.6208H78.5V13.6208H55.5078V15.6208Z" fill="#EFF1D9" mask="url(#path-1-inside-1_2426_131209)"/>
</g>
</svg>
