<svg width="13" height="16" viewBox="0 0 13 16" fill="none" xmlns="http://www.w3.org/2000/svg">
<g id="&#62;1024 Wishlist Responsive">
<path id="Vector" d="M12.5159 14.7485C12.3326 15.0384 12.076 15.2683 11.7828 15.3983C11.5812 15.4883 11.3613 15.5383 11.1413 15.5383C10.9214 15.5383 10.7198 15.4883 10.5274 15.3983C10.3258 15.3083 10.1517 15.1783 10.0051 15.0184L6.47706 11.1993L2.95822 15.0184C2.72913 15.2683 2.44506 15.4383 2.12433 15.5083C1.81277 15.5782 1.48288 15.5383 1.18964 15.3983C0.887241 15.2683 0.630659 15.0384 0.447386 14.7485C0.273277 14.4585 0.181641 14.1086 0.181641 13.7587V3.66121C0.181641 2.84142 0.484041 2.04162 1.01553 1.45177C1.55619 0.87191 2.28928 0.541992 3.0407 0.541992H9.91342C10.2891 0.541992 10.6648 0.621972 11.0131 0.781932C11.3613 0.931895 11.6728 1.16184 11.9386 1.45177C12.2043 1.75169 12.4151 2.09161 12.5617 2.47151C12.7083 2.85142 12.7816 3.25132 12.7816 3.66121V13.7587C12.7816 14.1086 12.69 14.4585 12.5159 14.7485Z" fill="#005B52"/>
</g>
</svg>
