<svg width="24" height="25" viewBox="0 0 24 25" fill="none" xmlns="http://www.w3.org/2000/svg">
<g id="youtube-outlined" clip-path="url(#clip0_1128_19028)">
<path id="Vector" d="M20.7274 3.66548L19.1344 3.49648C14.37 2.9862 9.56479 2.9862 4.80041 3.49648L3.27341 3.66648C1.38741 3.88448 -0.0275916 5.54448 0.000408376 7.50048V16.7265C-0.0275916 18.6825 1.38741 20.3425 3.27341 20.5625L4.86641 20.7305C7.23641 20.9885 9.61741 21.1145 12.0004 21.1145C14.3945 21.115 16.787 20.9871 19.1674 20.7315L20.7274 20.5635C22.6134 20.3435 24.0284 18.6835 24.0004 16.7265V7.50248C24.0284 5.54648 22.6134 3.88548 20.7274 3.66548ZM21.8174 16.7285C21.8484 17.5215 21.2934 18.2115 20.5314 18.3255L18.9384 18.4945C14.3263 18.9896 9.67449 18.9896 5.06241 18.4945L3.47041 18.3245C2.70841 18.2105 2.15341 17.5205 2.18341 16.7265V7.50248C2.15341 6.70948 2.70841 6.01948 3.47041 5.90548L5.06341 5.73648C9.67549 5.24136 14.3273 5.24136 18.9394 5.73648L20.5324 5.90548C21.2944 6.01948 21.8494 6.70948 21.8194 7.50248L21.8174 16.7285ZM11.0964 8.49148C10.9743 8.40617 10.8307 8.35666 10.682 8.34853C10.5332 8.3404 10.3851 8.37398 10.2544 8.44548C10.1222 8.51946 10.0121 8.62745 9.93562 8.75826C9.85914 8.88907 9.81902 9.03795 9.81941 9.18948V15.0395C9.81941 15.3515 9.98741 15.6375 10.2544 15.7835C10.5224 15.9295 10.8454 15.9115 11.0964 15.7375L15.3394 12.8125C15.453 12.7351 15.5459 12.6309 15.6099 12.5092C15.6739 12.3875 15.707 12.252 15.7064 12.1145C15.7069 11.9771 15.6737 11.8418 15.6097 11.7203C15.5457 11.5988 15.4529 11.4948 15.3394 11.4175L11.0964 8.49148Z" fill="white"/>
</g>
<defs>
<clipPath id="clip0_1128_19028">
<rect width="24" height="24" fill="white" transform="translate(0 0.114258)"/>
</clipPath>
</defs>
</svg>
