<svg width="21" height="21" viewBox="0 0 21 21" fill="none" xmlns="http://www.w3.org/2000/svg">
<g id="adobe-photoshop-icon" clip-path="url(#clip0_2309_144165)">
<path id="Vector" d="M16.9585 0.119141H4.0415C2.08559 0.119141 0.5 1.74537 0.5 3.75142V16.4869C0.5 18.4929 2.08559 20.1191 4.0415 20.1191H16.9585C18.9144 20.1191 20.5 18.4929 20.5 16.4869V3.75142C20.5 1.74537 18.9144 0.119141 16.9585 0.119141Z" fill="#001E36"/>
<path id="Vector_2" d="M5.00391 14.1437V5.35037C5.00391 5.28664 5.03048 5.25418 5.08441 5.25418C5.22706 5.25418 5.35798 5.25418 5.55338 5.24736C5.74879 5.24055 5.96256 5.23814 6.19079 5.23373L6.91535 5.2197C7.17016 5.21516 7.42275 5.21289 7.67313 5.21289C8.35287 5.21289 8.92606 5.3 9.39268 5.47423C9.81217 5.62007 10.1948 5.85981 10.5127 6.17608C10.7824 6.45036 10.9907 6.78147 11.1232 7.14647C11.2486 7.5019 11.3119 7.87719 11.3104 8.25516C11.3104 8.98947 11.1449 9.59498 10.8141 10.0717C10.4808 10.5505 10.0126 10.913 9.47241 11.1106C8.90886 11.3263 8.2824 11.3992 7.59379 11.3992C7.39839 11.3992 7.25848 11.3972 7.17797 11.3924C7.09747 11.3876 6.97671 11.3856 6.81569 11.3856V14.1309C6.81773 14.1451 6.817 14.1596 6.81354 14.1736C6.81008 14.1875 6.80396 14.2007 6.79553 14.2122C6.7871 14.2237 6.77653 14.2334 6.76443 14.2407C6.75233 14.248 6.73893 14.2528 6.72503 14.2547C6.71506 14.2563 6.7049 14.2563 6.69493 14.2547H5.0977C5.03361 14.2535 5.00391 14.217 5.00391 14.1437ZM6.81569 6.90558V9.77349C6.93189 9.78284 7.03924 9.78738 7.13772 9.78711H7.5805C7.90632 9.78597 8.22998 9.73297 8.53994 9.62999C8.80564 9.54938 9.04316 9.39216 9.22424 9.17706C9.39854 8.96622 9.48569 8.67228 9.48569 8.29524C9.49246 8.02901 9.42464 7.76638 9.29029 7.53848C9.14948 7.31804 8.94589 7.14744 8.7072 7.04987C8.39607 6.92594 8.06381 6.86746 7.73018 6.87792C7.51524 6.87792 7.32518 6.88019 7.16 6.88473C6.99481 6.88928 6.8807 6.89623 6.81765 6.90558H6.81569Z" fill="#31A8FF"/>
<path id="Vector_3" d="M16.4981 9.25278C16.246 9.11976 15.9773 9.02254 15.6997 8.96378C15.3938 8.89169 15.081 8.85472 14.7672 8.85355C14.5975 8.8489 14.428 8.86984 14.2642 8.91568C14.1598 8.93939 14.0671 9.00032 14.0024 9.08764C13.9587 9.15747 13.9355 9.23873 13.9356 9.32172C13.9379 9.40218 13.9662 9.47957 14.0161 9.54177C14.0944 9.63582 14.1902 9.71294 14.2978 9.76864C14.489 9.87393 14.6861 9.96762 14.888 10.0492C15.3383 10.2039 15.7686 10.4141 16.1694 10.6753C16.4422 10.8522 16.6681 11.0957 16.8268 11.384C16.9605 11.6574 17.0275 11.96 17.0222 12.2658C17.0301 12.6691 16.9177 13.0653 16.7001 13.4013C16.467 13.7422 16.1434 14.0072 15.7677 14.1649C15.3597 14.3487 14.856 14.4407 14.2568 14.4407C13.8763 14.4443 13.4965 14.4074 13.1235 14.3304C12.8295 14.2751 12.5433 14.1827 12.2715 14.0551C12.2421 14.0396 12.2176 14.0158 12.2009 13.9866C12.1842 13.9573 12.176 13.9238 12.1773 13.8899V12.4041C12.1756 12.3895 12.1778 12.3747 12.1838 12.3614C12.1897 12.348 12.1991 12.3366 12.2109 12.3283C12.2224 12.3216 12.2357 12.3186 12.2489 12.3198C12.2621 12.321 12.2746 12.3264 12.2848 12.3351C12.6061 12.5294 12.955 12.671 13.3189 12.7548C13.6394 12.8373 13.9682 12.8811 14.2986 12.8855C14.6113 12.8855 14.8416 12.8442 14.9896 12.7616C15.0562 12.7303 15.1125 12.6799 15.1518 12.6164C15.191 12.553 15.2115 12.4792 15.2108 12.4041C15.2108 12.2846 15.1437 12.1699 15.0095 12.0598C14.8753 11.9497 14.6023 11.8174 14.1904 11.6629C13.7691 11.5126 13.3697 11.3043 13.0031 11.0437C12.7409 10.8569 12.5249 10.6098 12.3723 10.3222C12.2401 10.0511 12.1731 9.75147 12.1769 9.44838C12.1758 9.08327 12.2734 8.72499 12.4591 8.41345C12.67 8.07116 12.9729 7.79874 13.3314 7.62903C13.7248 7.42728 14.2167 7.32641 14.8071 7.32641C15.1529 7.32343 15.4984 7.34863 15.8404 7.40176C16.0879 7.43441 16.3298 7.50184 16.5594 7.60218C16.5777 7.60754 16.5944 7.61718 16.6084 7.63032C16.6224 7.64347 16.6332 7.65977 16.6399 7.67793C16.649 7.71147 16.6535 7.74614 16.6532 7.78094V9.17101C16.6543 9.18707 16.6513 9.20315 16.6444 9.21764C16.6376 9.23212 16.6271 9.24451 16.6142 9.25358C16.5961 9.26267 16.5762 9.26732 16.556 9.26718C16.5359 9.26705 16.5161 9.26211 16.4981 9.25278Z" fill="#31A8FF"/>
</g>
<defs>
<clipPath id="clip0_2309_144165">
<rect width="20" height="20" fill="white" transform="translate(0.5 0.119141)"/>
</clipPath>
</defs>
</svg>
