<svg width="21" height="21" viewBox="0 0 21 21" fill="none" xmlns="http://www.w3.org/2000/svg">
<g id="adobe-lightroom-icon" clip-path="url(#clip0_2309_144159)">
<g id="Group">
<path id="Vector" d="M4.04167 0.119141H16.9583C18.9163 0.119141 20.5 1.74338 20.5 3.75156V16.4884C20.5 18.4966 18.9163 20.1208 16.9583 20.1208H4.04167C2.08366 20.1191 0.5 18.4949 0.5 16.4867V3.74989C0.5 1.74338 2.08366 0.119141 4.04167 0.119141Z" fill="#001E36"/>
<path id="Vector_2" d="M10.9994 14.255H5.71786C5.62346 14.255 5.58603 14.2066 5.58603 14.1031V5.36762C5.57789 5.31253 5.61695 5.25577 5.68043 5.24743C5.68857 5.24743 5.69671 5.24743 5.71135 5.24743H7.34221C7.38128 5.23908 7.43661 5.2708 7.43661 5.31921C7.43661 5.32755 7.43661 5.3359 7.43661 5.34258V12.5189H11.2892C11.3754 12.5189 11.3982 12.559 11.3836 12.6391L11.141 14.1265C11.141 14.1665 11.1183 14.2066 11.0938 14.23C11.0613 14.2483 11.0304 14.255 10.9994 14.255Z" fill="#31A8FF"/>
<path id="Vector_3" d="M12.3323 7.41595H13.7906C13.8769 7.41595 13.9387 7.4727 13.9615 7.55116C13.9924 7.60792 14.0169 7.6797 14.0315 7.75148C14.0478 7.83995 14.0624 7.92675 14.0706 8.01523C14.0787 8.11205 14.0868 8.21555 14.0868 8.31904C14.3359 8.02357 14.6402 7.77485 14.9755 7.58288C15.358 7.36754 15.7861 7.26237 16.2158 7.27906C16.2711 7.27072 16.3248 7.31078 16.3329 7.37421C16.3329 7.38256 16.3329 7.39091 16.3329 7.40593V9.07858C16.3329 9.15036 16.2939 9.1754 16.2011 9.1754C15.6624 9.14368 15.1171 9.24718 14.6256 9.46419C14.4612 9.54432 14.2984 9.63947 14.1731 9.7847V14.1449C14.1731 14.2334 14.1422 14.2651 14.0641 14.2651H12.4413C12.3714 14.2735 12.316 14.2334 12.3095 14.1616C12.3095 14.1533 12.3095 14.1383 12.3095 14.1299V9.39074C12.3095 9.18208 12.3095 8.97508 12.3014 8.75139C12.2932 8.52771 12.2932 8.30402 12.2851 8.08701C12.277 7.89504 12.2623 7.71141 12.2379 7.51944C12.2298 7.47938 12.2542 7.43097 12.2932 7.42262C12.3095 7.4076 12.3176 7.4076 12.3323 7.41595Z" fill="#31A8FF"/>
</g>
</g>
<defs>
<clipPath id="clip0_2309_144159">
<rect width="20" height="20" fill="white" transform="translate(0.5 0.119141)"/>
</clipPath>
</defs>
</svg>
