<svg width="14" height="15" viewBox="0 0 14 15" fill="none" xmlns="http://www.w3.org/2000/svg">
<g id="fi-rr-layers" clip-path="url(#clip0_2309_139808)">
<path id="Vector" d="M13.1165 7.06165L7.0002 10.732L0.883953 7.06165C0.75129 6.98205 0.59244 6.95841 0.442348 6.99593C0.292256 7.03346 0.163218 7.12907 0.0836199 7.26173C0.00402175 7.39439 -0.0196158 7.55324 0.0179071 7.70334C0.05543 7.85343 0.15104 7.98247 0.283703 8.06206L6.70037 11.9121C6.7911 11.9666 6.89495 11.9954 7.00079 11.9954C7.10663 11.9954 7.21048 11.9666 7.3012 11.9121L13.7179 8.06206C13.8505 7.98247 13.9461 7.85343 13.9837 7.70334C14.0212 7.55324 13.9976 7.39439 13.918 7.26173C13.8384 7.12907 13.7093 7.03346 13.5592 6.99593C13.4091 6.95841 13.2503 6.98205 13.1176 7.06165H13.1165Z" fill="black"/>
<path id="Vector_2" d="M13.1165 9.72766L7.0002 13.3974L0.883951 9.72766C0.818263 9.68825 0.745455 9.66216 0.669684 9.65089C0.593914 9.63961 0.516664 9.64337 0.442346 9.66195C0.368028 9.68053 0.298098 9.71357 0.236547 9.75917C0.174996 9.80478 0.123031 9.86206 0.0836181 9.92775C0.0442051 9.99344 0.0181164 10.0662 0.00684134 10.142C-0.00443369 10.2178 -0.000674141 10.295 0.0179053 10.3694C0.0554282 10.5194 0.151038 10.6485 0.283701 10.7281L6.70037 14.5781C6.7911 14.6326 6.89494 14.6614 7.00079 14.6614C7.10663 14.6614 7.21047 14.6326 7.3012 14.5781L13.7179 10.7281C13.8505 10.6485 13.9461 10.5194 13.9837 10.3694C14.0212 10.2193 13.9976 10.0604 13.918 9.92775C13.8384 9.79508 13.7093 9.69947 13.5592 9.66195C13.4091 9.62443 13.2503 9.64806 13.1176 9.72766H13.1165Z" fill="black"/>
<path id="Vector_3" d="M6.99981 9.27785C6.68515 9.27768 6.37646 9.19199 6.10673 9.02994L0.282732 5.53519C0.196485 5.48333 0.125122 5.41003 0.0755792 5.32244C0.0260367 5.23484 0 5.13591 0 5.03527C0 4.93463 0.0260367 4.83571 0.0755792 4.74811C0.125122 4.66051 0.196485 4.58721 0.282732 4.53535L6.10673 1.0406C6.37645 0.87857 6.68517 0.792969 6.99981 0.792969C7.31446 0.792969 7.62318 0.87857 7.8929 1.0406L13.7169 4.53535C13.8031 4.58721 13.8745 4.66051 13.9241 4.74811C13.9736 4.83571 13.9996 4.93463 13.9996 5.03527C13.9996 5.13591 13.9736 5.23484 13.9241 5.32244C13.8745 5.41003 13.8031 5.48333 13.7169 5.53519L7.8929 9.02994C7.62317 9.19199 7.31448 9.27768 6.99981 9.27785ZM1.71715 5.03527L6.70815 8.02952C6.7963 8.08225 6.8971 8.1101 6.99981 8.1101C7.10253 8.1101 7.20333 8.08225 7.29148 8.02952L12.2825 5.03527L7.29148 2.04102C7.20333 1.98829 7.10253 1.96044 6.99981 1.96044C6.8971 1.96044 6.7963 1.98829 6.70815 2.04102L1.71715 5.03527Z" fill="black"/>
</g>
<defs>
<clipPath id="clip0_2309_139808">
<rect width="14" height="14" fill="white" transform="translate(0 0.660156)"/>
</clipPath>
</defs>
</svg>
