<svg width="14" height="15" viewBox="0 0 14 15" fill="none" xmlns="http://www.w3.org/2000/svg">
<g clip-path="url(#clip0_2_878)">
<path d="M12.25 9.83376V7.50043C12.2498 6.71673 12.0738 5.94306 11.735 5.23638C11.3962 4.5297 10.9032 3.90801 10.2923 3.4171H11.8282C11.9575 3.63737 12.1558 3.80889 12.3924 3.9051C12.629 4.00132 12.8907 4.01686 13.137 3.94932C13.3833 3.88179 13.6005 3.73494 13.755 3.53151C13.9094 3.32808 13.9925 3.07942 13.9913 2.82402C13.9902 2.56861 13.9049 2.32071 13.7486 2.11868C13.5923 1.91665 13.3738 1.77177 13.1269 1.70645C12.88 1.64113 12.6184 1.65903 12.3827 1.75737C12.147 1.85571 11.9503 2.029 11.823 2.25043H9.2505C9.12317 1.75017 8.8328 1.3066 8.42525 0.989785C8.0177 0.67297 7.51621 0.500977 7 0.500977C6.48379 0.500977 5.9823 0.67297 5.57475 0.989785C5.1672 1.3066 4.87682 1.75017 4.7495 2.25043H2.17175C2.04248 2.03016 1.8442 1.85864 1.6076 1.76242C1.37101 1.66621 1.1093 1.65067 0.862984 1.71821C0.616668 1.78574 0.399482 1.93259 0.245047 2.13602C0.0906109 2.33944 0.00753815 2.5881 0.00868747 2.84351C0.00983679 3.09891 0.0951441 3.34682 0.251404 3.54885C0.407664 3.75088 0.626163 3.89576 0.873077 3.96108C1.11999 4.0264 1.38155 4.0085 1.61727 3.91016C1.85298 3.81182 2.04971 3.63853 2.177 3.4171H3.70767C3.09678 3.90801 2.60378 4.5297 2.26497 5.23638C1.92617 5.94306 1.75019 6.71673 1.75 7.50043V9.83376C1.28587 9.83376 0.840752 10.0181 0.512563 10.3463C0.184374 10.6745 0 11.1196 0 11.5838L0 12.7504C0 13.2146 0.184374 13.6597 0.512563 13.9879C0.840752 14.3161 1.28587 14.5004 1.75 14.5004H2.91667C3.3808 14.5004 3.82591 14.3161 4.1541 13.9879C4.48229 13.6597 4.66667 13.2146 4.66667 12.7504V11.5838C4.66667 11.1196 4.48229 10.6745 4.1541 10.3463C3.82591 10.0181 3.3808 9.83376 2.91667 9.83376V7.50043C2.91762 6.78218 3.10801 6.07688 3.46862 5.45571C3.82923 4.83454 4.34732 4.31949 4.97058 3.96251C5.16946 4.32708 5.46288 4.63134 5.81999 4.84332C6.1771 5.0553 6.58471 5.16717 7 5.16717C7.41529 5.16717 7.8229 5.0553 8.18001 4.84332C8.53712 4.63134 8.83054 4.32708 9.02942 3.96251C9.65268 4.31949 10.1708 4.83454 10.5314 5.45571C10.892 6.07688 11.0824 6.78218 11.0833 7.50043V9.83376C10.6192 9.83376 10.1741 10.0181 9.8459 10.3463C9.51771 10.6745 9.33333 11.1196 9.33333 11.5838V12.7504C9.33333 13.2146 9.51771 13.6597 9.8459 13.9879C10.1741 14.3161 10.6192 14.5004 11.0833 14.5004H12.25C12.7141 14.5004 13.1592 14.3161 13.4874 13.9879C13.8156 13.6597 14 13.2146 14 12.7504V11.5838C14 11.1196 13.8156 10.6745 13.4874 10.3463C13.1592 10.0181 12.7141 9.83376 12.25 9.83376ZM3.5 11.5838V12.7504C3.5 12.9051 3.43854 13.0535 3.32915 13.1629C3.21975 13.2723 3.07138 13.3338 2.91667 13.3338H1.75C1.59529 13.3338 1.44692 13.2723 1.33752 13.1629C1.22812 13.0535 1.16667 12.9051 1.16667 12.7504V11.5838C1.16667 11.4291 1.22812 11.2807 1.33752 11.1713C1.44692 11.0619 1.59529 11.0004 1.75 11.0004H2.91667C3.07138 11.0004 3.21975 11.0619 3.32915 11.1713C3.43854 11.2807 3.5 11.4291 3.5 11.5838ZM7 4.00043C6.76925 4.00043 6.54369 3.93201 6.35183 3.80381C6.15998 3.67562 6.01044 3.49341 5.92214 3.28023C5.83384 3.06705 5.81073 2.83247 5.85575 2.60616C5.90077 2.37985 6.01188 2.17197 6.17504 2.00881C6.3382 1.84565 6.54608 1.73453 6.77239 1.68951C6.99871 1.6445 7.23328 1.6676 7.44646 1.7559C7.65964 1.84421 7.84185 1.99374 7.97005 2.1856C8.09824 2.37746 8.16667 2.60302 8.16667 2.83376C8.16667 3.14318 8.04375 3.43993 7.82496 3.65872C7.60616 3.87751 7.30942 4.00043 7 4.00043ZM12.8333 12.7504C12.8333 12.9051 12.7719 13.0535 12.6625 13.1629C12.5531 13.2723 12.4047 13.3338 12.25 13.3338H11.0833C10.9286 13.3338 10.7802 13.2723 10.6709 13.1629C10.5615 13.0535 10.5 12.9051 10.5 12.7504V11.5838C10.5 11.4291 10.5615 11.2807 10.6709 11.1713C10.7802 11.0619 10.9286 11.0004 11.0833 11.0004H12.25C12.4047 11.0004 12.5531 11.0619 12.6625 11.1713C12.7719 11.2807 12.8333 11.4291 12.8333 11.5838V12.7504Z" fill="black"/>
</g>
<defs>
<clipPath id="clip0_2_878">
<rect width="14" height="14" fill="white" transform="translate(0 0.5)"/>
</clipPath>
</defs>
</svg>
