<svg width="14" height="15" viewBox="0 0 14 15" fill="none" xmlns="http://www.w3.org/2000/svg">
<g clip-path="url(#clip0_2_891)">
<path d="M11.0833 0.5H6.41667C5.6434 0.500926 4.90208 0.808514 4.35529 1.35529C3.80851 1.90208 3.50093 2.6434 3.5 3.41667V6.91667H2.91667C2.1434 6.91759 1.40208 7.22518 0.855295 7.77196C0.308514 8.31874 0.00092625 9.06007 0 9.83333L0 11.5833C0.00092625 12.3566 0.308514 13.0979 0.855295 13.6447C1.40208 14.1915 2.1434 14.4991 2.91667 14.5H4.66667C5.43993 14.4991 6.18126 14.1915 6.72804 13.6447C7.27482 13.0979 7.58241 12.3566 7.58333 11.5833V11H11.0833C11.8566 10.9991 12.5979 10.6915 13.1447 10.1447C13.6915 9.59793 13.9991 8.8566 14 8.08333V3.41667C13.9991 2.6434 13.6915 1.90208 13.1447 1.35529C12.5979 0.808514 11.8566 0.500926 11.0833 0.5V0.5ZM6.41667 9.83333C5.95254 9.83333 5.50742 9.64896 5.17923 9.32077C4.85104 8.99258 4.66667 8.54746 4.66667 8.08333C5.1308 8.08333 5.57591 8.26771 5.9041 8.5959C6.23229 8.92408 6.41667 9.3692 6.41667 9.83333ZM6.41667 11.5833C6.41667 12.0475 6.23229 12.4926 5.9041 12.8208C5.57591 13.149 5.1308 13.3333 4.66667 13.3333H2.91667C2.45254 13.3333 2.00742 13.149 1.67923 12.8208C1.35104 12.4926 1.16667 12.0475 1.16667 11.5833V9.83333C1.16667 9.3692 1.35104 8.92408 1.67923 8.5959C2.00742 8.26771 2.45254 8.08333 2.91667 8.08333H3.5C3.50093 8.8566 3.80851 9.59793 4.35529 10.1447C4.90208 10.6915 5.6434 10.9991 6.41667 11V11.5833ZM12.8333 8.08333C12.8333 8.54746 12.649 8.99258 12.3208 9.32077C11.9926 9.64896 11.5475 9.83333 11.0833 9.83333H7.58333C7.58322 9.26183 7.41416 8.70311 7.09742 8.22742L10.5 4.82483V6.33333C10.5 6.48804 10.5615 6.63642 10.6709 6.74581C10.7802 6.85521 10.9286 6.91667 11.0833 6.91667C11.238 6.91667 11.3864 6.85521 11.4958 6.74581C11.6052 6.63642 11.6667 6.48804 11.6667 6.33333V4.58333C11.6667 4.1192 11.4823 3.67409 11.1541 3.3459C10.8259 3.01771 10.3808 2.83333 9.91667 2.83333H8.16667C8.01196 2.83333 7.86358 2.89479 7.75419 3.00419C7.64479 3.11358 7.58333 3.26196 7.58333 3.41667C7.58333 3.57138 7.64479 3.71975 7.75419 3.82915C7.86358 3.93854 8.01196 4 8.16667 4H9.67517L6.27258 7.40258C5.79689 7.08584 5.23817 6.91678 4.66667 6.91667V3.41667C4.66667 2.95254 4.85104 2.50742 5.17923 2.17923C5.50742 1.85104 5.95254 1.66667 6.41667 1.66667H11.0833C11.5475 1.66667 11.9926 1.85104 12.3208 2.17923C12.649 2.50742 12.8333 2.95254 12.8333 3.41667V8.08333Z" fill="black"/>
</g>
<defs>
<clipPath id="clip0_2_891">
<rect width="14" height="14" fill="white" transform="translate(0 0.5)"/>
</clipPath>
</defs>
</svg>
