<svg width="12" height="13" viewBox="0 0 12 13" fill="none" xmlns="http://www.w3.org/2000/svg">
<path d="M4.10499 3.14509C4.05813 3.19157 4.02093 3.24687 3.99555 3.3078C3.97016 3.36873 3.95709 3.43409 3.95709 3.50009C3.95709 3.5661 3.97016 3.63145 3.99555 3.69238C4.02093 3.75331 4.05813 3.80861 4.10499 3.85509L6.39499 6.14509C6.44185 6.19157 6.47905 6.24687 6.50443 6.3078C6.52982 6.36873 6.54289 6.43409 6.54289 6.50009C6.54289 6.5661 6.52982 6.63145 6.50443 6.69238C6.47905 6.75331 6.44185 6.80861 6.39499 6.85509L4.10499 9.14509C4.05813 9.19157 4.02093 9.24687 3.99555 9.3078C3.97016 9.36873 3.95709 9.43409 3.95709 9.50009C3.95709 9.5661 3.97016 9.63145 3.99555 9.69238C4.02093 9.75331 4.05813 9.80861 4.10499 9.85509C4.19867 9.94822 4.3254 10.0005 4.45749 10.0005C4.58958 10.0005 4.71631 9.94822 4.80999 9.85509L7.10499 7.56009C7.38589 7.27884 7.54366 6.89759 7.54366 6.50009C7.54366 6.10259 7.38589 5.72134 7.10499 5.44009L4.80999 3.14509C4.71631 3.05197 4.58958 2.99969 4.45749 2.99969C4.3254 2.99969 4.19867 3.05197 4.10499 3.14509Z" fill="black"/>
</svg>
