<svg width="14" height="15" viewBox="0 0 14 15" fill="none" xmlns="http://www.w3.org/2000/svg">
<g clip-path="url(#clip0_2_883)">
<path d="M1.16667 6.91667H7.58333C7.89275 6.91667 8.1895 6.79375 8.40829 6.57496C8.62708 6.35616 8.75 6.05942 8.75 5.75V1.66667C8.75 1.35725 8.62708 1.0605 8.40829 0.841709C8.1895 0.622916 7.89275 0.5 7.58333 0.5H1.16667C0.857247 0.5 0.560501 0.622916 0.341709 0.841709C0.122916 1.0605 0 1.35725 0 1.66667L0 5.75C0 6.05942 0.122916 6.35616 0.341709 6.57496C0.560501 6.79375 0.857247 6.91667 1.16667 6.91667ZM1.16667 1.66667H7.58333V5.75H1.16667V1.66667Z" fill="black"/>
<path d="M12.8334 0.5H11.0834C10.774 0.5 10.4772 0.622916 10.2585 0.841709C10.0397 1.0605 9.91675 1.35725 9.91675 1.66667V5.75C9.91675 6.05942 10.0397 6.35616 10.2585 6.57496C10.4772 6.79375 10.774 6.91667 11.0834 6.91667H12.8334C13.1428 6.91667 13.4396 6.79375 13.6584 6.57496C13.8772 6.35616 14.0001 6.05942 14.0001 5.75V1.66667C14.0001 1.35725 13.8772 1.0605 13.6584 0.841709C13.4396 0.622916 13.1428 0.5 12.8334 0.5V0.5ZM12.8334 5.75H11.0834V1.66667H12.8334V5.75Z" fill="black"/>
<path d="M2.91667 8.0835H1.16667C0.857247 8.0835 0.560501 8.20641 0.341709 8.4252C0.122916 8.644 0 8.94074 0 9.25016L0 13.3335C0 13.6429 0.122916 13.9397 0.341709 14.1584C0.560501 14.3772 0.857247 14.5002 1.16667 14.5002H2.91667C3.22609 14.5002 3.52283 14.3772 3.74162 14.1584C3.96042 13.9397 4.08333 13.6429 4.08333 13.3335V9.25016C4.08333 8.94074 3.96042 8.644 3.74162 8.4252C3.52283 8.20641 3.22609 8.0835 2.91667 8.0835ZM2.91667 13.3335H1.16667V9.25016H2.91667V13.3335Z" fill="black"/>
<path d="M12.8333 8.0835H6.41667C6.10725 8.0835 5.8105 8.20641 5.59171 8.4252C5.37292 8.644 5.25 8.94074 5.25 9.25016V13.3335C5.25 13.6429 5.37292 13.9397 5.59171 14.1584C5.8105 14.3772 6.10725 14.5002 6.41667 14.5002H12.8333C13.1428 14.5002 13.4395 14.3772 13.6583 14.1584C13.8771 13.9397 14 13.6429 14 13.3335V9.25016C14 8.94074 13.8771 8.644 13.6583 8.4252C13.4395 8.20641 13.1428 8.0835 12.8333 8.0835ZM12.8333 13.3335H6.41667V9.25016H12.8333V13.3335Z" fill="black"/>
</g>
<defs>
<clipPath id="clip0_2_883">
<rect width="14" height="14" fill="white" transform="translate(0 0.5)"/>
</clipPath>
</defs>
</svg>
