<svg width="14" height="15" viewBox="0 0 14 15" fill="none" xmlns="http://www.w3.org/2000/svg">
<g clip-path="url(#clip0_2_870)">
<path d="M8.72487 6.54051C8.72553 6.74141 8.88855 6.90394 9.08944 6.90394C9.08944 6.90394 9.71477 6.90394 9.95627 6.89694C10.8499 6.88176 11.4916 6.10476 11.4916 5.05011C11.4916 3.94179 10.8616 3.19629 9.92477 3.19629H9.08302C8.88147 3.19695 8.71844 3.36049 8.71844 3.56204L8.72487 6.54051ZM9.92712 3.92541C10.5449 3.92541 10.7648 4.50873 10.7648 5.05009C10.7648 5.59144 10.5116 6.15841 9.94522 6.16776C9.82855 6.16776 9.6314 6.17184 9.4529 6.17301L9.44997 3.92544L9.92712 3.92541Z" fill="black"/>
<path d="M7.07114 4.73245C6.91189 4.6782 6.74681 4.64845 6.58406 4.60588C6.45492 4.57982 6.33521 4.51936 6.23756 4.43088C6.14005 4.3384 6.10541 4.19756 6.14889 4.07038C6.2042 3.96079 6.31289 3.88819 6.43531 3.87906C6.55565 3.87156 6.67627 3.88926 6.78939 3.93098C6.95217 3.98179 7.11188 4.04197 7.26771 4.11123C7.43921 4.18648 7.64164 4.23141 7.77989 4.06806C7.88227 3.94534 7.88992 3.76927 7.79857 3.63813C7.73819 3.55014 7.65652 3.47891 7.56114 3.43106C7.13411 3.18034 6.62456 3.11081 6.14596 3.23798C5.89317 3.31799 5.67958 3.48993 5.54746 3.71981C5.4855 3.82885 5.44454 3.94856 5.42671 4.07273C5.39417 4.29605 5.44259 4.52366 5.56321 4.71441C5.69933 4.91369 5.89582 5.06397 6.12378 5.14316C6.36236 5.24116 6.60096 5.33623 6.84304 5.42491C6.94713 5.45797 7.043 5.51285 7.12421 5.58591C7.21513 5.67275 7.24885 5.8037 7.21114 5.92366C7.16195 6.03858 7.0643 6.12576 6.94456 6.16166C6.76245 6.23013 6.56295 6.23729 6.37639 6.18208C6.19482 6.11638 6.0271 6.01747 5.88171 5.89041C5.86653 5.87816 5.81696 5.84083 5.80764 5.83208C5.67171 5.7349 5.48602 5.74735 5.36431 5.86183C5.21515 5.9971 5.20388 6.22767 5.33913 6.37683C5.33915 6.37685 5.33918 6.37688 5.33921 6.37694C5.68724 6.74649 6.17328 6.95463 6.68089 6.95151C7.28248 6.97795 7.81705 6.57077 7.95139 5.98376C8.00802 5.62854 7.87535 5.26951 7.60139 5.03643C7.44649 4.90097 7.26626 4.79767 7.07114 4.73245Z" fill="black"/>
<path d="M2.40393 3.51494V6.58444C2.40393 6.7858 2.56717 6.94901 2.76851 6.94901C2.96984 6.94901 3.13308 6.78577 3.13308 6.58444V5.61436H3.62308C4.30285 5.61436 4.85391 5.0633 4.85391 4.38354C4.85391 3.70377 4.30285 3.15271 3.62308 3.15271L3.61958 3.15039H2.76501C2.74026 3.15083 2.60977 3.15561 2.50661 3.26264C2.40792 3.36501 2.40412 3.48855 2.40393 3.51494ZM3.61958 4.88286H3.13426L3.13076 3.87954H3.61958C3.89666 3.8794 4.12137 4.10389 4.1215 4.38097C4.12164 4.65804 3.89715 4.88275 3.62007 4.88289C3.61994 4.88286 3.61975 4.88286 3.61958 4.88286Z" fill="black"/>
<path d="M11.0833 0.5H2.91668C1.30665 0.501941 0.00194141 1.80665 0 3.41668V11.5834C0.00194141 13.1934 1.30665 14.4981 2.91668 14.5H9.53343C10.3074 14.5022 11.0502 14.1947 11.5961 13.646L13.1454 12.0955C13.6942 11.5498 14.0019 10.8073 14 10.0334V3.41668C13.9981 1.80665 12.6934 0.501941 11.0833 0.5ZM1.16668 11.5833V3.41668C1.16668 2.45018 1.95018 1.66668 2.91668 1.66668H11.0834C12.0498 1.66668 12.8334 2.45018 12.8334 3.41668V9.25H10.5C9.53351 9.25 8.75 10.0335 8.75 11V13.3333H2.91668C1.95016 13.3333 1.16668 12.5498 1.16668 11.5833ZM10.7713 12.8212C10.5368 13.0551 10.2402 13.217 9.91668 13.2879V11C9.91668 10.6778 10.1778 10.4167 10.5 10.4167H12.7896C12.7174 10.7396 12.5557 11.0355 12.3229 11.2707L10.7713 12.8212Z" fill="black"/>
</g>
<defs>
<clipPath id="clip0_2_870">
<rect width="14" height="14" fill="white" transform="translate(0 0.5)"/>
</clipPath>
</defs>
</svg>
