<svg width="14" height="14" viewBox="0 0 14 14" fill="none" xmlns="http://www.w3.org/2000/svg">
<path d="M13.4167 1.2497H7.58339C7.42868 1.2497 7.28031 1.31115 7.17092 1.42055C7.06152 1.52995 7.00006 1.67832 7.00006 1.83303V3.74053L5.60006 1.31386C5.4979 1.1357 5.35051 0.987658 5.1728 0.884706C4.99509 0.781754 4.79335 0.727539 4.58798 0.727539C4.3826 0.727539 4.18086 0.781754 4.00315 0.884706C3.82544 0.987658 3.67806 1.1357 3.57589 1.31386L0.0758936 7.37469C0.0246954 7.46337 -0.0022583 7.56396 -0.0022583 7.66635C-0.0022583 7.76875 0.0246954 7.86934 0.0758936 7.95802C0.127288 8.04704 0.201292 8.1209 0.290412 8.17212C0.379532 8.22333 0.480604 8.25009 0.583394 8.24969H3.08589C2.97263 8.62818 2.91564 9.02127 2.91673 9.41635C2.91673 10.4993 3.34693 11.5379 4.11271 12.3037C4.87848 13.0695 5.91709 13.4997 7.00006 13.4997C8.08303 13.4997 9.12164 13.0695 9.88741 12.3037C10.6532 11.5379 11.0834 10.4993 11.0834 9.41635C11.0845 9.02127 11.0275 8.62818 10.9142 8.24969H13.4167C13.5714 8.24969 13.7198 8.18823 13.8292 8.07883C13.9386 7.96944 14.0001 7.82106 14.0001 7.66635V1.83303C14.0001 1.67832 13.9386 1.52995 13.8292 1.42055C13.7198 1.31115 13.5714 1.2497 13.4167 1.2497ZM1.59256 7.08302L4.58506 1.89719L6.58589 5.33302C6.00252 5.39794 5.44 5.58788 4.93667 5.88987C4.43334 6.19187 4.00104 6.59883 3.66923 7.08302H1.59256ZM7.00006 12.333C6.4232 12.333 5.85929 12.162 5.37965 11.8415C4.9 11.521 4.52617 11.0655 4.30541 10.5325C4.08466 9.99956 4.0269 9.41312 4.13944 8.84734C4.25198 8.28156 4.52976 7.76186 4.93767 7.35396C5.34557 6.94606 5.86527 6.66827 6.43105 6.55573C6.99683 6.44319 7.58327 6.50095 8.11622 6.72171C8.64917 6.94246 9.10469 7.3163 9.42518 7.79594C9.74567 8.27558 9.91673 8.83949 9.91673 9.41635C9.91673 10.1899 9.60944 10.9318 9.06246 11.4787C8.51547 12.0257 7.77361 12.333 7.00006 12.333ZM12.8334 7.08302H10.3484C9.81865 6.3267 9.05042 5.77004 8.16673 5.50219V2.41636H12.8334V7.08302Z" fill="black"/>
</svg>
