<svg width="30" height="30" viewBox="0 0 30 30" fill="none" xmlns="http://www.w3.org/2000/svg">
<rect width="30" height="30" rx="15" fill="#F2F2F2"/>
<g clip-path="url(#clip0_8_111337)">
<path d="M17.3337 17.3333C17.3337 17.4881 17.2722 17.6364 17.1628 17.7458C17.0534 17.8552 16.905 17.9167 16.7503 17.9167H15.5837V19.0833C15.5837 19.2381 15.5222 19.3864 15.4128 19.4958C15.3034 19.6052 15.155 19.6667 15.0003 19.6667C14.8456 19.6667 14.6972 19.6052 14.5878 19.4958C14.4785 19.3864 14.417 19.2381 14.417 19.0833V17.9167H13.2503C13.0956 17.9167 12.9472 17.8552 12.8378 17.7458C12.7285 17.6364 12.667 17.4881 12.667 17.3333C12.667 17.1786 12.7285 17.0303 12.8378 16.9209C12.9472 16.8115 13.0956 16.75 13.2503 16.75H14.417V15.5833C14.417 15.4286 14.4785 15.2803 14.5878 15.1709C14.6972 15.0615 14.8456 15 15.0003 15C15.155 15 15.3034 15.0615 15.4128 15.1709C15.5222 15.2803 15.5837 15.4286 15.5837 15.5833V16.75H16.7503C16.905 16.75 17.0534 16.8115 17.1628 16.9209C17.2722 17.0303 17.3337 17.1786 17.3337 17.3333ZM20.8337 14.1163V19.0833C20.8327 19.8566 20.5251 20.5979 19.9784 21.1447C19.4316 21.6915 18.6903 21.9991 17.917 22H12.0837C11.3104 21.9991 10.5691 21.6915 10.0223 21.1447C9.47551 20.5979 9.16792 19.8566 9.16699 19.0833V10.9167C9.16792 10.1434 9.47551 9.40209 10.0223 8.85531C10.5691 8.30853 11.3104 8.00094 12.0837 8.00001H14.7174C15.2539 7.99863 15.7852 8.10361 16.2809 8.30886C16.7765 8.51412 17.2265 8.81559 17.6049 9.19585L19.6372 11.2293C20.0177 11.6075 20.3194 12.0574 20.5247 12.5529C20.7301 13.0485 20.8351 13.5798 20.8337 14.1163ZM16.7801 10.0207C16.5965 9.84286 16.3904 9.68989 16.167 9.56568V12.0833C16.167 12.2381 16.2285 12.3864 16.3378 12.4958C16.4472 12.6052 16.5956 12.6667 16.7503 12.6667H19.268C19.1437 12.4434 18.9905 12.2374 18.8124 12.0542L16.7801 10.0207ZM19.667 14.1163C19.667 14.02 19.6483 13.9278 19.6396 13.8333H16.7503C16.2862 13.8333 15.8411 13.649 15.5129 13.3208C15.1847 12.9926 15.0003 12.5475 15.0003 12.0833V9.1941C14.9058 9.18535 14.8131 9.16668 14.7174 9.16668H12.0837C11.6195 9.16668 11.1744 9.35105 10.8462 9.67924C10.518 10.0074 10.3337 10.4526 10.3337 10.9167V19.0833C10.3337 19.5475 10.518 19.9926 10.8462 20.3208C11.1744 20.649 11.6195 20.8333 12.0837 20.8333H17.917C18.3811 20.8333 18.8262 20.649 19.1544 20.3208C19.4826 19.9926 19.667 19.5475 19.667 19.0833V14.1163Z" fill="#005B52"/>
</g>
<defs>
<clipPath id="clip0_8_111337">
<rect width="14" height="14" fill="white" transform="translate(8 8)"/>
</clipPath>
</defs>
</svg>
