<svg width="30" height="30" viewBox="0 0 30 30" fill="none" xmlns="http://www.w3.org/2000/svg">
<rect width="30" height="30" rx="15" fill="#F2F2F2"/>
<g clip-path="url(#clip0_8_112080)">
<path d="M19.6667 8H10.3333C9.71449 8 9.121 8.24583 8.68342 8.68342C8.24583 9.121 8 9.71449 8 10.3333V17.3333C8 17.9522 8.24583 18.5457 8.68342 18.9832C9.121 19.4208 9.71449 19.6667 10.3333 19.6667H12.025L14.6214 21.8618C14.7267 21.9509 14.8603 21.9998 14.9982 21.9998C15.1362 21.9998 15.2698 21.9509 15.3751 21.8618L17.975 19.6667H19.6667C20.2855 19.6667 20.879 19.4208 21.3166 18.9832C21.7542 18.5457 22 17.9522 22 17.3333V10.3333C22 9.71449 21.7542 9.121 21.3166 8.68342C20.879 8.24583 20.2855 8 19.6667 8V8ZM20.8333 17.3333C20.8333 17.6428 20.7104 17.9395 20.4916 18.1583C20.2728 18.3771 19.9761 18.5 19.6667 18.5H17.975C17.6993 18.5001 17.4324 18.5978 17.2219 18.7759L15 20.6525L12.7792 18.7759C12.5684 18.5976 12.3011 18.4998 12.025 18.5H10.3333C10.0239 18.5 9.72717 18.3771 9.50838 18.1583C9.28958 17.9395 9.16667 17.6428 9.16667 17.3333V10.3333C9.16667 10.0239 9.28958 9.72717 9.50838 9.50838C9.72717 9.28958 10.0239 9.16667 10.3333 9.16667H19.6667C19.9761 9.16667 20.2728 9.28958 20.4916 9.50838C20.7104 9.72717 20.8333 10.0239 20.8333 10.3333V17.3333Z" fill="#005B52"/>
<path d="M12.0833 12.0827H15C15.1547 12.0827 15.3031 12.0212 15.4125 11.9118C15.5219 11.8024 15.5833 11.6541 15.5833 11.4993C15.5833 11.3446 15.5219 11.1963 15.4125 11.0869C15.3031 10.9775 15.1547 10.916 15 10.916H12.0833C11.9286 10.916 11.7803 10.9775 11.6709 11.0869C11.5615 11.1963 11.5 11.3446 11.5 11.4993C11.5 11.6541 11.5615 11.8024 11.6709 11.9118C11.7803 12.0212 11.9286 12.0827 12.0833 12.0827Z" fill="#005B52"/>
<path d="M17.9167 13.25H12.0833C11.9286 13.25 11.7803 13.3115 11.6709 13.4209C11.5615 13.5303 11.5 13.6786 11.5 13.8333C11.5 13.988 11.5615 14.1364 11.6709 14.2458C11.7803 14.3552 11.9286 14.4167 12.0833 14.4167H17.9167C18.0714 14.4167 18.2197 14.3552 18.3291 14.2458C18.4385 14.1364 18.5 13.988 18.5 13.8333C18.5 13.6786 18.4385 13.5303 18.3291 13.4209C18.2197 13.3115 18.0714 13.25 17.9167 13.25Z" fill="#005B52"/>
<path d="M17.9167 15.584H12.0833C11.9286 15.584 11.7803 15.6454 11.6709 15.7548C11.5615 15.8642 11.5 16.0126 11.5 16.1673C11.5 16.322 11.5615 16.4704 11.6709 16.5798C11.7803 16.6892 11.9286 16.7507 12.0833 16.7507H17.9167C18.0714 16.7507 18.2197 16.6892 18.3291 16.5798C18.4385 16.4704 18.5 16.322 18.5 16.1673C18.5 16.0126 18.4385 15.8642 18.3291 15.7548C18.2197 15.6454 18.0714 15.584 17.9167 15.584Z" fill="#005B52"/>
</g>
<defs>
<clipPath id="clip0_8_112080">
<rect width="14" height="14" fill="white" transform="translate(8 8)"/>
</clipPath>
</defs>
</svg>
