<svg width="31" height="30" viewBox="0 0 31 30" fill="none" xmlns="http://www.w3.org/2000/svg">
<rect x="0.5" width="30" height="30" rx="15" fill="#F2F2F2"/>
<rect x="0.5" width="30" height="30" rx="15" fill="#FFFFCC" fill-opacity="0.3"/>
<g clip-path="url(#clip0_8_108651)">
<path d="M16.6271 10.3333C17.1016 10.3338 17.5565 10.5225 17.8921 10.858C18.2276 11.1936 18.4163 11.6485 18.4167 12.123C18.4167 12.2777 18.4782 12.4261 18.5876 12.5355C18.697 12.6449 18.8454 12.7063 19.0001 12.7063C19.1548 12.7063 19.3032 12.6449 19.4126 12.5355C19.522 12.4261 19.5834 12.2777 19.5834 12.123V12.0833C19.5834 12.0722 19.5834 12.0623 19.5834 12.0512C19.5639 11.2799 19.244 10.5467 18.6918 10.0079C18.1395 9.46903 17.3987 9.16718 16.6271 9.16667H16.0834V8.58333C16.0834 8.42862 16.022 8.28025 15.9126 8.17085C15.8032 8.06146 15.6548 8 15.5001 8C15.3454 8 15.197 8.06146 15.0876 8.17085C14.9782 8.28025 14.9167 8.42862 14.9167 8.58333V9.16667H14.3731C13.6715 9.16742 12.9931 9.41764 12.459 9.8726C11.925 10.3276 11.5702 10.9576 11.458 11.6502C11.3458 12.3427 11.4835 13.0526 11.8465 13.6529C12.2096 14.2532 12.7743 14.7048 13.4397 14.9271L14.9167 15.42V19.6667H14.3731C13.8986 19.6662 13.4436 19.4775 13.1081 19.142C12.7726 18.8064 12.5839 18.3515 12.5834 17.877C12.5834 17.7223 12.522 17.5739 12.4126 17.4645C12.3032 17.3551 12.1548 17.2937 12.0001 17.2937C11.8454 17.2937 11.697 17.3551 11.5876 17.4645C11.4782 17.5739 11.4167 17.7223 11.4167 17.877V17.9167C11.4167 17.9277 11.4167 17.9377 11.4167 17.9487C11.4362 18.7201 11.7562 19.4533 12.3084 19.9921C12.8607 20.531 13.6015 20.8328 14.3731 20.8333H14.9167V21.4167C14.9167 21.5714 14.9782 21.7197 15.0876 21.8291C15.197 21.9385 15.3454 22 15.5001 22C15.6548 22 15.8032 21.9385 15.9126 21.8291C16.022 21.7197 16.0834 21.5714 16.0834 21.4167V20.8333H16.6271C17.3286 20.8326 18.0071 20.5824 18.5411 20.1274C19.0752 19.6724 19.43 19.0424 19.5422 18.3498C19.6544 17.6573 19.5167 16.9474 19.1536 16.3471C18.7906 15.7468 18.2258 15.2952 17.5604 15.0729L16.0834 14.58V10.3333H16.6271ZM17.1929 16.1789C17.5962 16.3132 17.9386 16.5866 18.1588 16.9502C18.3789 17.3139 18.4624 17.744 18.3943 18.1636C18.3262 18.5832 18.111 18.9649 17.7872 19.2403C17.4634 19.5157 17.0522 19.6668 16.6271 19.6667H16.0834V15.8091L17.1929 16.1789ZM14.9167 14.1909L13.8084 13.8211C13.4052 13.6869 13.0629 13.4135 12.8427 13.05C12.6226 12.6865 12.539 12.2565 12.6069 11.837C12.6748 11.4175 12.8898 11.0358 13.2134 10.7603C13.537 10.4848 13.9481 10.3335 14.3731 10.3333H14.9167V14.1909Z" fill="black"/>
</g>
<defs>
<clipPath id="clip0_8_108651">
<rect width="14" height="14" fill="white" transform="translate(8.5 8)"/>
</clipPath>
</defs>
</svg>
