<svg width="31" height="30" viewBox="0 0 31 30" fill="none" xmlns="http://www.w3.org/2000/svg">
<rect x="0.5" width="30" height="30" rx="15" fill="#F2F2F2"/>
<rect x="0.5" width="30" height="30" rx="15" fill="#FFCCCC" fill-opacity="0.3"/>
<g clip-path="url(#clip0_8_108633)">
<path d="M22.5 17.3337V20.2504C22.5 20.7145 22.3156 21.1596 21.9874 21.4878C21.6592 21.816 21.2141 22.0004 20.75 22.0004H17.8333C17.015 21.9995 16.2112 21.7835 15.5027 21.374C14.7942 20.9644 14.2058 20.3758 13.7967 19.667C14.2364 19.6639 14.6747 19.6154 15.1045 19.5224C15.4318 19.9317 15.8471 20.262 16.3195 20.489C16.7918 20.716 17.3092 20.8338 17.8333 20.8337H20.75C20.9047 20.8337 21.0531 20.7722 21.1625 20.6628C21.2719 20.5534 21.3333 20.4051 21.3333 20.2504V17.3337C21.3332 16.8094 21.215 16.2919 20.9876 15.8195C20.7602 15.3471 20.4294 14.932 20.0197 14.6049C20.1135 14.1751 20.1628 13.7369 20.1667 13.297C20.8754 13.7062 21.464 14.2946 21.8736 15.0031C22.2831 15.7116 22.4992 16.5153 22.5 17.3337ZM18.9866 13.6301C19.0411 12.8786 18.9333 12.1241 18.6703 11.4179C18.4074 10.7118 17.9955 10.0705 17.4627 9.53769C16.9299 9.00487 16.2886 8.59299 15.5824 8.33004C14.8763 8.06709 14.1218 7.95922 13.3702 8.01378C12.0385 8.16587 10.8082 8.79963 9.91119 9.79571C9.01417 10.7918 8.51227 12.0815 8.5 13.4219V16.3619C8.5 17.8389 9.37908 18.5004 10.25 18.5004H13.575C14.916 18.4888 16.2064 17.9873 17.2032 17.0902C18.2 16.1931 18.8343 14.9625 18.9866 13.6301ZM16.6375 10.3634C17.0516 10.7785 17.3718 11.2776 17.5763 11.8271C17.7808 12.3766 17.8649 12.9636 17.8228 13.5484C17.6983 14.5889 17.1978 15.548 16.4154 16.2452C15.6331 16.9423 14.6229 17.3295 13.575 17.3337H10.25C9.70867 17.3337 9.66667 16.5899 9.66667 16.3619V13.4219C9.67153 12.3744 10.059 11.3649 10.7563 10.5832C11.4535 9.80149 12.4124 9.30159 13.4525 9.17753C13.5493 9.17053 13.6462 9.16703 13.743 9.16703C14.2804 9.16653 14.8126 9.27193 15.3093 9.47722C15.806 9.68251 16.2573 9.98365 16.6375 10.3634Z" fill="black"/>
</g>
<defs>
<clipPath id="clip0_8_108633">
<rect width="14" height="14" fill="white" transform="translate(8.5 8)"/>
</clipPath>
</defs>
</svg>
