<svg width="31" height="30" viewBox="0 0 31 30" fill="none" xmlns="http://www.w3.org/2000/svg">
<rect x="0.5" width="30" height="30" rx="15" fill="#F2F2F2"/>
<rect x="0.5" width="30" height="30" rx="15" fill="#99CCFF" fill-opacity="0.3"/>
<g clip-path="url(#clip0_8_108584)">
<path d="M18.4167 8C18.262 8 18.1136 8.06146 18.0042 8.17085C17.8948 8.28025 17.8333 8.42862 17.8333 8.58333C17.8333 10.3036 16.3266 10.9167 14.9167 10.9167H10.8333C10.2145 10.9167 9.621 11.1625 9.18342 11.6001C8.74583 12.0377 8.5 12.6312 8.5 13.25V14.4167C8.50127 14.7659 8.58135 15.1104 8.73427 15.4244C8.88718 15.7384 9.10899 16.0139 9.38317 16.2302L11.4668 20.8806C11.615 21.2137 11.8566 21.4968 12.1623 21.6954C12.468 21.8941 12.8248 21.9999 13.1894 22C13.4795 21.9998 13.765 21.9271 14.0198 21.7884C14.2746 21.6497 14.4907 21.4496 14.6484 21.2061C14.8061 20.9626 14.9003 20.6835 14.9227 20.3943C14.945 20.105 14.8946 19.8148 14.7761 19.55L13.4928 16.75H14.9167C16.3266 16.75 17.8333 17.3631 17.8333 19.0833C17.8333 19.238 17.8948 19.3864 18.0042 19.4958C18.1136 19.6052 18.262 19.6667 18.4167 19.6667C18.5714 19.6667 18.7198 19.6052 18.8291 19.4958C18.9385 19.3864 19 19.238 19 19.0833V8.58333C19 8.42862 18.9385 8.28025 18.8291 8.17085C18.7198 8.06146 18.5714 8 18.4167 8V8ZM13.7133 20.0277C13.7519 20.115 13.7681 20.2105 13.7605 20.3057C13.7529 20.4008 13.7217 20.4925 13.6697 20.5725C13.6176 20.6525 13.5465 20.7183 13.4626 20.7638C13.3787 20.8094 13.2848 20.8333 13.1894 20.8333C13.0502 20.8332 12.9141 20.7927 12.7975 20.7167C12.6809 20.6407 12.5888 20.5325 12.5326 20.4052L10.8946 16.75H12.2094L13.7133 20.0277ZM17.8333 16.5167C16.9999 15.8745 15.968 15.5443 14.9167 15.5833H10.8333C10.5239 15.5833 10.2272 15.4604 10.0084 15.2416C9.78958 15.0228 9.66667 14.7261 9.66667 14.4167V13.25C9.66667 12.9406 9.78958 12.6438 10.0084 12.425C10.2272 12.2062 10.5239 12.0833 10.8333 12.0833H14.9167C15.9677 12.1232 16.9995 11.794 17.8333 11.1529V16.5167ZM22.4417 17.0137C22.4074 17.0822 22.3601 17.1434 22.3022 17.1937C22.2443 17.2439 22.1771 17.2823 22.1044 17.3066C22.0317 17.3308 21.9549 17.3405 21.8785 17.3351C21.802 17.3297 21.7274 17.3093 21.6588 17.275L20.4922 16.6917C20.3537 16.6225 20.2484 16.5012 20.1994 16.3544C20.1504 16.2076 20.1617 16.0473 20.2308 15.9088C20.3 15.7704 20.4213 15.665 20.5681 15.616C20.7149 15.567 20.8752 15.5783 21.0137 15.6475L22.1803 16.2308C22.3181 16.2999 22.4229 16.4208 22.4719 16.5669C22.5208 16.713 22.51 16.8726 22.4417 17.0107V17.0137ZM20.2308 11.7637C20.1966 11.6951 20.1761 11.6205 20.1707 11.544C20.1653 11.4676 20.175 11.3908 20.1993 11.3181C20.2235 11.2454 20.2619 11.1782 20.3122 11.1203C20.3624 11.0624 20.4236 11.0151 20.4922 10.9808L21.6588 10.3975C21.7973 10.3283 21.9576 10.317 22.1044 10.366C22.2512 10.415 22.3725 10.5204 22.4417 10.6588C22.5108 10.7973 22.5221 10.9576 22.4731 11.1044C22.4241 11.2512 22.3188 11.3725 22.1803 11.4417L21.0137 12.025C20.9451 12.0593 20.8705 12.0797 20.794 12.0851C20.7176 12.0905 20.6408 12.0808 20.5681 12.0566C20.4954 12.0323 20.4282 11.9939 20.3703 11.9437C20.3125 11.8934 20.2651 11.8322 20.2308 11.7637ZM20.1667 13.8333C20.1667 13.6786 20.2281 13.5303 20.3375 13.4209C20.4469 13.3115 20.5953 13.25 20.75 13.25H21.9167C22.0714 13.25 22.2198 13.3115 22.3291 13.4209C22.4385 13.5303 22.5 13.6786 22.5 13.8333C22.5 13.988 22.4385 14.1364 22.3291 14.2458C22.2198 14.3552 22.0714 14.4167 21.9167 14.4167H20.75C20.5953 14.4167 20.4469 14.3552 20.3375 14.2458C20.2281 14.1364 20.1667 13.988 20.1667 13.8333Z" fill="black"/>
</g>
<defs>
<clipPath id="clip0_8_108584">
<rect width="14" height="14" fill="white" transform="translate(8.5 8)"/>
</clipPath>
</defs>
</svg>
