<svg width="31" height="30" viewBox="0 0 31 30" fill="none" xmlns="http://www.w3.org/2000/svg">
<rect x="0.5" width="30" height="30" rx="15" fill="#F2F2F2"/>
<rect x="0.5" width="30" height="30" rx="15" fill="#CCCCFF" fill-opacity="0.3"/>
<g clip-path="url(#clip0_8_108602)">
<path d="M18.9967 9.33291C18.2847 8.69681 17.4127 8.26691 16.4745 8.08949C15.5364 7.91207 14.5676 7.99384 13.6725 8.32599C12.7774 8.65815 11.9898 9.22811 11.3944 9.97456C10.7991 10.721 10.4186 11.6157 10.2939 12.5622C10.1819 13.3922 10.2715 14.237 10.5551 15.025C10.8387 15.8131 11.3079 16.5212 11.9232 17.0895C12.3036 17.4231 12.6106 17.8321 12.8247 18.2906C13.0388 18.7491 13.1553 19.2471 13.1668 19.753V19.8469C13.1674 20.4176 13.3944 20.9647 13.798 21.3683C14.2015 21.7718 14.7486 21.9988 15.3193 21.9994H15.681C16.2517 21.9988 16.7988 21.7718 17.2024 21.3683C17.6059 20.9647 17.8329 20.4176 17.8335 19.8469V19.5267C17.8422 19.0795 17.9474 18.6395 18.142 18.2368C18.3365 17.8341 18.6157 17.4781 18.9605 17.1933C19.5197 16.7036 19.9684 16.1006 20.2769 15.4244C20.5855 14.7481 20.7468 14.014 20.7502 13.2707C20.7537 12.5274 20.5991 11.7918 20.2968 11.1127C19.9945 10.4337 19.5513 9.8266 18.9967 9.33174V9.33291ZM15.681 20.8327H15.3193C15.058 20.8324 14.8074 20.7285 14.6226 20.5437C14.4378 20.3588 14.3338 20.1083 14.3335 19.8469C14.3335 19.8469 14.3294 19.6952 14.3288 19.6661H16.6668V19.8469C16.6665 20.1083 16.5626 20.3588 16.3777 20.5437C16.1929 20.7285 15.9424 20.8324 15.681 20.8327ZM18.1893 16.3172C17.5252 16.8932 17.0455 17.6523 16.8103 18.4994H16.0835V14.3087C16.4235 14.1885 16.7181 13.9662 16.9269 13.6721C17.1358 13.3781 17.2487 13.0267 17.2502 12.6661C17.2502 12.5114 17.1887 12.363 17.0793 12.2536C16.9699 12.1442 16.8215 12.0827 16.6668 12.0827C16.5121 12.0827 16.3637 12.1442 16.2543 12.2536C16.145 12.363 16.0835 12.5114 16.0835 12.6661C16.0835 12.8208 16.022 12.9692 15.9126 13.0786C15.8032 13.1879 15.6549 13.2494 15.5002 13.2494C15.3455 13.2494 15.1971 13.1879 15.0877 13.0786C14.9783 12.9692 14.9168 12.8208 14.9168 12.6661C14.9168 12.5114 14.8554 12.363 14.746 12.2536C14.6366 12.1442 14.4882 12.0827 14.3335 12.0827C14.1788 12.0827 14.0304 12.1442 13.921 12.2536C13.8116 12.363 13.7502 12.5114 13.7502 12.6661C13.7517 13.0267 13.8645 13.3781 14.0734 13.6721C14.2822 13.9662 14.5768 14.1885 14.9168 14.3087V18.4994H14.1457C13.8826 17.6298 13.3891 16.8475 12.7177 16.2355C12.1477 15.7044 11.7416 15.0214 11.5472 14.267C11.3528 13.5126 11.3782 12.7184 11.6205 11.978C11.8628 11.2376 12.3119 10.582 12.9146 10.0885C13.5174 9.59504 14.2488 9.28428 15.0224 9.19291C15.1828 9.175 15.344 9.16604 15.5054 9.16607C16.5073 9.16309 17.4746 9.53277 18.2191 10.2032C18.6506 10.588 18.9953 11.0601 19.2305 11.5882C19.4658 12.1163 19.586 12.6884 19.5834 13.2665C19.5807 13.8446 19.4552 14.4156 19.2152 14.9415C18.9752 15.4675 18.6261 15.9364 18.1911 16.3172H18.1893Z" fill="black"/>
</g>
<defs>
<clipPath id="clip0_8_108602">
<rect width="14" height="14" fill="white" transform="translate(8.5 8)"/>
</clipPath>
</defs>
</svg>
