<svg width="31" height="30" viewBox="0 0 31 30" fill="none" xmlns="http://www.w3.org/2000/svg">
<rect x="0.5" width="30" height="30" rx="15" fill="#F2F2F2"/>
<rect x="0.5" width="30" height="30" rx="15" fill="#CCFFCC" fill-opacity="0.3"/>
<g clip-path="url(#clip0_8_108611)">
<path d="M19.339 9.24847L15.6844 8.02989C15.5648 7.99004 15.4354 7.99004 15.3157 8.02989L11.6612 9.24847C11.0801 9.44149 10.5747 9.81271 10.2166 10.3094C9.85859 10.8061 9.66619 11.4029 9.66675 12.0152V15.0001C9.66675 19.4119 15.0334 21.8485 15.2632 21.95C15.3378 21.9831 15.4185 22.0002 15.5001 22.0002C15.5817 22.0002 15.6624 21.9831 15.7369 21.95C15.9667 21.8485 21.3334 19.4119 21.3334 15.0001V12.0152C21.334 11.4029 21.1416 10.8061 20.7835 10.3094C20.4255 9.81271 19.9201 9.44149 19.339 9.24847ZM20.1667 15.0001C20.1667 18.1822 16.4807 20.2694 15.5001 20.7687C14.5183 20.2711 10.8334 18.1904 10.8334 15.0001V12.0152C10.8334 11.6479 10.9491 11.2899 11.1639 10.9919C11.3787 10.6939 11.6819 10.4711 12.0304 10.3551L15.5001 9.19831L18.9697 10.3551C19.3183 10.4711 19.6214 10.6939 19.8363 10.9919C20.0511 11.2899 20.1667 11.6479 20.1667 12.0152V15.0001Z" fill="black"/>
<path d="M17.2501 13.832H16.0834V12.6654C16.0834 12.5107 16.022 12.3623 15.9126 12.2529C15.8032 12.1435 15.6548 12.082 15.5001 12.082C15.3454 12.082 15.197 12.1435 15.0876 12.2529C14.9782 12.3623 14.9167 12.5107 14.9167 12.6654V13.832H13.7501C13.5954 13.832 13.447 13.8935 13.3376 14.0029C13.2282 14.1123 13.1667 14.2607 13.1667 14.4154C13.1667 14.5701 13.2282 14.7184 13.3376 14.8278C13.447 14.9372 13.5954 14.9987 13.7501 14.9987H14.9167V16.1654C14.9167 16.3201 14.9782 16.4684 15.0876 16.5778C15.197 16.6872 15.3454 16.7487 15.5001 16.7487C15.6548 16.7487 15.8032 16.6872 15.9126 16.5778C16.022 16.4684 16.0834 16.3201 16.0834 16.1654V14.9987H17.2501C17.4048 14.9987 17.5532 14.9372 17.6626 14.8278C17.7719 14.7184 17.8334 14.5701 17.8334 14.4154C17.8334 14.2607 17.7719 14.1123 17.6626 14.0029C17.5532 13.8935 17.4048 13.832 17.2501 13.832Z" fill="black"/>
</g>
<defs>
<clipPath id="clip0_8_108611">
<rect width="14" height="14" fill="white" transform="translate(8.5 8)"/>
</clipPath>
</defs>
</svg>
