<svg width="31" height="30" viewBox="0 0 31 30" fill="none" xmlns="http://www.w3.org/2000/svg">
<rect x="0.5" width="30" height="30" rx="15" fill="#F2F2F2"/>
<rect x="0.5" width="30" height="30" rx="15" fill="#CC99FF" fill-opacity="0.3"/>
<g clip-path="url(#clip0_8_108682)">
<path d="M22.5 13.25C22.5013 12.9289 22.4143 12.6136 22.2483 12.3386C22.0824 12.0636 21.8441 11.8396 21.5593 11.6911C21.2746 11.5426 20.9545 11.4753 20.634 11.4966C20.3136 11.5179 20.0052 11.6269 19.7426 11.8118C19.48 11.9967 19.2734 12.2502 19.1453 12.5447C19.0172 12.8392 18.9726 13.1632 19.0164 13.4814C19.0601 13.7995 19.1906 14.0995 19.3935 14.3484C19.5964 14.5973 19.8639 14.7856 20.1667 14.8927V17.3333C20.1667 18.2616 19.7979 19.1518 19.1415 19.8082C18.4852 20.4646 17.5949 20.8333 16.6667 20.8333C15.7384 20.8333 14.8482 20.4646 14.1918 19.8082C13.5354 19.1518 13.1667 18.2616 13.1667 17.3333V17.2867C14.1374 17.1458 15.0251 16.6606 15.6676 15.9195C16.3102 15.1784 16.6648 14.2309 16.6667 13.25V10.9167C16.6657 10.1434 16.3582 9.40208 15.8114 8.85529C15.2646 8.30851 14.5233 8.00093 13.75 8C13.5953 8 13.4469 8.06146 13.3375 8.17085C13.2281 8.28025 13.1667 8.42862 13.1667 8.58333C13.1667 8.73804 13.2281 8.88642 13.3375 8.99581C13.4469 9.10521 13.5953 9.16667 13.75 9.16667C14.2141 9.16667 14.6592 9.35104 14.9874 9.67923C15.3156 10.0074 15.5 10.4525 15.5 10.9167V13.25C15.5 14.0235 15.1927 14.7654 14.6457 15.3124C14.0987 15.8594 13.3569 16.1667 12.5833 16.1667C11.8098 16.1667 11.0679 15.8594 10.5209 15.3124C9.97396 14.7654 9.66667 14.0235 9.66667 13.25V10.9167C9.66667 10.4525 9.85104 10.0074 10.1792 9.67923C10.5074 9.35104 10.9525 9.16667 11.4167 9.16667C11.5714 9.16667 11.7197 9.10521 11.8291 8.99581C11.9385 8.88642 12 8.73804 12 8.58333C12 8.42862 11.9385 8.28025 11.8291 8.17085C11.7197 8.06146 11.5714 8 11.4167 8C10.6434 8.00093 9.90208 8.30851 9.3553 8.85529C8.80851 9.40208 8.50093 10.1434 8.5 10.9167L8.5 13.25C8.50188 14.2309 8.85647 15.1784 9.49904 15.9195C10.1416 16.6606 11.0293 17.1458 12 17.2867V17.3333C12 18.571 12.4917 19.758 13.3668 20.6332C14.242 21.5083 15.429 22 16.6667 22C17.9043 22 19.0913 21.5083 19.9665 20.6332C20.8417 19.758 21.3333 18.571 21.3333 17.3333V14.8927C21.6734 14.7725 21.9679 14.5501 22.1768 14.2561C22.3856 13.962 22.4985 13.6107 22.5 13.25ZM20.75 13.8333C20.6346 13.8333 20.5218 13.7991 20.4259 13.735C20.33 13.6709 20.2552 13.5798 20.2111 13.4732C20.1669 13.3666 20.1554 13.2494 20.1779 13.1362C20.2004 13.023 20.2559 12.9191 20.3375 12.8375C20.4191 12.7559 20.523 12.7004 20.6362 12.6779C20.7494 12.6554 20.8666 12.6669 20.9732 12.7111C21.0798 12.7552 21.1709 12.83 21.235 12.9259C21.2991 13.0218 21.3333 13.1346 21.3333 13.25C21.3333 13.4047 21.2719 13.5531 21.1625 13.6625C21.0531 13.7719 20.9047 13.8333 20.75 13.8333Z" fill="black"/>
</g>
<defs>
<clipPath id="clip0_8_108682">
<rect width="14" height="14" fill="white" transform="translate(8.5 8)"/>
</clipPath>
</defs>
</svg>
