<svg width="31" height="30" viewBox="0 0 31 30" fill="none" xmlns="http://www.w3.org/2000/svg">
<rect x="0.5" width="30" height="30" rx="15" fill="#F2F2F2"/>
<rect x="0.5" width="30" height="30" rx="15" fill="#CCFFFF" fill-opacity="0.3"/>
<g clip-path="url(#clip0_8_108673)">
<path d="M21.45 9.26221C21.1221 8.988 20.7378 8.78935 20.3244 8.68037C19.9111 8.57139 19.4788 8.55475 19.0583 8.63162L16.8288 9.03646C16.3141 9.13098 15.8461 9.39581 15.5 9.78837C15.153 9.39513 14.6837 9.13024 14.1677 9.03646L11.9417 8.63162C11.5212 8.55468 11.0889 8.5711 10.6755 8.67973C10.262 8.78837 9.87752 8.98655 9.54916 9.26025C9.22081 9.53396 8.95663 9.8765 8.77532 10.2636C8.59402 10.6507 8.50003 11.073 8.5 11.5005V17.7964C8.50003 18.4793 8.73974 19.1406 9.17733 19.665C9.61492 20.1894 10.2226 20.5435 10.8946 20.6658L14.5614 21.3325C15.1821 21.4453 15.8179 21.4453 16.4386 21.3325L20.1083 20.6658C20.7797 20.5429 21.3868 20.1885 21.8238 19.6642C22.2608 19.1399 22.5001 18.4789 22.5 17.7964V11.5005C22.5003 11.0731 22.4063 10.651 22.2248 10.2641C22.0433 9.87727 21.7788 9.53517 21.45 9.26221ZM14.9167 20.2085C14.8677 20.2015 14.8187 20.1933 14.7697 20.1845L11.1034 19.5184C10.7002 19.445 10.3355 19.2325 10.073 18.9178C9.81039 18.6031 9.6666 18.2062 9.66667 17.7964V11.5005C9.66667 11.0363 9.85104 10.5912 10.1792 10.263C10.5074 9.93483 10.9525 9.75046 11.4167 9.75046C11.5223 9.75071 11.6277 9.76027 11.7317 9.77904L13.96 10.1874C14.2281 10.2364 14.4706 10.3778 14.6453 10.587C14.8201 10.7961 14.9161 11.0599 14.9167 11.3325V20.2085ZM21.3333 17.7964C21.3334 18.2062 21.1896 18.6031 20.9271 18.9178C20.6645 19.2325 20.2998 19.445 19.8966 19.5184L16.2303 20.1845C16.1813 20.1933 16.1323 20.2015 16.0833 20.2085V11.3325C16.0833 11.0592 16.1791 10.7947 16.3542 10.5849C16.5292 10.3751 16.7724 10.2334 17.0412 10.1845L19.2701 9.77612C19.5225 9.7302 19.7819 9.74034 20.03 9.80582C20.2781 9.87131 20.5087 9.99053 20.7056 10.1551C20.9024 10.3196 21.0607 10.5254 21.1692 10.7579C21.2777 10.9904 21.3337 11.2439 21.3333 11.5005V17.7964Z" fill="black"/>
</g>
<defs>
<clipPath id="clip0_8_108673">
<rect width="14" height="14" fill="white" transform="translate(8.5 8)"/>
</clipPath>
</defs>
</svg>
