<svg width="31" height="30" viewBox="0 0 31 30" fill="none" xmlns="http://www.w3.org/2000/svg">
<rect x="0.5" width="30" height="30" rx="15" fill="#F2F2F2"/>
<rect x="0.5" width="30" height="30" rx="15" fill="#CCFF99" fill-opacity="0.3"/>
<g clip-path="url(#clip0_8_108691)">
<path d="M17.8334 11.5C17.9881 11.5 18.1365 11.5615 18.2459 11.6709C18.3553 11.7803 18.4167 11.9286 18.4167 12.0833C18.4167 12.238 18.3553 12.3864 18.2459 12.4958C18.1365 12.6052 17.9881 12.6667 17.8334 12.6667H13.1667C13.012 12.6667 12.8637 12.6052 12.7543 12.4958C12.6449 12.3864 12.5834 12.238 12.5834 12.0833C12.5834 11.9286 12.6449 11.7803 12.7543 11.6709C12.8637 11.5615 13.012 11.5 13.1667 11.5H17.8334ZM22.3292 21.8291C22.2198 21.9384 22.0714 21.9999 21.9167 21.9999C21.7621 21.9999 21.6137 21.9384 21.5043 21.8291L20.1002 20.425C19.6844 20.6904 19.2017 20.832 18.7084 20.8333C18.1892 20.8333 17.6817 20.6794 17.25 20.3909C16.8184 20.1025 16.4819 19.6925 16.2832 19.2129C16.0846 18.7332 16.0326 18.2054 16.1339 17.6962C16.2351 17.187 16.4851 16.7193 16.8523 16.3522C17.2194 15.9851 17.6871 15.7351 18.1963 15.6338C18.7055 15.5325 19.2333 15.5845 19.713 15.7831C20.1926 15.9818 20.6026 16.3183 20.891 16.75C21.1795 17.1816 21.3334 17.6892 21.3334 18.2083C21.3321 18.7016 21.1905 19.1844 20.9251 19.6002L22.3292 21.0042C22.4385 21.1136 22.5 21.262 22.5 21.4167C22.5 21.5713 22.4385 21.7197 22.3292 21.8291ZM18.7084 19.6667C18.9968 19.6667 19.2788 19.5811 19.5186 19.4209C19.7584 19.2606 19.9454 19.0329 20.0557 18.7664C20.1661 18.4999 20.195 18.2067 20.1387 17.9238C20.0825 17.6409 19.9436 17.3811 19.7396 17.1771C19.5357 16.9732 19.2758 16.8343 18.9929 16.778C18.71 16.7218 18.4168 16.7506 18.1503 16.861C17.8839 16.9714 17.6561 17.1583 17.4959 17.3981C17.3356 17.6379 17.2501 17.9199 17.2501 18.2083C17.2501 18.5951 17.4037 18.966 17.6772 19.2395C17.9507 19.513 18.3216 19.6667 18.7084 19.6667ZM16.0834 20.8333H12.5834C12.1193 20.8333 11.6742 20.649 11.346 20.3208C11.0178 19.9926 10.8334 19.5475 10.8334 19.0833V10.9167C10.8334 10.4525 11.0178 10.0074 11.346 9.67923C11.6742 9.35104 12.1193 9.16667 12.5834 9.16667H19.5834C19.7381 9.16667 19.8865 9.22812 19.9959 9.33752C20.1053 9.44692 20.1667 9.59529 20.1667 9.75V14.4167C20.1667 14.5714 20.2282 14.7197 20.3376 14.8291C20.447 14.9385 20.5954 15 20.7501 15C20.9048 15 21.0532 14.9385 21.1626 14.8291C21.272 14.7197 21.3334 14.5714 21.3334 14.4167V9.75C21.3334 9.28587 21.149 8.84075 20.8209 8.51256C20.4927 8.18437 20.0475 8 19.5834 8H12.5834C11.8102 8.00093 11.0688 8.30851 10.522 8.85529C9.97526 9.40208 9.66767 10.1434 9.66675 10.9167V19.0833C9.66767 19.8566 9.97526 20.5979 10.522 21.1447C11.0688 21.6915 11.8102 21.9991 12.5834 22H16.0834C16.2381 22 16.3865 21.9385 16.4959 21.8291C16.6053 21.7197 16.6667 21.5714 16.6667 21.4167C16.6667 21.262 16.6053 21.1136 16.4959 21.0042C16.3865 20.8948 16.2381 20.8333 16.0834 20.8333Z" fill="black"/>
</g>
<defs>
<clipPath id="clip0_8_108691">
<rect width="14" height="14" fill="white" transform="translate(8.5 8)"/>
</clipPath>
</defs>
</svg>
