<svg width="31" height="30" viewBox="0 0 31 30" fill="none" xmlns="http://www.w3.org/2000/svg">
<rect x="0.5" width="30" height="30" rx="15" fill="#F2F2F2"/>
<rect x="0.5" width="30" height="30" rx="15" fill="#FFCCFF" fill-opacity="0.3"/>
<g clip-path="url(#clip0_8_108593)">
<path d="M20.8404 19.5155C21.9117 18.2549 22.4999 16.6544 22.4999 15C22.4999 13.3456 21.9117 11.745 20.8404 10.4844L21.342 9.98271C21.4514 9.87326 21.5128 9.72483 21.5128 9.57009C21.5127 9.41535 21.4512 9.26697 21.3418 9.15759C21.2323 9.04821 21.0839 8.98679 20.9291 8.98684C20.7744 8.9869 20.626 9.04842 20.5166 9.15788L20.015 9.65955C18.7543 8.58821 17.1538 8 15.4994 8C13.845 8 12.2445 8.58821 10.9838 9.65955L10.4821 9.15788C10.372 9.0517 10.2246 8.993 10.0717 8.99444C9.91875 8.99587 9.77248 9.05733 9.6644 9.16556C9.55632 9.27379 9.49508 9.42014 9.49386 9.57309C9.49264 9.72604 9.55154 9.87335 9.65788 9.9833L10.1595 10.485C9.08821 11.7456 8.5 13.3461 8.5 15.0005C8.5 16.6549 9.08821 18.2555 10.1595 19.5161L9.65788 20.0178C9.6022 20.0716 9.55781 20.136 9.52729 20.2072C9.49677 20.2784 9.48073 20.355 9.48012 20.4324C9.4795 20.5099 9.49431 20.5867 9.52369 20.6584C9.55307 20.73 9.59643 20.7951 9.65124 20.8499C9.70605 20.9046 9.77121 20.9479 9.84292 20.9771C9.91463 21.0064 9.99145 21.0211 10.0689 21.0204C10.1464 21.0197 10.2229 21.0035 10.294 20.9729C10.3652 20.9423 10.4295 20.8978 10.4833 20.842L10.985 20.3404C12.2456 21.4117 13.8461 21.9999 15.5005 21.9999C17.1549 21.9999 18.7555 21.4117 20.0161 20.3404L20.5178 20.842C20.6279 20.9482 20.7753 21.0069 20.9282 21.0055C21.0812 21.0041 21.2274 20.9426 21.3355 20.8344C21.4436 20.7261 21.5048 20.5798 21.5061 20.4268C21.5073 20.2739 21.4484 20.1266 21.342 20.0166L20.8404 19.5155ZM21.3333 15C21.3344 16.3454 20.8679 17.6494 20.0138 18.689L17.9307 16.6059C18.2475 16.1302 18.4166 15.5715 18.4166 15C18.4166 14.4284 18.2475 13.8697 17.9307 13.394L20.0138 11.311C20.8679 12.3505 21.3344 13.6545 21.3333 15ZM13.75 15C13.75 14.6538 13.8526 14.3155 14.0449 14.0277C14.2372 13.7399 14.5105 13.5156 14.8303 13.3832C15.15 13.2507 15.5019 13.2161 15.8414 13.2836C16.1808 13.3511 16.4927 13.5178 16.7374 13.7625C16.9821 14.0073 17.1488 14.3191 17.2163 14.6586C17.2839 14.998 17.2492 15.3499 17.1168 15.6697C16.9843 15.9894 16.76 16.2627 16.4722 16.455C16.1844 16.6473 15.8461 16.75 15.5 16.75C15.0358 16.75 14.5907 16.5656 14.2625 16.2374C13.9343 15.9092 13.75 15.4641 13.75 15ZM15.5 9.16663C16.8454 9.16556 18.1494 9.63198 19.189 10.4861L17.1059 12.5692C16.6302 12.2524 16.0715 12.0833 15.5 12.0833C14.9284 12.0833 14.3697 12.2524 13.894 12.5692L11.811 10.4861C12.8505 9.63198 14.1545 9.16556 15.5 9.16663ZM9.66663 15C9.66556 13.6545 10.132 12.3505 10.9861 11.311L13.0692 13.394C12.7524 13.8697 12.5833 14.4284 12.5833 15C12.5833 15.5715 12.7524 16.1302 13.0692 16.6059L10.9861 18.689C10.132 17.6494 9.66556 16.3454 9.66663 15ZM15.5 20.8333C14.1545 20.8344 12.8505 20.3679 11.811 19.5138L13.894 17.4307C14.3697 17.7475 14.9284 17.9166 15.5 17.9166C16.0715 17.9166 16.6302 17.7475 17.1059 17.4307L19.189 19.5138C18.1494 20.3679 16.8454 20.8344 15.5 20.8333Z" fill="black"/>
</g>
<defs>
<clipPath id="clip0_8_108593">
<rect width="14" height="14" fill="white" transform="translate(8.5 8)"/>
</clipPath>
</defs>
</svg>
