<svg width="31" height="30" viewBox="0 0 31 30" fill="none" xmlns="http://www.w3.org/2000/svg">
<rect x="0.5" width="30" height="30" rx="15" fill="#F2F2F2"/>
<rect x="0.5" width="30" height="30" rx="15" fill="#99FFCC" fill-opacity="0.3"/>
<g clip-path="url(#clip0_8_108642)">
<path d="M22.5001 14.9892C22.4988 14.5143 22.3525 14.0512 22.0807 13.6618C21.8089 13.2724 21.4246 12.9754 20.9793 12.8104L20.9572 12.7574C20.3785 11.3419 19.2706 10.2078 17.869 9.59628L17.6771 9.51228C17.5118 9.06831 17.2148 8.68549 16.8258 8.41518C16.4368 8.14487 15.9744 8 15.5007 8C15.0269 8 14.5646 8.14487 14.1755 8.41518C13.7865 8.68549 13.4895 9.06831 13.3242 9.51228L13.0804 9.62194C11.6912 10.2529 10.5979 11.3939 10.0267 12.8087C9.58061 12.9712 9.1951 13.2666 8.92209 13.6549C8.64907 14.0433 8.50168 14.506 8.49977 14.9808C8.49787 15.4555 8.64154 15.9194 8.91142 16.3099C9.1813 16.7005 9.56443 16.9989 10.0092 17.165L10.0838 17.34C10.6691 18.6985 11.744 19.7872 13.095 20.3897L13.3242 20.4924C13.4899 20.9357 13.7871 21.3178 14.1759 21.5876C14.5648 21.8574 15.0268 22.002 15.5001 22.002C15.9734 22.002 16.4353 21.8574 16.8242 21.5876C17.2131 21.3178 17.5102 20.9357 17.6759 20.4924L17.89 20.3973C19.3032 19.7654 20.4142 18.6073 20.9869 17.1691C21.4307 17.0025 21.8132 16.7046 22.0835 16.3152C22.3539 15.9258 22.4992 15.4632 22.5001 14.9892ZM15.5001 9.16578C15.7308 9.16578 15.9564 9.2342 16.1482 9.3624C16.3401 9.49059 16.4896 9.6728 16.5779 9.88598C16.6662 10.0992 16.6893 10.3337 16.6443 10.56C16.5993 10.7864 16.4882 10.9942 16.325 11.1574C16.1619 11.3206 15.954 11.4317 15.7277 11.4767C15.5014 11.5217 15.2668 11.4986 15.0536 11.4103C14.8404 11.322 14.6582 11.1725 14.53 10.9806C14.4018 10.7888 14.3334 10.5632 14.3334 10.3324C14.3334 10.023 14.4563 9.72628 14.6751 9.50749C14.8939 9.28869 15.1907 9.16578 15.5001 9.16578ZM10.8264 13.8237L10.8742 13.8418L10.8801 13.8272C11.1724 13.8533 11.4426 13.9937 11.6322 14.2177C11.8217 14.4418 11.9153 14.7315 11.8927 15.0241C11.8701 15.3167 11.733 15.5886 11.5113 15.7808C11.2895 15.9731 11.0009 16.0702 10.7081 16.0511C10.4152 16.032 10.1417 15.8982 9.94681 15.6788C9.75191 15.4594 9.65135 15.172 9.66691 14.8789C9.68248 14.5859 9.81293 14.3107 10.03 14.1132C10.247 13.9157 10.5332 13.8117 10.8264 13.8237ZM15.5001 20.8324C15.2693 20.8324 15.0438 20.764 14.8519 20.6358C14.6601 20.5076 14.5105 20.3254 14.4222 20.1122C14.3339 19.8991 14.3108 19.6645 14.3558 19.4382C14.4008 19.2119 14.512 19.004 14.6751 18.8408C14.8383 18.6777 15.0462 18.5665 15.2725 18.5215C15.4988 18.4765 15.7334 18.4996 15.9465 18.5879C16.1597 18.6762 16.3419 18.8258 16.4701 19.0176C16.5983 19.2095 16.6667 19.435 16.6667 19.6658C16.6667 19.9752 16.5438 20.2719 16.325 20.4907C16.1062 20.7095 15.8095 20.8324 15.5001 20.8324ZM17.771 19.1489C17.6549 18.6333 17.3667 18.1725 16.954 17.8423C16.5412 17.5122 16.0284 17.3323 15.4998 17.3323C14.9712 17.3323 14.4584 17.5122 14.0456 17.8423C13.6328 18.1725 13.3447 18.6333 13.2286 19.1489C12.4321 18.7143 11.7777 18.0593 11.3438 17.2624C11.8579 17.1463 12.3173 16.8592 12.647 16.448C12.9767 16.0369 13.1571 15.5261 13.1588 14.9991C13.1605 14.4721 12.9833 13.9601 12.6563 13.5469C12.3293 13.1336 11.8717 12.8436 11.3584 12.7241C11.7939 11.9384 12.4421 11.2915 13.2286 10.8574C13.3452 11.3725 13.6334 11.8327 14.0461 12.1623C14.4587 12.4919 14.9711 12.6715 15.4992 12.6715C16.0273 12.6715 16.5397 12.4919 16.9523 12.1623C17.3649 11.8327 17.6532 11.3725 17.7698 10.8574C18.5557 11.291 19.2043 11.9363 19.6417 12.72C19.1269 12.8376 18.6673 13.1268 18.3385 13.54C18.0096 13.9533 17.831 14.466 17.8321 14.9941C17.8331 15.5223 18.0136 16.0343 18.3441 16.4463C18.6745 16.8583 19.1352 17.1457 19.6505 17.2613C19.2152 18.0556 18.5635 18.7102 17.771 19.1489ZM20.1667 16.1559C19.936 16.1559 19.7104 16.0874 19.5186 15.9592C19.3267 15.831 19.1772 15.6488 19.0889 15.4357C19.0006 15.2225 18.9775 14.9879 19.0225 14.7616C19.0675 14.5353 19.1786 14.3274 19.3418 14.1642C19.5049 14.0011 19.7128 13.89 19.9391 13.8449C20.1654 13.7999 20.4 13.823 20.6132 13.9113C20.8264 13.9996 21.0086 14.1492 21.1368 14.341C21.265 14.5329 21.3334 14.7585 21.3334 14.9892C21.3334 15.2986 21.2105 15.5954 20.9917 15.8142C20.7729 16.0329 20.4762 16.1559 20.1667 16.1559Z" fill="black"/>
</g>
<defs>
<clipPath id="clip0_8_108642">
<rect width="14" height="14" fill="white" transform="translate(8.5 8)"/>
</clipPath>
</defs>
</svg>
