<svg width="31" height="30" viewBox="0 0 31 30" fill="none" xmlns="http://www.w3.org/2000/svg">
<rect x="0.5" width="30" height="30" rx="15" fill="#F2F2F2"/>
<rect x="0.5" width="30" height="30" rx="15" fill="#FFCC99" fill-opacity="0.3"/>
<g clip-path="url(#clip0_8_108660)">
<path d="M15.5 13.8333C15.0359 13.8333 14.5908 13.649 14.2626 13.3208C13.9344 12.9926 13.75 12.5475 13.75 12.0833C13.75 11.6192 13.9344 11.1741 14.2626 10.8459C14.5908 10.5177 15.0359 10.3333 15.5 10.3333C15.9641 10.3333 16.4092 10.5177 16.7374 10.8459C17.0656 11.1741 17.25 11.6192 17.25 12.0833C17.25 12.5475 17.0656 12.9926 16.7374 13.3208C16.4092 13.649 15.9641 13.8333 15.5 13.8333ZM13.7313 16.8953C13.8513 16.5205 14.0872 16.1935 14.405 15.9615C14.7229 15.7295 15.1062 15.6045 15.4997 15.6045C15.8932 15.6045 16.2765 15.7295 16.5944 15.9615C16.9122 16.1935 17.1481 16.5205 17.2681 16.8953C17.3068 17.0452 17.4034 17.1736 17.5368 17.2522C17.6701 17.3309 17.8293 17.3533 17.9792 17.3147C18.1291 17.276 18.2575 17.1793 18.3361 17.046C18.4148 16.9126 18.4373 16.7535 18.3986 16.6036C17.6338 13.7178 13.3644 13.719 12.602 16.6036C12.5809 16.6783 12.575 16.7566 12.5846 16.8337C12.5942 16.9107 12.6191 16.9851 12.6578 17.0525C12.6965 17.1198 12.7482 17.1787 12.81 17.2258C12.8718 17.2729 12.9424 17.3071 13.0176 17.3265C13.0928 17.346 13.1712 17.3502 13.248 17.3389C13.3249 17.3277 13.3987 17.3012 13.4652 17.261C13.5317 17.2208 13.5894 17.1678 13.6352 17.105C13.6809 17.0422 13.7136 16.9709 13.7313 16.8953ZM15.5052 21.8046C15.2175 21.8048 14.9397 21.6991 14.7247 21.5077L12.5384 19.6667H10.8333C10.2145 19.6667 9.621 19.4208 9.18342 18.9832C8.74583 18.5457 8.5 17.9522 8.5 17.3333V10.3333C8.5 9.71449 8.74583 9.121 9.18342 8.68342C9.621 8.24583 10.2145 8 10.8333 8H20.1667C20.7855 8 21.379 8.24583 21.8166 8.68342C22.2542 9.121 22.5 9.71449 22.5 10.3333V17.3333C22.5 17.9522 22.2542 18.5457 21.8166 18.9832C21.379 19.4208 20.7855 19.6667 20.1667 19.6667H18.5024L16.2583 21.5217C16.0504 21.705 15.7825 21.8057 15.5052 21.8046ZM10.8333 9.16667C10.5239 9.16667 10.2272 9.28958 10.0084 9.50838C9.78958 9.72717 9.66667 10.0239 9.66667 10.3333V17.3333C9.66667 17.6428 9.78958 17.9395 10.0084 18.1583C10.2272 18.3771 10.5239 18.5 10.8333 18.5H12.7519C12.8894 18.5 13.0224 18.5486 13.1276 18.6371L15.4878 20.6263L17.9214 18.6336C18.026 18.5472 18.1574 18.5 18.293 18.5H20.1667C20.4761 18.5 20.7728 18.3771 20.9916 18.1583C21.2104 17.9395 21.3333 17.6428 21.3333 17.3333V10.3333C21.3333 10.0239 21.2104 9.72717 20.9916 9.50838C20.7728 9.28958 20.4761 9.16667 20.1667 9.16667H10.8333Z" fill="black"/>
</g>
<defs>
<clipPath id="clip0_8_108660">
<rect width="14" height="14" fill="white" transform="translate(8.5 8)"/>
</clipPath>
</defs>
</svg>
