<svg width="33" height="32" viewBox="0 0 33 32" fill="none" xmlns="http://www.w3.org/2000/svg">
<rect x="0.5" width="32" height="32" rx="16" fill="white"/>
<g clip-path="url(#clip0_8_108571)">
<path d="M23.9143 14.0454L18.8576 8.98809C18.2317 8.36408 17.384 8.01367 16.5003 8.01367C15.6165 8.01367 14.7688 8.36408 14.1429 8.98809L9.08625 14.0454C8.89987 14.2306 8.7521 14.451 8.65151 14.6937C8.55092 14.9364 8.4995 15.1967 8.50025 15.4594V22.0041C8.50025 22.5345 8.71097 23.0432 9.08604 23.4183C9.46111 23.7934 9.96982 24.0041 10.5003 24.0041H22.5003C23.0307 24.0041 23.5394 23.7934 23.9145 23.4183C24.2895 23.0432 24.5003 22.5345 24.5003 22.0041V15.4594C24.501 15.1967 24.4496 14.9364 24.349 14.6937C24.2484 14.451 24.1006 14.2306 23.9143 14.0454ZM18.5003 22.6708H14.5003V20.0481C14.5003 19.5177 14.711 19.0089 15.086 18.6339C15.4611 18.2588 15.9698 18.0481 16.5003 18.0481C17.0307 18.0481 17.5394 18.2588 17.9145 18.6339C18.2895 19.0089 18.5003 19.5177 18.5003 20.0481V22.6708ZM23.1669 22.0041C23.1669 22.1809 23.0967 22.3505 22.9717 22.4755C22.8466 22.6005 22.6771 22.6708 22.5003 22.6708H19.8336V20.0481C19.8336 19.164 19.4824 18.3162 18.8573 17.6911C18.2322 17.0659 17.3843 16.7148 16.5003 16.7148C15.6162 16.7148 14.7684 17.0659 14.1432 17.6911C13.5181 18.3162 13.1669 19.164 13.1669 20.0481V22.6708H10.5003C10.3234 22.6708 10.1539 22.6005 10.0288 22.4755C9.90382 22.3505 9.83359 22.1809 9.83359 22.0041V15.4594C9.8342 15.2827 9.90438 15.1134 10.0289 14.9881L15.0856 9.93276C15.4614 9.55871 15.97 9.34872 16.5003 9.34872C17.0305 9.34872 17.5391 9.55871 17.9149 9.93276L22.9716 14.9901C23.0956 15.1149 23.1658 15.2834 23.1669 15.4594V22.0041Z" fill="#005B52"/>
</g>
<defs>
<clipPath id="clip0_8_108571">
<rect width="16" height="16" fill="white" transform="translate(8.5 8)"/>
</clipPath>
</defs>
</svg>
