<svg width="15" height="14" viewBox="0 0 15 14" fill="none" xmlns="http://www.w3.org/2000/svg">
<g clip-path="url(#clip0_8_108621)">
<path d="M10.4838 4.69535C10.3166 4.73979 10.1663 4.83282 10.0519 4.96267C9.9375 5.09253 9.8642 5.25339 9.84123 5.4249C9.81827 5.59642 9.84668 5.77089 9.92287 5.92626C9.99906 6.08164 10.1196 6.21093 10.2693 6.29779C10.4189 6.38465 10.591 6.42519 10.7637 6.41427C10.9364 6.40335 11.102 6.34147 11.2395 6.23645C11.3771 6.13143 11.4804 5.98798 11.5364 5.82425C11.5924 5.66052 11.5986 5.48386 11.5542 5.3166C11.5248 5.20552 11.4737 5.10133 11.4039 5.00998C11.3342 4.91864 11.2471 4.84193 11.1477 4.78424C11.0483 4.72655 10.9385 4.689 10.8246 4.67375C10.7107 4.6585 10.5949 4.66584 10.4838 4.69535Z" fill="black"/>
<path d="M7.56682 2.94535C7.39958 2.98979 7.24926 3.08282 7.13489 3.21268C7.02051 3.34253 6.94721 3.50339 6.92424 3.67491C6.90128 3.84642 6.92969 4.0209 7.00588 4.17627C7.08207 4.33164 7.20262 4.46093 7.35229 4.54779C7.50195 4.63466 7.67401 4.67519 7.84671 4.66427C8.01942 4.65335 8.185 4.59147 8.32254 4.48645C8.46007 4.38143 8.56338 4.23799 8.61939 4.07426C8.67541 3.91053 8.68162 3.73386 8.63724 3.5666C8.60776 3.45552 8.55669 3.35133 8.48694 3.25998C8.41719 3.16864 8.33013 3.09193 8.23072 3.03424C8.13132 2.97655 8.02153 2.939 7.90761 2.92375C7.7937 2.9085 7.6779 2.91584 7.56682 2.94535Z" fill="black"/>
<path d="M4.65032 4.69535C4.48307 4.73979 4.33276 4.83282 4.21838 4.96267C4.10401 5.09253 4.0307 5.25339 4.00774 5.4249C3.98478 5.59642 4.01319 5.77089 4.08938 5.92626C4.16557 6.08164 4.28611 6.21093 4.43578 6.29779C4.58545 6.38465 4.75751 6.42519 4.93021 6.41427C5.10291 6.40335 5.2685 6.34147 5.40603 6.23645C5.54356 6.13143 5.64687 5.98798 5.70289 5.82425C5.7589 5.66052 5.76511 5.48386 5.72073 5.3166C5.69125 5.20552 5.64018 5.10133 5.57043 5.00998C5.50068 4.91864 5.41362 4.84193 5.31422 4.78424C5.21481 4.72655 5.10502 4.689 4.99111 4.67375C4.87719 4.6585 4.76139 4.66584 4.65032 4.69535Z" fill="black"/>
<path d="M4.65032 8.19536C4.48307 8.23979 4.33276 8.33282 4.21838 8.46268C4.10401 8.59253 4.0307 8.75339 4.00774 8.92491C3.98478 9.09642 4.01319 9.2709 4.08938 9.42627C4.16557 9.58164 4.28611 9.71093 4.43578 9.79779C4.58545 9.88466 4.75751 9.92519 4.93021 9.91427C5.10291 9.90335 5.2685 9.84147 5.40603 9.73645C5.54356 9.63143 5.64687 9.48799 5.70289 9.32426C5.7589 9.16053 5.76511 8.98386 5.72073 8.8166C5.69125 8.70552 5.64018 8.60133 5.57043 8.50998C5.50068 8.41864 5.41362 8.34193 5.31422 8.28424C5.21481 8.22655 5.10502 8.189 4.99111 8.17375C4.87719 8.1585 4.76139 8.16584 4.65032 8.19536Z" fill="black"/>
<path d="M7.79159 0.00422799C6.85242 -0.028428 5.91628 0.128356 5.039 0.465232C4.16171 0.802108 3.36124 1.31218 2.6853 1.96504C2.00936 2.61789 1.4718 3.40017 1.10466 4.26522C0.737521 5.13028 0.54832 6.0604 0.54834 7.00014C0.550501 8.856 1.28869 10.6352 2.60098 11.9475C3.91327 13.2598 5.69249 13.998 7.54834 14.0001C7.74551 14.0001 7.93917 13.9873 8.13167 13.971C8.27774 13.9587 8.41382 13.8918 8.51283 13.7837C8.61184 13.6756 8.66652 13.5342 8.66601 13.3876L8.64734 11.2946C8.64262 10.881 8.76127 10.4754 8.98815 10.1296C9.21503 9.78372 9.53983 9.51334 9.92109 9.35294C10.3024 9.19255 10.7228 9.14943 11.1287 9.22908C11.5345 9.30874 11.9075 9.50755 12.1998 9.80015L12.2582 9.85848C12.3906 9.99203 12.5547 10.0899 12.7351 10.1431C12.9155 10.1962 13.1064 10.2029 13.2901 10.1624C13.4708 10.1245 13.6391 10.0417 13.7794 9.92173C13.9198 9.80176 14.0277 9.64842 14.0933 9.47581C14.4154 8.63015 14.5694 7.72977 14.5466 6.82514C14.4809 5.04832 13.7501 3.36101 12.499 2.09765C11.2478 0.834302 9.56769 0.0871269 7.79159 0.00422799ZM13.0311 8.98756L13.0229 8.97939C12.567 8.52419 11.9859 8.2149 11.3536 8.09089C10.7214 7.96687 10.0665 8.03373 9.4724 8.28295C8.87826 8.53218 8.37168 8.95251 8.01711 9.49047C7.66255 10.0284 7.47602 10.6597 7.48126 11.304L7.49526 12.8335C5.94816 12.8265 4.46719 12.2053 3.37816 11.1064C2.28912 10.0075 1.68121 8.52099 1.68817 6.9739C1.69514 5.4268 2.31639 3.94583 3.41528 2.85679C4.51416 1.76775 6.00066 1.15985 7.54776 1.16681C7.61601 1.16681 7.68484 1.16681 7.75367 1.17031C9.23323 1.23981 10.6327 1.86258 11.6747 2.91522C12.7168 3.96785 13.3254 5.37354 13.3799 6.85373C13.3992 7.57915 13.2814 8.3017 13.0328 8.98348L13.0311 8.98756Z" fill="black"/>
</g>
<defs>
<clipPath id="clip0_8_108621">
<rect width="14" height="14" fill="white" transform="translate(0.5)"/>
</clipPath>
</defs>
</svg>
