<svg width="30" height="30" viewBox="0 0 30 30" fill="none" xmlns="http://www.w3.org/2000/svg">
<rect width="30" height="30" rx="15" fill="#F2F2F2"/>
<g clip-path="url(#clip0_8_112089)">
<path d="M8.58321 22C8.73791 22 8.88625 21.9385 8.99563 21.8291L12.8567 17.968L13.5847 18.7217C14.1334 19.3015 14.8897 19.6401 15.6876 19.6632C15.9536 19.664 16.2178 19.6192 16.4687 19.5308C16.8564 19.3973 17.1969 19.1542 17.4491 18.8309C17.7012 18.5076 17.8541 18.1181 17.8891 17.7096C17.9524 17.118 17.9086 16.5199 17.7596 15.9439L17.6348 15.336C17.6111 15.2388 17.6129 15.1372 17.6399 15.0409C17.6668 14.9445 17.7181 14.8567 17.7888 14.786L18.7145 13.8596C18.7511 13.823 18.8005 13.802 18.8522 13.8013C18.8704 13.7979 18.8891 13.7997 18.9063 13.8064C18.9235 13.8131 18.9385 13.8244 18.9496 13.8392C19.2426 14.1499 19.6368 14.346 20.0614 14.3922C20.486 14.4384 20.9131 14.3317 21.266 14.0912C21.4732 13.9436 21.6456 13.7525 21.7713 13.5314C21.8971 13.3104 21.9731 13.0645 21.9942 12.811C22.0152 12.5575 21.9808 12.3025 21.8932 12.0637C21.8056 11.8249 21.6671 11.6081 21.4871 11.4283L18.6165 8.55654C18.3218 8.25443 17.9302 8.06554 17.5103 8.02289C17.0904 7.98023 16.6689 8.08654 16.3194 8.32321C16.1122 8.47081 15.9397 8.6618 15.8139 8.88286C15.6881 9.10393 15.612 9.34977 15.5909 9.60325C15.5698 9.85674 15.6042 10.1118 15.6918 10.3506C15.7793 10.5894 15.9178 10.8063 16.0977 10.9861L16.142 11.0305C16.1755 11.0641 16.1942 11.1096 16.1942 11.157C16.1942 11.2045 16.1755 11.25 16.142 11.2836L15.2087 12.217C15.1371 12.2884 15.0482 12.34 14.9506 12.3667C14.853 12.3934 14.7502 12.3943 14.6522 12.3692L14.1756 12.2473C13.5894 12.0942 12.9804 12.0481 12.3778 12.1114C11.9504 12.1556 11.5446 12.3212 11.2082 12.5884C10.8718 12.8557 10.6188 13.2136 10.479 13.6199C10.3265 14.0374 10.2965 14.4898 10.3924 14.9238C10.4883 15.3579 10.7062 15.7555 11.0204 16.0699L12.0459 17.1315L8.17079 21.0043C8.08924 21.0859 8.0337 21.1898 8.0112 21.3029C7.9887 21.4161 8.00026 21.5333 8.0444 21.6399C8.08854 21.7465 8.16329 21.8376 8.25919 21.9017C8.3551 21.9658 8.46785 22 8.58321 22ZM11.5786 14.0084C11.6444 13.8096 11.7663 13.6342 11.9297 13.5034C12.093 13.3725 12.2908 13.2918 12.4991 13.271C12.6334 13.2571 12.7684 13.2501 12.9034 13.25C13.2343 13.2501 13.5639 13.2926 13.884 13.3766L14.364 13.4991C14.6582 13.5735 14.9666 13.5705 15.2591 13.4902C15.5517 13.41 15.8185 13.2553 16.0335 13.0412L16.9669 12.1079C17.2187 11.8553 17.3601 11.5131 17.3601 11.1565C17.3601 10.7998 17.2187 10.4576 16.9669 10.205L16.9225 10.1607C16.8621 10.1005 16.8157 10.0277 16.7865 9.94752C16.7573 9.86736 16.746 9.78177 16.7534 9.69678C16.7609 9.61179 16.7869 9.52947 16.8296 9.45562C16.8723 9.38178 16.9307 9.3182 17.0007 9.26937C17.1252 9.19402 17.2718 9.1639 17.4159 9.18409C17.56 9.20428 17.6927 9.27355 17.7917 9.38021L20.664 12.2525C20.7244 12.3128 20.7709 12.3856 20.8001 12.4657C20.8293 12.5459 20.8406 12.6315 20.8332 12.7165C20.8257 12.8015 20.7997 12.8838 20.757 12.9576C20.7142 13.0315 20.6558 13.095 20.5859 13.1439C20.46 13.2203 20.3115 13.2504 20.1659 13.2291C20.0202 13.2078 19.8866 13.1364 19.7879 13.0272C19.6679 12.9035 19.5243 12.805 19.3656 12.7377C19.2069 12.6704 19.0363 12.6355 18.8639 12.6352C18.5002 12.6369 18.1515 12.78 17.8915 13.0342L16.9663 13.96C16.7562 14.1702 16.6031 14.4304 16.5215 14.7162C16.4398 15.002 16.4323 15.3038 16.4996 15.5933L16.6274 16.2105C16.7451 16.6605 16.7808 17.128 16.733 17.5906C16.719 17.7793 16.6499 17.9597 16.5343 18.1095C16.4187 18.2593 16.2616 18.3717 16.0825 18.433C15.7841 18.5114 15.4696 18.5037 15.1754 18.4108C14.8812 18.3179 14.6193 18.1436 14.42 17.908L11.8534 15.2538C11.6933 15.0942 11.5824 14.892 11.5337 14.6713C11.485 14.4506 11.5006 14.2205 11.5786 14.0084Z" fill="#005B52"/>
</g>
<defs>
<clipPath id="clip0_8_112089">
<rect width="14" height="14" fill="white" transform="translate(8 8)"/>
</clipPath>
</defs>
</svg>
