<?xml version="1.0" encoding="UTF-8"?>
<svg id="Layer_1" data-name="Layer 1" xmlns="http://www.w3.org/2000/svg" viewBox="0 0 230.8 230.8">
  <defs>
    <style>
      .cls-1 {
        fill-rule: evenodd;
      }

      .cls-2 {
        fill: #fff;
      }

      .cls-3 {
        fill: #dbf226;
      }
    </style>
  </defs>
  <path d="M55,0h120.8c30.4,0,55,24.6,55,55v120.8c0,30.4-24.6,55-55,55H55C24.6,230.8,0,206.2,0,175.8V55C0,24.6,24.6,0,55,0Z"/>
  <g>
    <path class="cls-3" d="M145,170.3c0,1.4,2.1,8.3,2.4,9.6,1.8,7.4,8.5,12.9,16.5,12.9s17-7.6,17-17-2.2-13.1-3.5-15.5c-2.9-5.4-32.4.6-32.4,10h0Z"/>
    <path class="cls-3" d="M99.3,89l-24.2,96.8c-.9,3.6,1.8,7,5.5,7h31.4c2.6,0,4.9-1.8,5.5-4.3l16.4-65.7h21.8c2.6,0,4.9-1.8,5.5-4.3l5.6-22.6c.9-3.6-1.8-7.1-5.5-7h-62v.1Z"/>
    <g>
      <path class="cls-1" d="M129.5,66.1l-6.6-10-8.4,8.3,3-11.9c.3-1.3,0-2.6-.7-3.7l-6.6-9.6-7.5,8.2h-13.6c-2.6,0-4.9,1.8-5.5,4.3l-2.1,8.4c-.6,2.5-2.9,4.3-5.5,4.3h-8.2c-2.6,0-4.9,1.8-5.5,4.3l-3.8,15.2-7.6,2.8,6.3,8.9h0c1,1.6,2.8,2.8,4.9,2.8h9.8l-15.8,63.2s7.6,21.9,25,21.9h16.1c2.6,0,4.9-1.8,5.5-4.3l6.1-24.5c.2-.9,0-1.9-.4-2.8l-6.4-10.1-6,5.5c-1-1.3-1.5-3.1-1-4.9l11-44h12.6c2.6,0,4.9-1.8,5.5-4.3l6.1-24.4c.3-1.2,0-2.6-.6-3.6h-.1Z"/>
      <path class="cls-2" d="M107.5,37.9h-25.1c-2.6,0-4.9,1.8-5.5,4.3l-3.2,12.7h-12.6c-2.6,0-4.9,1.8-5.5,4.3l-5.7,22.7c-.9,3.6,1.8,7,5.5,7h9.8l-12.7,50.9c-4.3,17.3,8.8,34.1,26.6,34.1h11.4c2.6,0,4.9-1.8,5.5-4.3l6.3-25.4c.6-2.2-1.1-4.4-3.4-4.4h-5.2c-3.7,0-6.4-3.5-5.5-7l11-44h12.6c2.6,0,4.9-1.8,5.5-4.3l6.3-25.3c.6-2.2-1.1-4.4-3.4-4.4h-12.5l3.2-12.6c.6-2.2-1.1-4.4-3.4-4.4h0v.1Z"/>
    </g>
    <path d="M142.6,160.9c0,1.4,2.1,8.3,2.4,9.6,1.8,7.4,8.5,12.9,16.5,12.9s17-7.6,17-17-2.2-13.1-3.5-15.5c-2.9-5.4-32.4.6-32.4,10h0Z"/>
    <path class="cls-2" d="M159.2,140c-9.4,0-17,7.6-17,17s7.6,17,17,17,17-7.6,17-17-7.6-17-17-17Z"/>
  </g>
</svg>