<svg class="w-[14px] h-[14px]" viewBox="0 0 14 15" fill="none" xmlns="http://www.w3.org/2000/svg">
<g id="fi-rr-user-add" clip-path="url(#clip0_2840_158926)">
<path id="Vector" d="M13.4173 7.30078H12.2506V6.13411C12.2506 5.9794 12.1892 5.83103 12.0798 5.72164C11.9704 5.61224 11.822 5.55078 11.6673 5.55078C11.5126 5.55078 11.3642 5.61224 11.2548 5.72164C11.1454 5.83103 11.084 5.9794 11.084 6.13411V7.30078H9.91732C9.76261 7.30078 9.61423 7.36224 9.50484 7.47163C9.39544 7.58103 9.33398 7.7294 9.33398 7.88411C9.33398 8.03882 9.39544 8.18719 9.50484 8.29659C9.61423 8.40598 9.76261 8.46744 9.91732 8.46744H11.084V9.63411C11.084 9.78882 11.1454 9.93719 11.2548 10.0466C11.3642 10.156 11.5126 10.2174 11.6673 10.2174C11.822 10.2174 11.9704 10.156 12.0798 10.0466C12.1892 9.93719 12.2506 9.78882 12.2506 9.63411V8.46744H13.4173C13.572 8.46744 13.7204 8.40598 13.8298 8.29659C13.9392 8.18719 14.0006 8.03882 14.0006 7.88411C14.0006 7.7294 13.9392 7.58103 13.8298 7.47163C13.7204 7.36224 13.572 7.30078 13.4173 7.30078Z" fill="black"/>
<path id="Vector_2" d="M5.25 7.88281C5.94223 7.88281 6.61892 7.67754 7.1945 7.29296C7.77007 6.90837 8.21867 6.36175 8.48358 5.72221C8.74849 5.08266 8.8178 4.37893 8.68275 3.7C8.5477 3.02106 8.21436 2.39742 7.72487 1.90794C7.23539 1.41846 6.61175 1.08511 5.93282 0.950066C5.25388 0.815017 4.55015 0.884329 3.91061 1.14924C3.27107 1.41414 2.72444 1.86275 2.33986 2.43832C1.95527 3.01389 1.75 3.69058 1.75 4.38281C1.75093 5.31079 2.11997 6.20049 2.77615 6.85667C3.43233 7.51284 4.32203 7.88189 5.25 7.88281ZM5.25 2.04948C5.71149 2.04948 6.16262 2.18633 6.54633 2.44272C6.93005 2.69911 7.22912 3.06353 7.40572 3.48989C7.58232 3.91625 7.62853 4.3854 7.5385 4.83803C7.44847 5.29065 7.22624 5.70641 6.89992 6.03273C6.57359 6.35905 6.15783 6.58128 5.70521 6.67131C5.25259 6.76135 4.78343 6.71514 4.35707 6.53853C3.93071 6.36193 3.56629 6.06286 3.3099 5.67914C3.05351 5.29543 2.91667 4.8443 2.91667 4.38281C2.91667 3.76398 3.1625 3.17048 3.60008 2.7329C4.03767 2.29531 4.63116 2.04948 5.25 2.04948Z" fill="black"/>
<path id="Vector_3" d="M5.25 9.05078C3.85809 9.05233 2.52363 9.60594 1.53939 10.5902C0.555163 11.5744 0.001544 12.9089 0 14.3008C0 14.4555 0.0614582 14.6039 0.170854 14.7133C0.280251 14.8227 0.428624 14.8841 0.583333 14.8841C0.738043 14.8841 0.886416 14.8227 0.995812 14.7133C1.10521 14.6039 1.16667 14.4555 1.16667 14.3008C1.16667 13.2178 1.59687 12.1792 2.36265 11.4134C3.12842 10.6477 4.16703 10.2174 5.25 10.2174C6.33297 10.2174 7.37158 10.6477 8.13735 11.4134C8.90313 12.1792 9.33333 13.2178 9.33333 14.3008C9.33333 14.4555 9.39479 14.6039 9.50419 14.7133C9.61358 14.8227 9.76196 14.8841 9.91667 14.8841C10.0714 14.8841 10.2197 14.8227 10.3291 14.7133C10.4385 14.6039 10.5 14.4555 10.5 14.3008C10.4985 12.9089 9.94484 11.5744 8.9606 10.5902C7.97637 9.60594 6.64191 9.05233 5.25 9.05078Z" fill="black"/>
</g>
<defs>
<clipPath id="clip0_2840_158926">
<rect width="14" height="14" fill="white" transform="translate(0 0.882812)"/>
</clipPath>
</defs>
</svg>
