<svg class="w-[14px] h-[14px]" viewBox="0 0 14 15" fill="none" xmlns="http://www.w3.org/2000/svg">
<g id="fi-rr-shopping-cart-check" clip-path="url(#clip0_2840_158916)">
<path id="Vector" d="M4.08268 14.1185C4.72701 14.1185 5.24934 13.5962 5.24934 12.9518C5.24934 12.3075 4.72701 11.7852 4.08268 11.7852C3.43835 11.7852 2.91602 12.3075 2.91602 12.9518C2.91602 13.5962 3.43835 14.1185 4.08268 14.1185Z" fill="black"/>
<path id="Vector_2" d="M9.91666 14.1185C10.561 14.1185 11.0833 13.5962 11.0833 12.9518C11.0833 12.3075 10.561 11.7852 9.91666 11.7852C9.27233 11.7852 8.75 12.3075 8.75 12.9518C8.75 13.5962 9.27233 14.1185 9.91666 14.1185Z" fill="black"/>
<path id="Vector_3" d="M13.8172 0.895401C13.7078 0.786043 13.5594 0.724609 13.4047 0.724609C13.2501 0.724609 13.1017 0.786043 12.9923 0.895401L9.98291 3.90774L9.07816 2.96332C9.02507 2.90809 8.96163 2.86385 8.89145 2.83314C8.82126 2.80243 8.74572 2.78584 8.66913 2.78432C8.59254 2.78281 8.51639 2.79639 8.44505 2.8243C8.37371 2.85221 8.30856 2.8939 8.25333 2.94699C8.1981 3.00007 8.15386 3.06352 8.12315 3.1337C8.09244 3.20388 8.07585 3.27943 8.07433 3.35602C8.07127 3.51071 8.12978 3.66027 8.237 3.77182L9.1785 4.75124C9.27881 4.85959 9.40007 4.94647 9.53492 5.00663C9.66978 5.06679 9.81543 5.09897 9.96308 5.10123H9.98233C10.127 5.10171 10.2704 5.07344 10.4041 5.01807C10.5377 4.96269 10.6591 4.88131 10.7611 4.77865L13.8172 1.72023C13.9265 1.61084 13.988 1.4625 13.988 1.30782C13.988 1.15314 13.9265 1.00479 13.8172 0.895401Z" fill="black"/>
<path id="Vector_4" d="M12.775 5.37652C12.6996 5.36289 12.6222 5.36426 12.5473 5.38055C12.4724 5.39684 12.4015 5.42772 12.3385 5.47144C12.2756 5.51516 12.2219 5.57085 12.1805 5.63534C12.139 5.69982 12.1107 5.77184 12.0972 5.84727L12.0225 6.26085C11.9497 6.66471 11.7374 7.03015 11.4225 7.2933C11.1076 7.55646 10.7103 7.7006 10.2999 7.70052H3.1605L2.61217 3.03385H6.41667C6.57138 3.03385 6.71975 2.9724 6.82915 2.863C6.93854 2.7536 7 2.60523 7 2.45052C7 2.29581 6.93854 2.14744 6.82915 2.03804C6.71975 1.92865 6.57138 1.86719 6.41667 1.86719H2.4745L2.45 1.66185C2.39973 1.23637 2.19512 0.844111 1.87494 0.559415C1.55477 0.274719 1.14128 0.11737 0.712833 0.117188L0.583333 0.117188C0.428624 0.117188 0.280251 0.178646 0.170854 0.288042C0.0614582 0.397438 0 0.545811 0 0.700521C0 0.85523 0.0614582 1.0036 0.170854 1.113C0.280251 1.2224 0.428624 1.28385 0.583333 1.28385H0.712833C0.855711 1.28387 0.993613 1.33633 1.10038 1.43127C1.20715 1.52621 1.27537 1.65704 1.29208 1.79894L2.09475 8.62394C2.17808 9.33373 2.51911 9.98823 3.05311 10.4632C3.58711 10.9382 4.27692 11.2005 4.99158 11.2005H11.0833C11.238 11.2005 11.3864 11.1391 11.4958 11.0297C11.6052 10.9203 11.6667 10.7719 11.6667 10.6172C11.6667 10.4625 11.6052 10.3141 11.4958 10.2047C11.3864 10.0953 11.238 10.0339 11.0833 10.0339H4.99158C4.62964 10.0339 4.27657 9.92176 3.98102 9.71282C3.68547 9.50388 3.46198 9.20843 3.34133 8.86719H10.2999C10.9838 8.86723 11.6459 8.62699 12.1706 8.18844C12.6953 7.7499 13.0492 7.14093 13.1705 6.46794L13.2452 6.05377C13.2725 5.90163 13.2384 5.74484 13.1502 5.61786C13.0621 5.49087 12.9271 5.40407 12.775 5.37652Z" fill="black"/>
</g>
<defs>
<clipPath id="clip0_2840_158916">
<rect width="14" height="14" fill="white" transform="translate(0 0.117188)"/>
</clipPath>
</defs>
</svg>
