<svg class="w-[14px] h-[14px]" viewBox="0 0 14 14" fill="none" xmlns="http://www.w3.org/2000/svg">
<g id="fi-rr-text" clip-path="url(#clip0_2840_158841)">
<path id="Vector" d="M11.0833 0H2.91667C2.1434 0.00092625 1.40208 0.308514 0.855295 0.855295C0.308514 1.40208 0.00092625 2.1434 0 2.91667L0 11.0833C0.00092625 11.8566 0.308514 12.5979 0.855295 13.1447C1.40208 13.6915 2.1434 13.9991 2.91667 14H11.0833C11.8566 13.9991 12.5979 13.6915 13.1447 13.1447C13.6915 12.5979 13.9991 11.8566 14 11.0833V2.91667C13.9991 2.1434 13.6915 1.40208 13.1447 0.855295C12.5979 0.308514 11.8566 0.00092625 11.0833 0V0ZM12.8333 11.0833C12.8333 11.5475 12.649 11.9926 12.3208 12.3208C11.9926 12.649 11.5475 12.8333 11.0833 12.8333H2.91667C2.45254 12.8333 2.00742 12.649 1.67923 12.3208C1.35104 11.9926 1.16667 11.5475 1.16667 11.0833V2.91667C1.16667 2.45254 1.35104 2.00742 1.67923 1.67923C2.00742 1.35104 2.45254 1.16667 2.91667 1.16667H11.0833C11.5475 1.16667 11.9926 1.35104 12.3208 1.67923C12.649 2.00742 12.8333 2.45254 12.8333 2.91667V11.0833ZM10.5 5.25C10.5 5.40471 10.4385 5.55308 10.3291 5.66248C10.2197 5.77187 10.0714 5.83333 9.91667 5.83333C9.76196 5.83333 9.61358 5.77187 9.50419 5.66248C9.39479 5.55308 9.33333 5.40471 9.33333 5.25C9.33333 5.09529 9.27187 4.94692 9.16248 4.83752C9.05308 4.72812 8.90471 4.66667 8.75 4.66667H7.58333V9.33333H8.16667C8.32138 9.33333 8.46975 9.39479 8.57915 9.50419C8.68854 9.61358 8.75 9.76196 8.75 9.91667C8.75 10.0714 8.68854 10.2197 8.57915 10.3291C8.46975 10.4385 8.32138 10.5 8.16667 10.5H5.83333C5.67862 10.5 5.53025 10.4385 5.42085 10.3291C5.31146 10.2197 5.25 10.0714 5.25 9.91667C5.25 9.76196 5.31146 9.61358 5.42085 9.50419C5.53025 9.39479 5.67862 9.33333 5.83333 9.33333H6.41667V4.66667H5.25C5.09529 4.66667 4.94692 4.72812 4.83752 4.83752C4.72812 4.94692 4.66667 5.09529 4.66667 5.25C4.66667 5.40471 4.60521 5.55308 4.49581 5.66248C4.38642 5.77187 4.23804 5.83333 4.08333 5.83333C3.92862 5.83333 3.78025 5.77187 3.67085 5.66248C3.56146 5.55308 3.5 5.40471 3.5 5.25C3.5 4.78587 3.68437 4.34075 4.01256 4.01256C4.34075 3.68437 4.78587 3.5 5.25 3.5H8.75C9.21413 3.5 9.65925 3.68437 9.98744 4.01256C10.3156 4.34075 10.5 4.78587 10.5 5.25Z" fill="black"/>
</g>
<defs>
<clipPath id="clip0_2840_158841">
<rect width="14" height="14" fill="white"/>
</clipPath>
</defs>
</svg>
