<svg class="w-[14px] h-[14px]" viewBox="0 0 14 15" fill="none" xmlns="http://www.w3.org/2000/svg">
<g id="fi-rr-picture" clip-path="url(#clip0_2840_158818)">
<path id="Vector" d="M11.0833 0.234375H2.91667C2.1434 0.235301 1.40208 0.542889 0.855295 1.08967C0.308514 1.63645 0.00092625 2.37778 0 3.15104L0 11.3177C0.00092625 12.091 0.308514 12.8323 0.855295 13.3791C1.40208 13.9259 2.1434 14.2334 2.91667 14.2344H11.0833C11.8566 14.2334 12.5979 13.9259 13.1447 13.3791C13.6915 12.8323 13.9991 12.091 14 11.3177V3.15104C13.9991 2.37778 13.6915 1.63645 13.1447 1.08967C12.5979 0.542889 11.8566 0.235301 11.0833 0.234375V0.234375ZM2.91667 1.40104H11.0833C11.5475 1.40104 11.9926 1.58542 12.3208 1.9136C12.649 2.24179 12.8333 2.68691 12.8333 3.15104V11.3177C12.8323 11.5776 12.7725 11.8338 12.6583 12.0673L7.31325 6.72221C7.0424 6.45129 6.72084 6.23638 6.36692 6.08976C6.013 5.94313 5.63367 5.86766 5.25058 5.86766C4.8675 5.86766 4.48816 5.94313 4.13425 6.08976C3.78033 6.23638 3.45876 6.45129 3.18792 6.72221L1.16667 8.74288V3.15104C1.16667 2.68691 1.35104 2.24179 1.67923 1.9136C2.00742 1.58542 2.45254 1.40104 2.91667 1.40104ZM2.91667 13.0677C2.45254 13.0677 2.00742 12.8833 1.67923 12.5551C1.35104 12.227 1.16667 11.7818 1.16667 11.3177V10.3925L4.01217 7.54704C4.17468 7.38442 4.36765 7.25542 4.58004 7.1674C4.79244 7.07938 5.02009 7.03408 5.25 7.03408C5.47991 7.03408 5.70756 7.07938 5.91996 7.1674C6.13235 7.25542 6.32532 7.38442 6.48783 7.54704L11.8329 12.8927C11.5995 13.0069 11.3432 13.0667 11.0833 13.0677H2.91667Z" fill="#005B52"/>
<path id="Vector_2" d="M9.33268 6.35873C9.73649 6.35873 10.1312 6.23898 10.467 6.01464C10.8027 5.7903 11.0644 5.47144 11.2189 5.09837C11.3735 4.7253 11.4139 4.31479 11.3351 3.91875C11.2563 3.5227 11.0619 3.15891 10.7764 2.87338C10.4908 2.58785 10.127 2.3934 9.73099 2.31462C9.33495 2.23584 8.92444 2.27628 8.55137 2.4308C8.1783 2.58533 7.85944 2.84702 7.6351 3.18277C7.41076 3.51852 7.29102 3.91325 7.29102 4.31706C7.29102 4.85854 7.50612 5.37785 7.88901 5.76073C8.27189 6.14362 8.7912 6.35873 9.33268 6.35873ZM9.33268 3.44206C9.50574 3.44206 9.67491 3.49338 9.81881 3.58952C9.9627 3.68567 10.0748 3.82232 10.1411 3.98221C10.2073 4.1421 10.2246 4.31803 10.1909 4.48776C10.1571 4.6575 10.0738 4.81341 9.9514 4.93578C9.82903 5.05815 9.67312 5.14148 9.50339 5.17525C9.33365 5.20901 9.15772 5.19168 8.99783 5.12545C8.83795 5.05923 8.70129 4.94708 8.60515 4.80318C8.509 4.65929 8.45768 4.49012 8.45768 4.31706C8.45768 4.08499 8.54987 3.86243 8.71396 3.69834C8.87806 3.53425 9.10062 3.44206 9.33268 3.44206Z" fill="#5A5D6C"/>
</g>
<defs>
<clipPath id="clip0_2840_158818">
<rect width="14" height="14" fill="white" transform="translate(0 0.234375)"/>
</clipPath>
</defs>
</svg>
