<svg class="w-[14px] h-[14px]" viewBox="0 0 14 15" fill="none" xmlns="http://www.w3.org/2000/svg">
<g id="fi-rr-cube" clip-path="url(#clip0_2840_158889)">
<path id="Vector" d="M11.9749 2.51902L8.45911 0.48902C8.01543 0.233883 7.51258 0.0996094 7.00078 0.0996094C6.48897 0.0996094 5.98612 0.233883 5.54244 0.48902L2.02669 2.51902C1.58387 2.77564 1.21614 3.14396 0.960227 3.58719C0.704319 4.03042 0.569197 4.53305 0.568359 5.04485V9.10485C0.569212 9.61673 0.704336 10.1194 0.960237 10.5628C1.21614 11.0061 1.58386 11.3745 2.02669 11.6313L5.54244 13.6607C5.98606 13.916 6.48894 14.0504 7.00078 14.0504C7.51262 14.0504 8.01549 13.916 8.45911 13.6607L11.9749 11.6313C12.4177 11.3745 12.7854 11.0061 13.0413 10.5628C13.2972 10.1194 13.4323 9.61673 13.4332 9.10485V5.04485C13.4324 4.53305 13.2972 4.03042 13.0413 3.58719C12.7854 3.14396 12.4177 2.77564 11.9749 2.51902ZM6.12578 1.49994C6.39181 1.34634 6.69359 1.26548 7.00078 1.26548C7.30797 1.26548 7.60974 1.34634 7.87578 1.49994L11.3915 3.52935C11.4807 3.5857 11.5644 3.65014 11.6418 3.72185L8.02919 5.80727C7.71644 5.98757 7.36178 6.08247 7.00078 6.08247C6.63977 6.08247 6.28512 5.98757 5.97236 5.80727L2.35978 3.72185C2.43711 3.65014 2.52088 3.5857 2.61003 3.52935L6.12578 1.49994ZM2.61003 10.6204C2.34415 10.4663 2.12338 10.2451 1.96983 9.97896C1.81627 9.7128 1.7353 9.41097 1.73503 9.10369V5.04485C1.73908 4.93976 1.75294 4.83528 1.77644 4.73277L5.38903 6.81819C5.70808 6.99967 6.05595 7.12497 6.41744 7.1886V12.7705C6.31668 12.7397 6.21903 12.6994 6.12578 12.6504L2.61003 10.6204ZM12.2665 9.10369C12.2663 9.41097 12.1853 9.7128 12.0317 9.97896C11.8782 10.2451 11.6574 10.4663 11.3915 10.6204L7.87578 12.6504C7.78252 12.6994 7.68487 12.7397 7.58411 12.7705V7.1886C7.94561 7.12497 8.29348 6.99967 8.61253 6.81819L12.2251 4.73277C12.2486 4.83528 12.2625 4.93976 12.2665 5.04485V9.10369Z" fill="black"/>
</g>
<defs>
<clipPath id="clip0_2840_158889">
<rect width="14" height="14" fill="white" transform="translate(0 0.0585938)"/>
</clipPath>
</defs>
</svg>
