<svg class="w-[14px] h-[14px]" viewBox="0 0 14 15" fill="none" xmlns="http://www.w3.org/2000/svg">
<g id="fi-rr-vector" clip-path="url(#clip0_2840_158806)">
<path id="Vector" d="M5.83742 2.2207L4.66667 2.21254C4.66451 1.74982 4.47918 1.3068 4.15123 0.980376C3.82327 0.653951 3.37938 0.470698 2.91667 0.470703L1.75 0.470703C1.28587 0.470703 0.840752 0.655078 0.512563 0.983266C0.184374 1.31145 0 1.75657 0 2.2207L0 3.38737C-1.26153e-06 3.85079 0.183813 4.29529 0.511119 4.62336C0.838425 4.95144 1.2825 5.13629 1.74592 5.13737L1.73775 6.29995C1.73721 6.37661 1.75179 6.45261 1.78064 6.52363C1.8095 6.59465 1.85207 6.65928 1.90592 6.71384C1.95977 6.76839 2.02384 6.8118 2.09448 6.84157C2.16512 6.87135 2.24093 6.88691 2.31758 6.88737H2.32108C2.47509 6.88737 2.62285 6.82648 2.73213 6.71796C2.8414 6.60945 2.90334 6.46212 2.90442 6.30812L2.91258 5.13737H2.91667C3.3808 5.13737 3.82591 4.953 4.1541 4.62481C4.48229 4.29662 4.66667 3.8515 4.66667 3.38737V3.3792L5.82925 3.38737H5.83333C5.90994 3.38764 5.98584 3.37282 6.05672 3.34375C6.1276 3.31468 6.19205 3.27194 6.24641 3.21796C6.30077 3.16398 6.34396 3.09983 6.37352 3.02915C6.40309 2.95848 6.41844 2.88268 6.41871 2.80608C6.41898 2.72947 6.40415 2.65357 6.37509 2.58269C6.34602 2.51181 6.30328 2.44736 6.2493 2.393C6.19532 2.33864 6.13116 2.29545 6.06049 2.26589C5.98982 2.23633 5.91402 2.22097 5.83742 2.2207ZM3.5 3.38737C3.5 3.54208 3.43854 3.69045 3.32915 3.79985C3.21975 3.90924 3.07138 3.9707 2.91667 3.9707H1.75C1.59529 3.9707 1.44692 3.90924 1.33752 3.79985C1.22812 3.69045 1.16667 3.54208 1.16667 3.38737V2.2207C1.16667 2.06599 1.22812 1.91762 1.33752 1.80822C1.44692 1.69883 1.59529 1.63737 1.75 1.63737H2.91667C3.07138 1.63737 3.21975 1.69883 3.32915 1.80822C3.43854 1.91762 3.5 2.06599 3.5 2.2207V3.38737Z" fill="black"/>
<path id="Vector_2" d="M12.2507 0.470703H11.0841C10.6207 0.470702 10.1762 0.654516 9.84808 0.981822C9.52001 1.30913 9.33516 1.7532 9.33408 2.21662L8.17091 2.20845H8.16741C8.0127 2.20791 7.86411 2.26885 7.75433 2.37786C7.64455 2.48688 7.58258 2.63504 7.58203 2.78974C7.58149 2.94445 7.64243 3.09304 7.75145 3.20282C7.86046 3.3126 8.00862 3.37458 8.16333 3.37512L9.33408 3.38329V3.38737C9.33408 3.8515 9.51845 4.29662 9.84664 4.62481C10.1748 4.953 10.6199 5.13737 11.0841 5.13737H11.0922L11.0841 6.29995C11.0835 6.37656 11.0981 6.45252 11.1269 6.5235C11.1557 6.59448 11.1983 6.65908 11.252 6.71363C11.3058 6.76818 11.3698 6.8116 11.4404 6.84141C11.511 6.87122 11.5867 6.88684 11.6633 6.88737H11.6674C11.8214 6.88737 11.9692 6.82648 12.0785 6.71796C12.1877 6.60945 12.2497 6.46212 12.2507 6.30812L12.2589 5.13737C12.7216 5.13521 13.1646 4.94988 13.4911 4.62193C13.8175 4.29397 14.0007 3.85009 14.0007 3.38737V2.2207C14.0007 1.75657 13.8164 1.31145 13.4882 0.983266C13.16 0.655078 12.7149 0.470703 12.2507 0.470703V0.470703ZM12.8341 3.38737C12.8341 3.54208 12.7726 3.69045 12.6632 3.79985C12.5538 3.90924 12.4055 3.9707 12.2507 3.9707H11.0841C10.9294 3.9707 10.781 3.90924 10.6716 3.79985C10.5622 3.69045 10.5007 3.54208 10.5007 3.38737V2.2207C10.5007 2.06599 10.5622 1.91762 10.6716 1.80822C10.781 1.69883 10.9294 1.63737 11.0841 1.63737H12.2507C12.4055 1.63737 12.5538 1.69883 12.6632 1.80822C12.7726 1.91762 12.8341 2.06599 12.8341 2.2207V3.38737Z" fill="black"/>
<path id="Vector_3" d="M12.2548 9.80273L12.263 8.63957C12.2635 8.56296 12.2488 8.48702 12.2199 8.41607C12.191 8.34512 12.1485 8.28055 12.0946 8.22606C12.0408 8.17157 11.9767 8.12821 11.9061 8.09847C11.8355 8.06874 11.7598 8.05319 11.6832 8.05273H11.6797C11.5257 8.05273 11.3779 8.11363 11.2686 8.22214C11.1593 8.33066 11.0974 8.47798 11.0963 8.63198L11.0882 9.80273H11.0841C10.6199 9.80273 10.1748 9.98711 9.84664 10.3153C9.51845 10.6435 9.33408 11.0886 9.33408 11.5527V11.5609L8.17149 11.5527H8.16741C8.0127 11.5522 7.86411 11.6131 7.75433 11.7221C7.64455 11.8312 7.58258 11.9793 7.58203 12.134C7.58149 12.2887 7.64243 12.4373 7.75145 12.5471C7.86046 12.6569 8.00862 12.7189 8.16333 12.7194L9.33408 12.7276C9.33624 13.1903 9.52156 13.6333 9.84952 13.9597C10.1775 14.2861 10.6214 14.4694 11.0841 14.4694H12.2507C12.7149 14.4694 13.16 14.285 13.4882 13.9568C13.8164 13.6286 14.0007 13.1835 14.0007 12.7194V11.5527C14.0007 11.0893 13.8169 10.6448 13.4896 10.3167C13.1623 9.98866 12.7182 9.80381 12.2548 9.80273ZM12.8341 12.7194C12.8341 12.8741 12.7726 13.0225 12.6632 13.1319C12.5538 13.2413 12.4055 13.3027 12.2507 13.3027H11.0841C10.9294 13.3027 10.781 13.2413 10.6716 13.1319C10.5622 13.0225 10.5007 12.8741 10.5007 12.7194V11.5527C10.5007 11.398 10.5622 11.2496 10.6716 11.1403C10.781 11.0309 10.9294 10.9694 11.0841 10.9694H12.2507C12.4055 10.9694 12.5538 11.0309 12.6632 11.1403C12.7726 11.2496 12.8341 11.398 12.8341 11.5527V12.7194Z" fill="black"/>
<path id="Vector_4" d="M5.83742 11.565L4.66667 11.5568V11.5527C4.66667 11.0886 4.48229 10.6435 4.1541 10.3153C3.82591 9.98711 3.3808 9.80273 2.91667 9.80273H2.9085L2.91667 8.64015C2.9172 8.56355 2.90265 8.48758 2.87383 8.41661C2.84501 8.34563 2.80249 8.28102 2.7487 8.22647C2.69492 8.17192 2.63091 8.12851 2.56034 8.0987C2.48977 8.06889 2.41402 8.05327 2.33742 8.05273H2.33333C2.17933 8.05273 2.03157 8.11363 1.92229 8.22214C1.81301 8.33066 1.75108 8.47798 1.75 8.63198L1.74183 9.80273C1.27912 9.80489 0.836097 9.99022 0.509672 10.3182C0.183248 10.6461 -5.0384e-06 11.09 1.03897e-10 11.5527L1.03897e-10 12.7194C1.03898e-10 13.1835 0.184374 13.6286 0.512563 13.9568C0.840752 14.285 1.28587 14.4694 1.75 14.4694H2.91667C3.38009 14.4694 3.82459 14.2856 4.15266 13.9583C4.48073 13.631 4.66559 13.1869 4.66667 12.7235L5.82983 12.7316H5.83333C5.98804 12.7322 6.13663 12.6712 6.24641 12.5622C6.35619 12.4532 6.41817 12.3051 6.41871 12.1504C6.41925 11.9956 6.35831 11.8471 6.2493 11.7373C6.14028 11.6275 5.99213 11.5655 5.83742 11.565ZM3.5 12.7194C3.5 12.8741 3.43854 13.0225 3.32915 13.1319C3.21975 13.2413 3.07138 13.3027 2.91667 13.3027H1.75C1.59529 13.3027 1.44692 13.2413 1.33752 13.1319C1.22812 13.0225 1.16667 12.8741 1.16667 12.7194V11.5527C1.16667 11.398 1.22812 11.2496 1.33752 11.1403C1.44692 11.0309 1.59529 10.9694 1.75 10.9694H2.91667C3.07138 10.9694 3.21975 11.0309 3.32915 11.1403C3.43854 11.2496 3.5 11.398 3.5 11.5527V12.7194Z" fill="black"/>
</g>
<defs>
<clipPath id="clip0_2840_158806">
<rect width="14" height="14" fill="white" transform="translate(0 0.470703)"/>
</clipPath>
</defs>
</svg>
