<svg class="w-[14px] h-[14px]" viewBox="0 0 14 15" fill="none" xmlns="http://www.w3.org/2000/svg">
<g id="fi-rr-music-alt" clip-path="url(#clip0_2840_158865)">
<path id="Vector" d="M13.1565 1.06773C12.8932 0.848098 12.5844 0.689561 12.2525 0.603523C11.9205 0.517486 11.5736 0.506087 11.2368 0.570147L5.87942 1.57465C5.21076 1.69996 4.60694 2.05506 4.17243 2.57852C3.73792 3.10197 3.50006 3.76085 3.5 4.44115V10.187C3.14688 9.97703 2.74415 9.86507 2.33333 9.86265C1.87184 9.86265 1.42072 9.9995 1.037 10.2559C0.653289 10.5123 0.35422 10.8767 0.177615 11.3031C0.00101099 11.7294 -0.0451968 12.1986 0.0448354 12.6512C0.134868 13.1038 0.357096 13.5196 0.683419 13.8459C1.00974 14.1722 1.4255 14.3944 1.87812 14.4845C2.33075 14.5745 2.7999 14.5283 3.22626 14.3517C3.65262 14.1751 4.01704 13.876 4.27343 13.4923C4.52982 13.1086 4.66667 12.6575 4.66667 12.196V6.87365C4.66665 6.60146 4.7618 6.33782 4.93566 6.12839C5.10951 5.91895 5.35112 5.7769 5.61867 5.72681L12.1421 4.50181C12.2267 4.48588 12.3138 4.48888 12.3971 4.5106C12.4805 4.53231 12.5579 4.5722 12.624 4.62741C12.6901 4.68262 12.7431 4.75177 12.7793 4.8299C12.8155 4.90803 12.834 4.99321 12.8333 5.07931V8.43931C12.4804 8.22854 12.0777 8.11577 11.6667 8.11265C11.2052 8.11265 10.7541 8.2495 10.3703 8.50589C9.98662 8.76227 9.68755 9.12669 9.51095 9.55305C9.33434 9.97941 9.28814 10.4486 9.37817 10.9012C9.4682 11.3538 9.69043 11.7696 10.0168 12.0959C10.3431 12.4222 10.7588 12.6444 11.2115 12.7345C11.6641 12.8245 12.1332 12.7783 12.5596 12.6017C12.986 12.4251 13.3504 12.126 13.6068 11.7423C13.8632 11.3586 14 10.9075 14 10.446V2.86265C14.0004 2.51979 13.925 2.18108 13.7792 1.87077C13.6333 1.56047 13.4207 1.28624 13.1565 1.06773ZM2.33333 13.3626C2.10259 13.3626 1.87703 13.2942 1.68517 13.166C1.49331 13.0378 1.34378 12.8556 1.25548 12.6424C1.16717 12.4293 1.14407 12.1947 1.18909 11.9684C1.2341 11.7421 1.34522 11.5342 1.50838 11.371C1.67154 11.2079 1.87942 11.0967 2.10573 11.0517C2.33204 11.0067 2.56662 11.0298 2.7798 11.1181C2.99298 11.2064 3.17519 11.356 3.30338 11.5478C3.43158 11.7397 3.5 11.9652 3.5 12.196C3.5 12.5054 3.37708 12.8021 3.15829 13.0209C2.9395 13.2397 2.64275 13.3626 2.33333 13.3626ZM11.9274 3.35731L5.40342 4.57998C5.14402 4.62941 4.8949 4.72251 4.66667 4.85531V4.44115C4.66661 4.03294 4.80926 3.63756 5.06993 3.32342C5.33059 3.00928 5.69287 2.79614 6.09408 2.7209L11.452 1.7164C11.6204 1.68487 11.7937 1.69083 11.9596 1.73385C12.1255 1.77688 12.2798 1.85591 12.4117 1.96533C12.5436 2.07476 12.6497 2.21189 12.7226 2.36697C12.7954 2.52206 12.8333 2.69129 12.8333 2.86265V3.43665C12.5439 3.32959 12.231 3.30219 11.9274 3.35731ZM11.6667 11.6126C11.4359 11.6126 11.2104 11.5442 11.0185 11.416C10.8266 11.2878 10.6771 11.1056 10.5888 10.8924C10.5005 10.6793 10.4774 10.4447 10.5224 10.2184C10.5674 9.99206 10.6785 9.78418 10.8417 9.62102C11.0049 9.45786 11.2128 9.34675 11.4391 9.30173C11.6654 9.25671 11.9 9.27982 12.1131 9.36812C12.3263 9.45642 12.5085 9.60596 12.6367 9.79782C12.7649 9.98967 12.8333 10.2152 12.8333 10.446C12.8333 10.7554 12.7104 11.0521 12.4916 11.2709C12.2728 11.4897 11.9761 11.6126 11.6667 11.6126Z" fill="black"/>
</g>
<defs>
<clipPath id="clip0_2840_158865">
<rect width="14" height="14" fill="white" transform="translate(0 0.529297)"/>
</clipPath>
</defs>
</svg>
