<svg width="18" height="19" viewBox="0 0 18 19" fill="none" xmlns="http://www.w3.org/2000/svg">
<path fill-rule="evenodd" clip-rule="evenodd" d="M0 9.5C0 4.52944 4.02944 0.5 9 0.5C13.9706 0.5 18 4.52944 18 9.5C18 14.4706 13.9706 18.5 9 18.5C4.02944 18.5 0 14.4706 0 9.5Z" fill="#005B52"/>
<path fill-rule="evenodd" clip-rule="evenodd" d="M6.36429 5.01837C6.47357 5.00918 6.56725 5.03582 6.62786 5.13592C6.76378 5.35633 6.90062 5.57674 7.03011 5.80267C7.17981 6.06349 7.31757 6.33166 7.46451 6.59523C7.50216 6.66595 7.55451 6.73023 7.59859 6.79819C7.639 6.86248 7.67757 6.9286 7.71523 6.99289C7.79237 7.13891 7.7887 7.28585 7.6739 7.40249C7.51043 7.56964 7.33043 7.72484 7.15685 7.88372C7.01175 8.01689 6.86113 8.14454 6.7197 8.28046C6.6095 8.387 6.58103 8.52016 6.65541 8.66067C6.77021 8.87558 6.88409 9.09048 7.00991 9.30079C7.47645 10.0787 8.07248 10.7399 8.82555 11.2496C9.11576 11.447 9.41791 11.628 9.72281 11.8006C10.0103 11.9632 10.1223 11.9356 10.3455 11.6867C10.553 11.4562 10.7532 11.222 10.9599 10.9897C11.0095 10.9337 11.0692 10.8841 11.127 10.8363C11.2446 10.7371 11.3731 10.7261 11.5081 10.7941C11.5458 10.8124 11.5862 10.829 11.6193 10.8529C11.9774 11.1091 12.3779 11.29 12.7562 11.5077C12.9592 11.6243 13.1566 11.7492 13.3559 11.8686C13.4634 11.932 13.5066 12.0247 13.4992 12.1524C13.479 12.5115 13.4193 12.8641 13.2108 13.1672C13.1236 13.293 12.9996 13.4032 12.8747 13.4923C12.5285 13.7347 12.1418 13.8844 11.7304 13.9763C11.3566 14.0598 10.9838 14.0295 10.6256 13.9175C9.93404 13.7044 9.2526 13.4601 8.62535 13.09C8.05595 12.753 7.53798 12.3461 7.05858 11.8915C6.45153 11.3139 5.90969 10.6839 5.47162 9.96661C5.186 9.50099 4.98212 8.99956 4.79753 8.48802C4.68548 8.17944 4.57528 7.87362 4.52568 7.54668C4.46874 7.17657 4.50823 6.82023 4.62671 6.46941C4.73324 6.15257 4.8664 5.8495 5.06753 5.57858C5.22549 5.36827 5.42294 5.21398 5.67825 5.1451C5.88305 5.09092 6.08969 5.04776 6.29541 5C6.32204 5.02112 6.34316 5.02112 6.36429 5.01837Z" fill="white"/>
</svg>
