<svg width="39" height="18" viewBox="0 0 39 18" fill="none" xmlns="http://www.w3.org/2000/svg">
<path d="M7.6155 2.93013C8.1046 2.34142 8.34521 1.58538 8.28634 0.822266C7.53663 0.898921 6.84225 1.25173 6.3383 1.81206C6.09476 2.08474 5.90747 2.40283 5.78717 2.74807C5.66688 3.09331 5.61595 3.45892 5.63731 3.82389C6.01561 3.85012 6.39451 3.78215 6.7401 3.62605C7.08569 3.46995 7.38718 3.23061 7.6176 2.92943L7.6155 2.93013ZM8.28844 4.01526C7.20262 3.95147 6.27661 4.62232 5.76489 4.62232C5.25317 4.62232 4.45545 4.04751 3.59183 4.04751C3.03385 4.06384 2.48982 4.22566 2.01362 4.51693C1.53742 4.80821 1.14558 5.21884 0.876906 5.70815C-0.272714 7.72068 0.554451 10.6901 1.70758 12.3185C2.25014 13.1169 2.92098 14.0113 3.7832 13.9791C4.61387 13.9476 4.93282 13.44 5.92261 13.44C6.91241 13.44 7.19981 13.9826 8.09567 13.9511C8.99153 13.9195 9.56775 13.1526 10.1075 12.3227C10.5024 11.756 10.8035 11.1295 10.9992 10.4672C10.5088 10.2576 10.0859 9.91668 9.77719 9.48194C9.46844 9.0472 9.28585 8.53558 9.24959 8.0036C9.21333 7.47161 9.3248 6.93995 9.57169 6.46733C9.81859 5.99471 10.1913 5.59952 10.6487 5.32541C10.3862 4.93616 10.0354 4.61459 9.62476 4.387C9.21416 4.1594 8.75551 4.03226 8.28634 4.01596" fill="black"/>
<path d="M17.6004 1.74738C18.1292 1.71969 18.6579 1.8029 19.1526 1.99167C19.6474 2.18044 20.0971 2.4706 20.4731 2.84351C20.849 3.21642 21.1428 3.66383 21.3356 4.15702C21.5284 4.6502 21.6159 5.17826 21.5925 5.70726C21.6147 6.24291 21.5245 6.77728 21.3277 7.27595C21.1308 7.77462 20.8318 8.22654 20.4497 8.60261C20.0676 8.97868 19.611 9.27057 19.1093 9.45946C18.6075 9.64836 18.0718 9.73009 17.5366 9.69938H14.9499V13.8191H13.0657V1.74738H17.6004ZM14.9499 8.13478H17.0893C18.7177 8.13478 19.6444 7.24032 19.6444 5.73951C19.6444 4.20645 18.7184 3.34423 17.0893 3.34423H14.9163V8.13478H14.9499ZM22.0713 11.3593C22.0713 9.82626 23.2531 8.86801 25.361 8.74043L27.7864 8.61706V7.94621C27.7864 6.95642 27.1156 6.38161 26.0297 6.38161C25.6178 6.32834 25.2008 6.42933 24.8588 6.66512C24.5169 6.90092 24.2743 7.25486 24.1777 7.65881H22.4533C22.5493 6.06196 23.9254 4.8801 26.0942 4.8801C28.2336 4.8801 29.6069 5.99817 29.6069 7.78639V13.8541H27.8824V12.4171H27.8502C27.574 12.909 27.1699 13.3172 26.6808 13.5983C26.1916 13.8794 25.6356 14.023 25.0715 14.014C23.2854 14.0105 22.0713 12.9246 22.0713 11.36V11.3593ZM27.7864 10.5616V9.86061L25.6133 9.98819C24.5275 10.052 23.9205 10.5308 23.9205 11.2976C23.9205 12.0645 24.5591 12.5748 25.5173 12.5748C25.7995 12.5963 26.0831 12.5609 26.3513 12.4706C26.6195 12.3802 26.8668 12.2369 27.0785 12.0491C27.2902 11.8613 27.462 11.6328 27.5836 11.3773C27.7052 11.1217 27.7742 10.8443 27.7864 10.5616ZM31.2037 17.1081V15.636C31.3941 15.6627 31.5864 15.6735 31.7785 15.6683C32.148 15.6947 32.5139 15.5813 32.8037 15.3506C33.0935 15.1198 33.2861 14.7886 33.3431 14.4226C33.3431 14.3904 33.503 13.8801 33.503 13.8801L30.31 5.06866H32.2587L34.4949 12.2545H34.5271L36.759 5.06866H38.6748L35.3886 14.3652C34.6224 16.5046 33.7602 17.1754 31.9398 17.1754C31.8122 17.1404 31.3614 17.1404 31.2051 17.1081H31.2037Z" fill="black"/>
</svg>
