<svg width="11" height="7" viewBox="0 0 11 7" fill="none" xmlns="http://www.w3.org/2000/svg">
<path d="M1.30765 0.75H9.69265C9.84098 0.750622 9.98579 0.795213 10.1088 0.878135C10.2318 0.961057 10.3274 1.07859 10.3836 1.21586C10.4398 1.35313 10.454 1.50399 10.4245 1.64935C10.3949 1.79471 10.323 1.92804 10.2176 2.0325L6.03265 6.21749C5.96292 6.28779 5.87997 6.34358 5.78858 6.38166C5.69719 6.41974 5.59916 6.43934 5.50015 6.43934C5.40114 6.43934 5.30311 6.41974 5.21171 6.38166C5.12032 6.34358 5.03737 6.28779 4.96765 6.21749L0.782647 2.0325C0.677331 1.92804 0.605352 1.79471 0.575813 1.64935C0.546275 1.50399 0.560501 1.35313 0.616696 1.21586C0.67289 1.07859 0.768527 0.961057 0.891515 0.878135C1.0145 0.795213 1.15932 0.750622 1.30765 0.75Z" fill="black"/>
</svg>
