<svg width="2353" height="982" viewBox="0 0 2353 982" fill="none" xmlns="http://www.w3.org/2000/svg">
<rect width="2353" height="982" fill="#F2F2F2"/>
<mask id="mask0_19_5292" style="mask-type:alpha" maskUnits="userSpaceOnUse" x="0" y="452" width="2353" height="530">
<rect x="-0.793548" y="0.793548" width="2351.41" height="528.413" transform="matrix(-1 0 0 1 2351.41 452)" fill="white" stroke="black" stroke-width="1.5871"/>
</mask>
<g mask="url(#mask0_19_5292)">
<g opacity="0.2">
<path d="M2770 472.764L1707.27 472.764" stroke="#231F20" stroke-width="0.75" stroke-miterlimit="10"/>
<path d="M2770 496.41L1707.27 496.41" stroke="#231F20" stroke-width="0.75" stroke-miterlimit="10"/>
<path d="M2770 520.933L1707.27 520.933" stroke="#231F20" stroke-width="0.75" stroke-miterlimit="10"/>
<path d="M2770 545.455L1707.27 545.455" stroke="#231F20" stroke-width="0.75" stroke-miterlimit="10"/>
<path d="M2770 569.102L1707.27 569.102" stroke="#231F20" stroke-width="0.75" stroke-miterlimit="10"/>
<path d="M2770 593.624L1707.27 593.624" stroke="#231F20" stroke-width="0.75" stroke-miterlimit="10"/>
<path d="M2770 618.146L1707.27 618.146" stroke="#231F20" stroke-width="0.75" stroke-miterlimit="10"/>
<path d="M2770 642.668L1707.27 642.668" stroke="#231F20" stroke-width="0.75" stroke-miterlimit="10"/>
<path d="M2770 666.315L1707.27 666.315" stroke="#231F20" stroke-width="0.75" stroke-miterlimit="10"/>
<path d="M2770 690.837L1707.27 690.837" stroke="#231F20" stroke-width="0.75" stroke-miterlimit="10"/>
<path d="M2770 715.359L1707.27 715.359" stroke="#231F20" stroke-width="0.75" stroke-miterlimit="10"/>
<path d="M2350.95 715.36L2350.95 -933.767" stroke="#231F20" stroke-width="0.75" stroke-miterlimit="10"/>
<path d="M2322.74 715.36L2322.74 -933.767" stroke="#231F20" stroke-width="0.75" stroke-miterlimit="10"/>
<path d="M2294.54 715.36L2294.54 -933.767" stroke="#231F20" stroke-width="0.75" stroke-miterlimit="10"/>
<path d="M2266.33 715.36L2266.33 -933.767" stroke="#231F20" stroke-width="0.75" stroke-miterlimit="10"/>
<path d="M2239.14 715.36L2239.14 -933.767" stroke="#231F20" stroke-width="0.75" stroke-miterlimit="10"/>
<path d="M2210.93 715.36L2210.93 -933.767" stroke="#231F20" stroke-width="0.75" stroke-miterlimit="10"/>
<path d="M2182.72 715.36L2182.72 -933.767" stroke="#231F20" stroke-width="0.75" stroke-miterlimit="10"/>
<path d="M2154.52 715.36L2154.52 -933.767" stroke="#231F20" stroke-width="0.75" stroke-miterlimit="10"/>
<path d="M2126.31 715.36L2126.31 -933.767" stroke="#231F20" stroke-width="0.75" stroke-miterlimit="10"/>
<path d="M2099.12 715.36L2099.12 -933.767" stroke="#231F20" stroke-width="0.75" stroke-miterlimit="10"/>
<path d="M2070.91 715.36L2070.91 -933.767" stroke="#231F20" stroke-width="0.75" stroke-miterlimit="10"/>
<path d="M2042.71 715.36L2042.71 -933.767" stroke="#231F20" stroke-width="0.75" stroke-miterlimit="10"/>
<path d="M2014.5 715.36L2014.5 -933.767" stroke="#231F20" stroke-width="0.75" stroke-miterlimit="10"/>
<path d="M1987.3 715.36L1987.3 -933.767" stroke="#231F20" stroke-width="0.75" stroke-miterlimit="10"/>
<path d="M1959.1 715.36L1959.1 -933.767" stroke="#231F20" stroke-width="0.75" stroke-miterlimit="10"/>
<path d="M1930.89 715.36L1930.89 -933.767" stroke="#231F20" stroke-width="0.75" stroke-miterlimit="10"/>
<path d="M1902.69 715.36L1902.69 -933.767" stroke="#231F20" stroke-width="0.75" stroke-miterlimit="10"/>
<path d="M1875.49 715.36L1875.49 -933.767" stroke="#231F20" stroke-width="0.75" stroke-miterlimit="10"/>
<path d="M1847.28 715.36L1847.28 -933.767" stroke="#231F20" stroke-width="0.75" stroke-miterlimit="10"/>
<path d="M1819.08 715.36L1819.08 -933.767" stroke="#231F20" stroke-width="0.75" stroke-miterlimit="10"/>
<path d="M1790.87 715.36L1790.87 -933.767" stroke="#231F20" stroke-width="0.75" stroke-miterlimit="10"/>
<path d="M1762.67 715.36L1762.67 -933.767" stroke="#231F20" stroke-width="0.75" stroke-miterlimit="10"/>
<path d="M1735.47 715.36L1735.47 -933.767" stroke="#231F20" stroke-width="0.75" stroke-miterlimit="10"/>
<path d="M1707.26 715.36L1707.26 -933.767" stroke="#231F20" stroke-width="0.75" stroke-miterlimit="10"/>
<path d="M2770 739.006L1707.27 739.006" stroke="#231F20" stroke-width="0.75" stroke-miterlimit="10"/>
<path d="M2770 763.528L1707.27 763.528" stroke="#231F20" stroke-width="0.75" stroke-miterlimit="10"/>
<path d="M2770 788.051L1707.27 788.051" stroke="#231F20" stroke-width="0.75" stroke-miterlimit="10"/>
<path d="M2770 811.697L1707.27 811.697" stroke="#231F20" stroke-width="0.75" stroke-miterlimit="10"/>
<path d="M2770 836.22L1707.27 836.22" stroke="#231F20" stroke-width="0.75" stroke-miterlimit="10"/>
<path d="M2770 860.742L1707.27 860.742" stroke="#231F20" stroke-width="0.75" stroke-miterlimit="10"/>
<path d="M2770 885.265L1707.27 885.265" stroke="#231F20" stroke-width="0.75" stroke-miterlimit="10"/>
<path d="M2770 908.911L1707.27 908.911" stroke="#231F20" stroke-width="0.75" stroke-miterlimit="10"/>
<path d="M2770 933.433L1707.27 933.433" stroke="#231F20" stroke-width="0.75" stroke-miterlimit="10"/>
<path d="M2770 957.955L1707.27 957.955" stroke="#231F20" stroke-width="0.75" stroke-miterlimit="10"/>
<path d="M2770 981.602L1707.27 981.602" stroke="#231F20" stroke-width="0.75" stroke-miterlimit="10"/>
<path d="M2350.52 2377.97L2350.52 715.126" stroke="#231F20" stroke-width="0.75" stroke-miterlimit="10"/>
<path d="M2322.55 2377.97L2322.55 715.126" stroke="#231F20" stroke-width="0.75" stroke-miterlimit="10"/>
<path d="M2294.58 2377.97L2294.58 715.126" stroke="#231F20" stroke-width="0.75" stroke-miterlimit="10"/>
<path d="M2266.6 2377.97L2266.6 715.126" stroke="#231F20" stroke-width="0.75" stroke-miterlimit="10"/>
<path d="M2238.63 2377.97L2238.63 715.126" stroke="#231F20" stroke-width="0.75" stroke-miterlimit="10"/>
<path d="M2210.66 2377.97L2210.66 715.126" stroke="#231F20" stroke-width="0.75" stroke-miterlimit="10"/>
<path d="M2182.69 2377.97L2182.69 715.126" stroke="#231F20" stroke-width="0.75" stroke-miterlimit="10"/>
<path d="M2154.72 2377.97L2154.72 715.126" stroke="#231F20" stroke-width="0.75" stroke-miterlimit="10"/>
<path d="M2126.75 2377.97L2126.75 715.126" stroke="#231F20" stroke-width="0.75" stroke-miterlimit="10"/>
<path d="M2098.78 2377.97L2098.78 715.126" stroke="#231F20" stroke-width="0.75" stroke-miterlimit="10"/>
<path d="M2070.8 2377.97L2070.8 715.126" stroke="#231F20" stroke-width="0.75" stroke-miterlimit="10"/>
<path d="M2042.83 2377.97L2042.83 715.126" stroke="#231F20" stroke-width="0.75" stroke-miterlimit="10"/>
<path d="M2014.86 2377.97L2014.86 715.126" stroke="#231F20" stroke-width="0.75" stroke-miterlimit="10"/>
<path d="M1986.89 2377.97L1986.89 715.126" stroke="#231F20" stroke-width="0.75" stroke-miterlimit="10"/>
<path d="M1958.92 2377.97L1958.92 715.126" stroke="#231F20" stroke-width="0.75" stroke-miterlimit="10"/>
<path d="M1930.95 2377.97L1930.95 715.126" stroke="#231F20" stroke-width="0.75" stroke-miterlimit="10"/>
<path d="M1902.98 2377.97L1902.98 715.126" stroke="#231F20" stroke-width="0.75" stroke-miterlimit="10"/>
<path d="M1875 2377.97L1875 715.126" stroke="#231F20" stroke-width="0.75" stroke-miterlimit="10"/>
<path d="M1847.03 2377.97L1847.03 715.126" stroke="#231F20" stroke-width="0.75" stroke-miterlimit="10"/>
<path d="M1819.06 2377.97L1819.06 715.126" stroke="#231F20" stroke-width="0.75" stroke-miterlimit="10"/>
<path d="M1791.09 2377.97L1791.09 715.126" stroke="#231F20" stroke-width="0.75" stroke-miterlimit="10"/>
<path d="M1763.12 2377.97L1763.12 715.126" stroke="#231F20" stroke-width="0.75" stroke-miterlimit="10"/>
<path d="M1735.15 2377.97L1735.15 715.126" stroke="#231F20" stroke-width="0.75" stroke-miterlimit="10"/>
<path d="M1707.18 2377.97L1707.18 715.126" stroke="#231F20" stroke-width="0.75" stroke-miterlimit="10"/>
<path d="M1707.26 472.764L644.529 472.764" stroke="#231F20" stroke-width="0.75" stroke-miterlimit="10"/>
<path d="M1707.26 496.41L644.529 496.41" stroke="#231F20" stroke-width="0.75" stroke-miterlimit="10"/>
<path d="M1707.26 520.933L644.529 520.933" stroke="#231F20" stroke-width="0.75" stroke-miterlimit="10"/>
<path d="M1707.26 545.455L644.529 545.455" stroke="#231F20" stroke-width="0.75" stroke-miterlimit="10"/>
<path d="M1707.26 569.102L644.529 569.102" stroke="#231F20" stroke-width="0.75" stroke-miterlimit="10"/>
<path d="M1707.26 593.624L644.529 593.624" stroke="#231F20" stroke-width="0.75" stroke-miterlimit="10"/>
<path d="M1707.26 618.146L644.529 618.146" stroke="#231F20" stroke-width="0.75" stroke-miterlimit="10"/>
<path d="M1707.26 642.668L644.529 642.668" stroke="#231F20" stroke-width="0.75" stroke-miterlimit="10"/>
<path d="M1707.26 666.315L644.529 666.315" stroke="#231F20" stroke-width="0.75" stroke-miterlimit="10"/>
<path d="M1707.26 690.837L644.529 690.837" stroke="#231F20" stroke-width="0.75" stroke-miterlimit="10"/>
<path d="M1707.26 715.359L644.529 715.359" stroke="#231F20" stroke-width="0.75" stroke-miterlimit="10"/>
<path d="M1679.06 715.36L1679.06 -933.767" stroke="#231F20" stroke-width="0.75" stroke-miterlimit="10"/>
<path d="M1651.86 715.36L1651.86 -933.767" stroke="#231F20" stroke-width="0.75" stroke-miterlimit="10"/>
<path d="M1623.65 715.36L1623.65 -933.767" stroke="#231F20" stroke-width="0.75" stroke-miterlimit="10"/>
<path d="M1595.45 715.36L1595.45 -933.767" stroke="#231F20" stroke-width="0.75" stroke-miterlimit="10"/>
<path d="M1567.24 715.36L1567.24 -933.767" stroke="#231F20" stroke-width="0.75" stroke-miterlimit="10"/>
<path d="M1539.04 715.36L1539.04 -933.767" stroke="#231F20" stroke-width="0.75" stroke-miterlimit="10"/>
<path d="M1511.84 715.36L1511.84 -933.767" stroke="#231F20" stroke-width="0.75" stroke-miterlimit="10"/>
<path d="M1483.63 715.36L1483.63 -933.767" stroke="#231F20" stroke-width="0.75" stroke-miterlimit="10"/>
<path d="M1455.43 715.36L1455.43 -933.767" stroke="#231F20" stroke-width="0.75" stroke-miterlimit="10"/>
<path d="M1427.22 715.36L1427.22 -933.767" stroke="#231F20" stroke-width="0.75" stroke-miterlimit="10"/>
<path d="M1400.03 715.36L1400.03 -933.767" stroke="#231F20" stroke-width="0.75" stroke-miterlimit="10"/>
<path d="M1371.82 715.36L1371.82 -933.767" stroke="#231F20" stroke-width="0.75" stroke-miterlimit="10"/>
<path d="M1343.62 715.36L1343.62 -933.767" stroke="#231F20" stroke-width="0.75" stroke-miterlimit="10"/>
<path d="M1315.41 715.36L1315.41 -933.767" stroke="#231F20" stroke-width="0.75" stroke-miterlimit="10"/>
<path d="M1288.21 715.36L1288.21 -933.767" stroke="#231F20" stroke-width="0.75" stroke-miterlimit="10"/>
<path d="M1260.01 715.36L1260.01 -933.767" stroke="#231F20" stroke-width="0.75" stroke-miterlimit="10"/>
<path d="M1231.8 715.36L1231.8 -933.767" stroke="#231F20" stroke-width="0.75" stroke-miterlimit="10"/>
<path d="M1203.6 715.36L1203.6 -933.767" stroke="#231F20" stroke-width="0.75" stroke-miterlimit="10"/>
<path d="M1176.4 715.36L1176.4 -933.767" stroke="#231F20" stroke-width="0.75" stroke-miterlimit="10"/>
<path d="M1148.19 715.36L1148.19 -933.767" stroke="#231F20" stroke-width="0.75" stroke-miterlimit="10"/>
<path d="M1119.99 715.36L1119.99 -933.767" stroke="#231F20" stroke-width="0.75" stroke-miterlimit="10"/>
<path d="M1091.78 715.36L1091.78 -933.767" stroke="#231F20" stroke-width="0.75" stroke-miterlimit="10"/>
<path d="M1063.58 715.36L1063.58 -933.767" stroke="#231F20" stroke-width="0.75" stroke-miterlimit="10"/>
<path d="M1036.38 715.36L1036.38 -933.767" stroke="#231F20" stroke-width="0.75" stroke-miterlimit="10"/>
<path d="M1008.17 716.86L1008.17 -932.267" stroke="#231F20" stroke-width="0.75" stroke-miterlimit="10"/>
<path d="M979.969 715.36L979.969 -933.767" stroke="#231F20" stroke-width="0.75" stroke-miterlimit="10"/>
<path d="M951.764 715.36L951.764 -933.767" stroke="#231F20" stroke-width="0.75" stroke-miterlimit="10"/>
<path d="M924.565 715.36L924.564 -933.767" stroke="#231F20" stroke-width="0.75" stroke-miterlimit="10"/>
<path d="M896.359 715.36L896.359 -933.767" stroke="#231F20" stroke-width="0.75" stroke-miterlimit="10"/>
<path d="M868.154 715.36L868.154 -933.767" stroke="#231F20" stroke-width="0.75" stroke-miterlimit="10"/>
<path d="M839.949 715.36L839.949 -933.767" stroke="#231F20" stroke-width="0.75" stroke-miterlimit="10"/>
<path d="M812.752 715.359L812.752 -933.767" stroke="#231F20" stroke-width="0.75" stroke-miterlimit="10"/>
<path d="M784.547 715.36L784.547 -933.767" stroke="#231F20" stroke-width="0.75" stroke-miterlimit="10"/>
<path d="M756.34 715.36L756.34 -933.767" stroke="#231F20" stroke-width="0.75" stroke-miterlimit="10"/>
<path d="M728.135 715.36L728.135 -933.767" stroke="#231F20" stroke-width="0.75" stroke-miterlimit="10"/>
<path d="M699.93 715.36L699.93 -933.767" stroke="#231F20" stroke-width="0.75" stroke-miterlimit="10"/>
<path d="M672.733 715.36L672.732 -933.767" stroke="#231F20" stroke-width="0.75" stroke-miterlimit="10"/>
<path d="M644.527 715.36L644.527 -933.767" stroke="#231F20" stroke-width="0.75" stroke-miterlimit="10"/>
<path d="M1707.26 739.006L644.529 739.006" stroke="#231F20" stroke-width="0.75" stroke-miterlimit="10"/>
<path d="M1707.26 763.528L644.529 763.528" stroke="#231F20" stroke-width="0.75" stroke-miterlimit="10"/>
<path d="M1707.26 788.051L644.529 788.051" stroke="#231F20" stroke-width="0.75" stroke-miterlimit="10"/>
<path d="M1707.26 811.697L644.529 811.697" stroke="#231F20" stroke-width="0.75" stroke-miterlimit="10"/>
<path d="M1707.26 836.22L644.529 836.22" stroke="#231F20" stroke-width="0.75" stroke-miterlimit="10"/>
<path d="M1707.26 860.742L644.529 860.742" stroke="#231F20" stroke-width="0.75" stroke-miterlimit="10"/>
<path d="M1707.26 885.265L644.529 885.265" stroke="#231F20" stroke-width="0.75" stroke-miterlimit="10"/>
<path d="M1707.26 908.911L644.529 908.911" stroke="#231F20" stroke-width="0.75" stroke-miterlimit="10"/>
<path d="M1707.26 933.433L644.529 933.433" stroke="#231F20" stroke-width="0.75" stroke-miterlimit="10"/>
<path d="M1707.26 957.955L644.529 957.955" stroke="#231F20" stroke-width="0.75" stroke-miterlimit="10"/>
<path d="M1707.26 981.602L644.529 981.602" stroke="#231F20" stroke-width="0.75" stroke-miterlimit="10"/>
<path d="M1679.38 2377.97L1679.38 715.126" stroke="#231F20" stroke-width="0.75" stroke-miterlimit="10"/>
<path d="M1651.41 2377.97L1651.41 715.126" stroke="#231F20" stroke-width="0.75" stroke-miterlimit="10"/>
<path d="M1623.44 2377.97L1623.44 715.126" stroke="#231F20" stroke-width="0.75" stroke-miterlimit="10"/>
<path d="M1595.46 2377.97L1595.46 715.126" stroke="#231F20" stroke-width="0.75" stroke-miterlimit="10"/>
<path d="M1567.49 2377.97L1567.49 715.126" stroke="#231F20" stroke-width="0.75" stroke-miterlimit="10"/>
<path d="M1539.52 2377.97L1539.52 715.126" stroke="#231F20" stroke-width="0.75" stroke-miterlimit="10"/>
<path d="M1511.55 2377.97L1511.55 715.126" stroke="#231F20" stroke-width="0.75" stroke-miterlimit="10"/>
<path d="M1483.58 2377.97L1483.58 715.126" stroke="#231F20" stroke-width="0.75" stroke-miterlimit="10"/>
<path d="M1455.61 2377.97L1455.61 715.126" stroke="#231F20" stroke-width="0.75" stroke-miterlimit="10"/>
<path d="M1427.64 2377.97L1427.64 715.126" stroke="#231F20" stroke-width="0.75" stroke-miterlimit="10"/>
<path d="M1399.67 2377.97L1399.67 715.126" stroke="#231F20" stroke-width="0.75" stroke-miterlimit="10"/>
<path d="M1371.7 2377.97L1371.7 715.126" stroke="#231F20" stroke-width="0.75" stroke-miterlimit="10"/>
<path d="M1343.72 2377.97L1343.72 715.126" stroke="#231F20" stroke-width="0.75" stroke-miterlimit="10"/>
<path d="M1315.75 2377.97L1315.75 715.126" stroke="#231F20" stroke-width="0.75" stroke-miterlimit="10"/>
<path d="M1287.78 2377.97L1287.78 715.126" stroke="#231F20" stroke-width="0.75" stroke-miterlimit="10"/>
<path d="M1259.81 2377.97L1259.81 715.126" stroke="#231F20" stroke-width="0.75" stroke-miterlimit="10"/>
<path d="M1231.84 2377.97L1231.84 715.126" stroke="#231F20" stroke-width="0.75" stroke-miterlimit="10"/>
<path d="M1203.87 2377.97L1203.87 715.126" stroke="#231F20" stroke-width="0.75" stroke-miterlimit="10"/>
<path d="M1175.89 2377.97L1175.89 715.126" stroke="#231F20" stroke-width="0.75" stroke-miterlimit="10"/>
<path d="M1147.92 2377.97L1147.92 715.126" stroke="#231F20" stroke-width="0.75" stroke-miterlimit="10"/>
<path d="M1119.95 2377.97L1119.95 715.126" stroke="#231F20" stroke-width="0.75" stroke-miterlimit="10"/>
<path d="M1091.98 2377.97L1091.98 715.126" stroke="#231F20" stroke-width="0.75" stroke-miterlimit="10"/>
<path d="M1064.01 2377.97L1064.01 715.126" stroke="#231F20" stroke-width="0.75" stroke-miterlimit="10"/>
<path d="M1036.04 2377.97L1036.04 715.126" stroke="#231F20" stroke-width="0.75" stroke-miterlimit="10"/>
<path d="M1008.07 2377.97L1008.07 715.126" stroke="#231F20" stroke-width="0.75" stroke-miterlimit="10"/>
<path d="M980.096 2377.97L980.096 715.126" stroke="#231F20" stroke-width="0.75" stroke-miterlimit="10"/>
<path d="M952.125 2377.97L952.125 715.126" stroke="#231F20" stroke-width="0.75" stroke-miterlimit="10"/>
<path d="M924.152 2377.97L924.152 715.126" stroke="#231F20" stroke-width="0.75" stroke-miterlimit="10"/>
<path d="M896.182 2377.97L896.182 715.126" stroke="#231F20" stroke-width="0.75" stroke-miterlimit="10"/>
<path d="M868.211 2377.97L868.211 715.126" stroke="#231F20" stroke-width="0.75" stroke-miterlimit="10"/>
<path d="M840.238 2377.97L840.238 715.126" stroke="#231F20" stroke-width="0.75" stroke-miterlimit="10"/>
<path d="M812.268 2377.97L812.268 715.126" stroke="#231F20" stroke-width="0.75" stroke-miterlimit="10"/>
<path d="M784.297 2377.97L784.297 715.126" stroke="#231F20" stroke-width="0.75" stroke-miterlimit="10"/>
<path d="M756.326 2377.97L756.326 715.126" stroke="#231F20" stroke-width="0.75" stroke-miterlimit="10"/>
<path d="M728.354 2377.97L728.354 715.126" stroke="#231F20" stroke-width="0.75" stroke-miterlimit="10"/>
<path d="M700.383 2377.97L700.383 715.126" stroke="#231F20" stroke-width="0.75" stroke-miterlimit="10"/>
<path d="M672.412 2377.97L672.412 715.126" stroke="#231F20" stroke-width="0.75" stroke-miterlimit="10"/>
<path d="M644.44 2377.97L644.439 715.126" stroke="#231F20" stroke-width="0.75" stroke-miterlimit="10"/>
<path d="M644.524 472.764L-418.207 472.764" stroke="#231F20" stroke-width="0.75" stroke-miterlimit="10"/>
<path d="M644.524 496.41L-418.207 496.41" stroke="#231F20" stroke-width="0.75" stroke-miterlimit="10"/>
<path d="M644.524 520.933L-418.207 520.933" stroke="#231F20" stroke-width="0.75" stroke-miterlimit="10"/>
<path d="M644.524 545.455L-418.207 545.455" stroke="#231F20" stroke-width="0.75" stroke-miterlimit="10"/>
<path d="M644.524 569.102L-418.207 569.102" stroke="#231F20" stroke-width="0.75" stroke-miterlimit="10"/>
<path d="M644.524 593.624L-418.207 593.624" stroke="#231F20" stroke-width="0.75" stroke-miterlimit="10"/>
<path d="M644.524 618.146L-418.207 618.146" stroke="#231F20" stroke-width="0.75" stroke-miterlimit="10"/>
<path d="M644.524 642.668L-418.207 642.668" stroke="#231F20" stroke-width="0.75" stroke-miterlimit="10"/>
<path d="M644.524 666.315L-418.207 666.315" stroke="#231F20" stroke-width="0.75" stroke-miterlimit="10"/>
<path d="M644.524 690.837L-418.207 690.837" stroke="#231F20" stroke-width="0.75" stroke-miterlimit="10"/>
<path d="M644.524 715.359L-418.207 715.359" stroke="#231F20" stroke-width="0.75" stroke-miterlimit="10"/>
<path d="M616.32 715.36L616.32 -933.767" stroke="#231F20" stroke-width="0.75" stroke-miterlimit="10"/>
<path d="M589.123 715.36L589.123 -933.767" stroke="#231F20" stroke-width="0.75" stroke-miterlimit="10"/>
<path d="M560.918 715.36L560.918 -933.767" stroke="#231F20" stroke-width="0.75" stroke-miterlimit="10"/>
<path d="M532.713 715.36L532.713 -933.767" stroke="#231F20" stroke-width="0.75" stroke-miterlimit="10"/>
<path d="M504.508 715.36L504.508 -933.767" stroke="#231F20" stroke-width="0.75" stroke-miterlimit="10"/>
<path d="M476.303 715.36L476.303 -933.767" stroke="#231F20" stroke-width="0.75" stroke-miterlimit="10"/>
<path d="M449.104 715.36L449.104 -933.767" stroke="#231F20" stroke-width="0.75" stroke-miterlimit="10"/>
<path d="M420.899 715.36L420.898 -933.767" stroke="#231F20" stroke-width="0.75" stroke-miterlimit="10"/>
<path d="M392.693 715.36L392.693 -933.767" stroke="#231F20" stroke-width="0.75" stroke-miterlimit="10"/>
<path d="M364.488 715.36L364.488 -933.767" stroke="#231F20" stroke-width="0.75" stroke-miterlimit="10"/>
<path d="M337.289 715.36L337.289 -933.767" stroke="#231F20" stroke-width="0.75" stroke-miterlimit="10"/>
<path d="M309.084 715.36L309.084 -933.767" stroke="#231F20" stroke-width="0.75" stroke-miterlimit="10"/>
<path d="M280.879 715.36L280.879 -933.767" stroke="#231F20" stroke-width="0.75" stroke-miterlimit="10"/>
<path d="M252.674 715.36L252.674 -933.767" stroke="#231F20" stroke-width="0.75" stroke-miterlimit="10"/>
<path d="M225.045 728.847L225.045 -934" stroke="#231F20" stroke-width="0.75" stroke-miterlimit="10"/>
<path d="M197.072 728.847L197.072 -934" stroke="#231F20" stroke-width="0.75" stroke-miterlimit="10"/>
<path d="M169.102 728.847L169.102 -934" stroke="#231F20" stroke-width="0.75" stroke-miterlimit="10"/>
<path d="M141.131 728.847L141.131 -934" stroke="#231F20" stroke-width="0.75" stroke-miterlimit="10"/>
<path d="M113.158 728.847L113.158 -934" stroke="#231F20" stroke-width="0.75" stroke-miterlimit="10"/>
<path d="M85.1876 728.847L85.1875 -934" stroke="#231F20" stroke-width="0.75" stroke-miterlimit="10"/>
<path d="M57.2169 728.847L57.2168 -934" stroke="#231F20" stroke-width="0.75" stroke-miterlimit="10"/>
<path d="M29.2442 728.847L29.2441 -934" stroke="#231F20" stroke-width="0.75" stroke-miterlimit="10"/>
<path d="M1.27351 728.847L1.27344 -934" stroke="#231F20" stroke-width="0.75" stroke-miterlimit="10"/>
<path d="M644.524 739.006L-418.207 739.006" stroke="#231F20" stroke-width="0.75" stroke-miterlimit="10"/>
<path d="M644.524 763.528L-418.207 763.528" stroke="#231F20" stroke-width="0.75" stroke-miterlimit="10"/>
<path d="M644.524 788.051L-418.207 788.051" stroke="#231F20" stroke-width="0.75" stroke-miterlimit="10"/>
<path d="M644.524 811.697L-418.207 811.697" stroke="#231F20" stroke-width="0.75" stroke-miterlimit="10"/>
<path d="M644.524 836.22L-418.207 836.22" stroke="#231F20" stroke-width="0.75" stroke-miterlimit="10"/>
<path d="M644.524 860.742L-418.207 860.742" stroke="#231F20" stroke-width="0.75" stroke-miterlimit="10"/>
<path d="M644.524 885.265L-418.207 885.265" stroke="#231F20" stroke-width="0.75" stroke-miterlimit="10"/>
<path d="M644.524 908.911L-418.207 908.911" stroke="#231F20" stroke-width="0.75" stroke-miterlimit="10"/>
<path d="M644.524 933.433L-418.207 933.433" stroke="#231F20" stroke-width="0.75" stroke-miterlimit="10"/>
<path d="M644.524 957.955L-418.207 957.955" stroke="#231F20" stroke-width="0.75" stroke-miterlimit="10"/>
<path d="M644.524 981.602L-418.207 981.602" stroke="#231F20" stroke-width="0.75" stroke-miterlimit="10"/>
<path d="M616.643 2377.97L616.643 715.126" stroke="#231F20" stroke-width="0.75" stroke-miterlimit="10"/>
<path d="M588.672 2377.97L588.672 715.126" stroke="#231F20" stroke-width="0.75" stroke-miterlimit="10"/>
<path d="M560.699 2377.97L560.699 715.126" stroke="#231F20" stroke-width="0.75" stroke-miterlimit="10"/>
<path d="M532.729 2377.97L532.729 715.126" stroke="#231F20" stroke-width="0.75" stroke-miterlimit="10"/>
<path d="M504.758 2377.97L504.758 715.126" stroke="#231F20" stroke-width="0.75" stroke-miterlimit="10"/>
<path d="M476.785 2377.97L476.785 715.126" stroke="#231F20" stroke-width="0.75" stroke-miterlimit="10"/>
<path d="M448.815 2377.97L448.814 715.126" stroke="#231F20" stroke-width="0.75" stroke-miterlimit="10"/>
<path d="M420.844 2377.97L420.844 715.126" stroke="#231F20" stroke-width="0.75" stroke-miterlimit="10"/>
<path d="M392.873 2377.97L392.873 715.126" stroke="#231F20" stroke-width="0.75" stroke-miterlimit="10"/>
<path d="M364.9 2377.97L364.9 715.126" stroke="#231F20" stroke-width="0.75" stroke-miterlimit="10"/>
<path d="M336.93 2377.97L336.93 715.126" stroke="#231F20" stroke-width="0.75" stroke-miterlimit="10"/>
<path d="M308.957 2377.97L308.957 715.126" stroke="#231F20" stroke-width="0.75" stroke-miterlimit="10"/>
<path d="M280.986 2377.97L280.986 715.126" stroke="#231F20" stroke-width="0.75" stroke-miterlimit="10"/>
<path d="M253.016 2377.97L253.016 715.126" stroke="#231F20" stroke-width="0.75" stroke-miterlimit="10"/>
<path d="M225.045 2377.97L225.045 715.126" stroke="#231F20" stroke-width="0.75" stroke-miterlimit="10"/>
<path d="M197.072 2377.97L197.072 715.126" stroke="#231F20" stroke-width="0.75" stroke-miterlimit="10"/>
<path d="M169.102 2377.97L169.102 715.126" stroke="#231F20" stroke-width="0.75" stroke-miterlimit="10"/>
<path d="M141.131 2377.97L141.131 715.126" stroke="#231F20" stroke-width="0.75" stroke-miterlimit="10"/>
<path d="M113.158 2377.97L113.158 715.126" stroke="#231F20" stroke-width="0.75" stroke-miterlimit="10"/>
<path d="M85.1876 2377.97L85.1875 715.126" stroke="#231F20" stroke-width="0.75" stroke-miterlimit="10"/>
<path d="M57.2169 2377.97L57.2168 715.126" stroke="#231F20" stroke-width="0.75" stroke-miterlimit="10"/>
<path d="M29.2442 2377.97L29.2441 715.126" stroke="#231F20" stroke-width="0.75" stroke-miterlimit="10"/>
<path d="M1.27352 2377.97L1.27344 715.126" stroke="#231F20" stroke-width="0.75" stroke-miterlimit="10"/>
</g>
</g>
</svg>
