<svg width="13" height="13" viewBox="0 0 13 13" fill="none" xmlns="http://www.w3.org/2000/svg">
<mask id="mask0_11_1793" style="mask-type:luminance" maskUnits="userSpaceOnUse" x="0" y="0" width="13" height="13">
<path d="M12.5 0.5H0.5V12.5H12.5V0.5Z" fill="white"/>
</mask>
<g mask="url(#mask0_11_1793)">
<path d="M10.4761 12.4988H2.52613C2.18113 12.4988 1.84113 12.4138 1.53613 12.2488C1.23613 12.0838 0.981129 11.8388 0.796129 11.5438C0.616129 11.2588 0.516129 10.9288 0.496129 10.5888C0.481129 10.2488 0.551129 9.91377 0.701129 9.61377L4.68113 2.60377C4.85113 2.26877 5.11113 1.98877 5.43613 1.79377C5.75613 1.59877 6.12613 1.49377 6.50113 1.49877C6.87613 1.49877 7.24613 1.60377 7.56613 1.80377C7.88613 1.99877 8.14613 2.28377 8.31113 2.61877L12.2711 9.58877C12.4261 9.89377 12.5011 10.2338 12.4911 10.5788C12.4761 10.9238 12.3761 11.2538 12.1961 11.5438C12.0161 11.8388 11.7611 12.0788 11.4561 12.2488C11.1561 12.4138 10.8161 12.5038 10.4661 12.4988H10.4761ZM6.50113 2.49877C6.31113 2.49877 6.12113 2.54877 5.95613 2.64877C5.79113 2.74877 5.66113 2.89377 5.57613 3.06377L5.56113 3.08877L1.58613 10.0838C1.51613 10.2338 1.48113 10.3938 1.49613 10.5588C1.50613 10.7238 1.55613 10.8788 1.64613 11.0188C1.73613 11.1688 1.86613 11.2888 2.02113 11.3738C2.17613 11.4588 2.34613 11.5038 2.52113 11.4988H10.4711C10.6461 11.4988 10.8211 11.4588 10.9711 11.3738C11.1261 11.2888 11.2561 11.1688 11.3461 11.0188C11.4361 10.8788 11.4861 10.7138 11.4961 10.5438C11.5061 10.3738 11.4661 10.2088 11.3911 10.0588L7.42613 3.08877C7.34113 2.90877 7.21113 2.76377 7.04613 2.65877C6.88113 2.55377 6.68613 2.49877 6.49113 2.50377L6.50113 2.49877Z" fill="#C12920"/>
</g>
<path d="M6.49719 9.55334C6.39719 9.55334 6.30219 9.58334 6.21719 9.63834C6.13719 9.69334 6.07219 9.77334 6.03219 9.86334C5.99219 9.95334 5.98219 10.0533 6.00219 10.1533C6.02219 10.2483 6.06719 10.3383 6.13719 10.4083C6.20719 10.4783 6.29719 10.5283 6.39219 10.5433C6.48719 10.5633 6.59219 10.5533 6.68219 10.5133C6.77219 10.4733 6.85219 10.4133 6.90719 10.3283C6.96219 10.2483 6.99219 10.1483 6.99219 10.0483C6.99219 9.91334 6.93719 9.78834 6.84719 9.69334C6.75219 9.59834 6.62719 9.54834 6.49219 9.54834L6.49719 9.55334Z" fill="#C12920"/>
<path d="M6.49805 3.98376C6.36305 3.98376 6.23805 4.03876 6.14305 4.12876C6.04805 4.22376 5.99805 4.34876 5.99805 4.48376V8.48376C5.99805 8.61876 6.05305 8.74377 6.14305 8.83877C6.23805 8.93376 6.36305 8.98376 6.49805 8.98376C6.63305 8.98376 6.75805 8.92877 6.85305 8.83877C6.94805 8.74377 6.99805 8.61876 6.99805 8.48376V4.48376C6.99805 4.34876 6.94305 4.22376 6.85305 4.12876C6.75805 4.03376 6.63305 3.98376 6.49805 3.98376Z" fill="#C12920"/>
</svg>
