<svg width="463" height="308" viewBox="0 0 463 308" fill="none" xmlns="http://www.w3.org/2000/svg">
<rect x="1.87351" y="1.37351" width="459.253" height="305.253" rx="14.0265" fill="#F5F5F5"/>
<rect x="1.87351" y="1.37351" width="459.253" height="305.253" rx="14.0265" stroke="#EEEEEE" stroke-width="2.74703"/>
<g clip-path="url(#clip0_19_15595)">
<path d="M271.476 83.6328H191.524C183.954 83.6419 176.696 86.6532 171.343 92.0061C165.99 97.3591 162.979 104.617 162.97 112.187V192.139C162.979 199.709 165.99 206.966 171.343 212.319C176.696 217.672 183.954 220.684 191.524 220.693H271.476C279.046 220.684 286.303 217.672 291.656 212.319C297.009 206.966 300.021 199.709 300.03 192.139V112.187C300.021 104.617 297.009 97.3591 291.656 92.0061C286.303 86.6532 279.046 83.6419 271.476 83.6328V83.6328ZM191.524 95.0545H271.476C276.019 95.0545 280.377 96.8595 283.59 100.072C286.803 103.285 288.608 107.643 288.608 112.187V192.139C288.598 194.683 288.012 197.192 286.895 199.477L234.566 147.149C231.915 144.496 228.767 142.392 225.302 140.957C221.837 139.522 218.123 138.783 214.373 138.783C210.623 138.783 206.909 139.522 203.444 140.957C199.979 142.392 196.831 144.496 194.179 147.149L174.391 166.931V112.187C174.391 107.643 176.196 103.285 179.409 100.072C182.622 96.8595 186.98 95.0545 191.524 95.0545V95.0545ZM191.524 209.271C186.98 209.271 182.622 207.466 179.409 204.253C176.196 201.04 174.391 196.682 174.391 192.139V183.081L202.249 155.224C203.84 153.632 205.729 152.369 207.808 151.507C209.888 150.645 212.116 150.202 214.367 150.202C216.618 150.202 218.847 150.645 220.926 151.507C223.005 152.369 224.895 153.632 226.486 155.224L278.814 207.558C276.529 208.676 274.02 209.261 271.476 209.271H191.524Z" fill="black" fill-opacity="0.05"/>
<path d="M254.344 143.594C258.297 143.594 262.162 142.422 265.449 140.225C268.736 138.029 271.297 134.907 272.81 131.255C274.323 127.603 274.719 123.584 273.948 119.707C273.177 115.829 271.273 112.268 268.477 109.473C265.682 106.677 262.121 104.773 258.243 104.002C254.366 103.231 250.347 103.627 246.695 105.14C243.043 106.653 239.921 109.214 237.725 112.501C235.528 115.788 234.356 119.653 234.356 123.606C234.356 128.907 236.462 133.991 240.21 137.74C243.959 141.488 249.043 143.594 254.344 143.594V143.594ZM254.344 115.04C256.038 115.04 257.694 115.542 259.103 116.484C260.512 117.425 261.61 118.763 262.258 120.328C262.906 121.893 263.076 123.616 262.746 125.277C262.415 126.939 261.599 128.465 260.401 129.663C259.203 130.861 257.677 131.677 256.015 132.008C254.353 132.338 252.631 132.169 251.066 131.52C249.5 130.872 248.163 129.774 247.221 128.365C246.28 126.957 245.778 125.3 245.778 123.606C245.778 121.334 246.68 119.155 248.287 117.549C249.893 115.942 252.072 115.04 254.344 115.04V115.04Z" fill="black" fill-opacity="0.05"/>
</g>
<defs>
<clipPath id="clip0_19_15595">
<rect width="137.06" height="137.06" fill="white" transform="translate(162.97 83.6328)"/>
</clipPath>
</defs>
</svg>
