<svg width="25" height="24" viewBox="0 0 25 24" fill="none" xmlns="http://www.w3.org/2000/svg">
<g clip-path="url(#clip0_11_1777)">
<path d="M23.62 9.91002L19.75 6.00002C19.657 5.90629 19.5464 5.8319 19.4246 5.78113C19.3027 5.73036 19.172 5.70422 19.04 5.70422C18.908 5.70422 18.7773 5.73036 18.6554 5.78113C18.5336 5.8319 18.423 5.90629 18.33 6.00002V6.00002C18.1437 6.18738 18.0392 6.44084 18.0392 6.70502C18.0392 6.96921 18.1437 7.22266 18.33 7.41002L21.89 11H1.5C1.23478 11 0.98043 11.1054 0.792893 11.2929C0.605357 11.4805 0.5 11.7348 0.5 12H0.5C0.5 12.2652 0.605357 12.5196 0.792893 12.7071C0.98043 12.8947 1.23478 13 1.5 13H21.95L18.33 16.61C18.2363 16.703 18.1619 16.8136 18.1111 16.9354C18.0603 17.0573 18.0342 17.188 18.0342 17.32C18.0342 17.452 18.0603 17.5827 18.1111 17.7046C18.1619 17.8265 18.2363 17.9371 18.33 18.03C18.423 18.1238 18.5336 18.1981 18.6554 18.2489C18.7773 18.2997 18.908 18.3258 19.04 18.3258C19.172 18.3258 19.3027 18.2997 19.4246 18.2489C19.5464 18.1981 19.657 18.1238 19.75 18.03L23.62 14.15C24.1818 13.5875 24.4974 12.825 24.4974 12.03C24.4974 11.235 24.1818 10.4725 23.62 9.91002V9.91002Z" fill="#005B52"/>
</g>
<defs>
<clipPath id="clip0_11_1777">
<rect width="24" height="24" fill="white" transform="translate(0.5)"/>
</clipPath>
</defs>
</svg>
