<svg width="41" height="18" viewBox="0 0 41 18" fill="none" xmlns="http://www.w3.org/2000/svg">
<path d="M19.1615 9.78369V14.4375H17.6846V2.94531H21.5999C22.5922 2.94531 23.4383 3.27608 24.1306 3.93761C24.8383 4.59914 25.1922 5.40682 25.1922 6.36066C25.1922 7.33757 24.8383 8.14525 24.1306 8.79909C23.446 9.45293 22.5999 9.776 21.5999 9.776H19.1615V9.78369ZM19.1615 4.36068V8.36832H21.6307C22.2153 8.36832 22.7076 8.16833 23.0922 7.77602C23.4845 7.38372 23.6845 6.9068 23.6845 6.36835C23.6845 5.83758 23.4845 5.36836 23.0922 4.97606C22.7076 4.56837 22.223 4.36837 21.6307 4.36837H19.1615V4.36068Z" fill="black"/>
<path d="M29.0535 6.31445C30.1458 6.31445 31.0074 6.60676 31.6381 7.19137C32.2689 7.77597 32.5843 8.57596 32.5843 9.59134V14.4374H31.1766V13.3451H31.115C30.5074 14.2451 29.692 14.6913 28.6766 14.6913C27.8074 14.6913 27.0843 14.4374 26.4997 13.9221C25.9151 13.4067 25.6228 12.7682 25.6228 11.999C25.6228 11.1836 25.9305 10.5375 26.5459 10.0606C27.1612 9.57595 27.9843 9.33749 29.0074 9.33749C29.8843 9.33749 30.6074 9.49903 31.1689 9.8221V9.48364C31.1689 8.96827 30.9689 8.5375 30.5612 8.17597C30.1535 7.81443 29.6766 7.63751 29.1305 7.63751C28.3074 7.63751 27.6535 7.98366 27.1766 8.68365L25.8766 7.86828C26.592 6.82983 27.6535 6.31445 29.0535 6.31445ZM27.1459 12.0221C27.1459 12.4067 27.3074 12.7298 27.6382 12.9836C27.9612 13.2374 28.3458 13.3682 28.7843 13.3682C29.4074 13.3682 29.9612 13.1374 30.4458 12.6759C30.9304 12.2144 31.1766 11.6759 31.1766 11.0529C30.715 10.6913 30.0766 10.5067 29.2535 10.5067C28.6535 10.5067 28.1535 10.6529 27.7535 10.9375C27.3459 11.2375 27.1459 11.599 27.1459 12.0221Z" fill="black"/>
<path d="M40.6151 6.56836L35.6921 17.8913H34.169L35.9998 13.9298L32.7537 6.56836H34.3613L36.6998 12.2144H36.7305L39.0074 6.56836H40.6151Z" fill="black"/>
<path d="M13.2874 8.84631C13.2874 8.36477 13.2443 7.90401 13.1643 7.46094H6.97363V9.99937L10.539 10.0001C10.3944 10.8447 9.92898 11.5647 9.21591 12.0447V13.6916H11.3382C12.5774 12.5447 13.2874 10.8494 13.2874 8.84631Z" fill="#4285F4"/>
<path d="M9.21661 12.0435C8.62585 12.442 7.86509 12.675 6.9751 12.675C5.25589 12.675 3.79744 11.5166 3.27514 9.95508H1.08594V11.6535C2.17054 13.8058 4.39974 15.2827 6.9751 15.2827C8.75508 15.2827 10.2504 14.6973 11.3389 13.6896L9.21661 12.0435Z" fill="#34A853"/>
<path d="M3.06882 8.69552C3.06882 8.25707 3.1419 7.83323 3.27497 7.43477V5.73633H1.08577C0.637313 6.62632 0.38501 7.63092 0.38501 8.69552C0.38501 9.76013 0.638082 10.7647 1.08577 11.6547L3.27497 9.95628C3.1419 9.55782 3.06882 9.13398 3.06882 8.69552Z" fill="#FABB05"/>
<path d="M6.9751 4.71508C7.94662 4.71508 8.81661 5.04969 9.50353 5.70353L11.3843 3.82432C10.242 2.76049 8.75277 2.10742 6.9751 2.10742C4.40051 2.10742 2.17054 3.58433 1.08594 5.73661L3.27514 7.43505C3.79744 5.87353 5.25589 4.71508 6.9751 4.71508Z" fill="#E94235"/>
</svg>
