<svg width="71" height="32" viewBox="0 0 71 32" fill="none" xmlns="http://www.w3.org/2000/svg">
<path d="M27.9568 9.60742H24.2035C23.9467 9.60742 23.7283 9.7959 23.6882 10.052L22.1702 19.7737C22.14 19.9655 22.2871 20.1384 22.4797 20.1384H24.2716C24.5284 20.1384 24.7469 19.95 24.7869 19.6933L25.1963 17.0712C25.2358 16.8145 25.4548 16.6261 25.7111 16.6261H26.8993C29.3717 16.6261 30.7986 15.4176 31.1712 13.0228C31.3391 11.9751 31.1783 11.1518 30.6926 10.5753C30.1592 9.94225 29.213 9.60742 27.9568 9.60742ZM28.3898 13.158C28.1846 14.5184 27.1556 14.5184 26.1606 14.5184H25.5942L25.9915 11.9778C26.0151 11.8243 26.1469 11.7112 26.3005 11.7112H26.5601C27.2379 11.7112 27.8772 11.7112 28.2076 12.1014C28.4047 12.3343 28.465 12.6802 28.3898 13.158Z" fill="white"/>
<path d="M39.1763 13.1141H37.379C37.2258 13.1141 37.0936 13.2272 37.07 13.3807L36.9904 13.8885L36.8647 13.7045C36.4756 13.1341 35.608 12.9434 34.7419 12.9434C32.7558 12.9434 31.0594 14.4628 30.7291 16.5943C30.5573 17.6576 30.8015 18.6742 31.3986 19.3833C31.9463 20.0352 32.73 20.3068 33.6624 20.3068C35.2628 20.3068 36.1502 19.2674 36.1502 19.2674L36.0701 19.7719C36.0399 19.9648 36.187 20.1377 36.3785 20.1377H37.9975C38.2549 20.1377 38.4722 19.9493 38.5128 19.6926L39.4842 13.4789C39.5149 13.2876 39.3684 13.1141 39.1763 13.1141ZM36.671 16.6475C36.4976 17.6847 35.6826 18.381 34.6432 18.381C34.1212 18.381 33.7041 18.2119 33.4363 17.8915C33.1707 17.5733 33.0697 17.1204 33.1542 16.6159C33.3161 15.5876 34.1448 14.8686 35.1684 14.8686C35.6788 14.8686 36.0937 15.0399 36.367 15.3631C36.6408 15.6896 36.7495 16.1453 36.671 16.6475Z" fill="white"/>
<path d="M48.7466 13.1133H46.9405C46.7682 13.1133 46.6063 13.1998 46.5086 13.3444L44.0175 17.0508L42.9616 13.4891C42.8952 13.2663 42.6916 13.1133 42.4611 13.1133H40.6863C40.4706 13.1133 40.3208 13.3262 40.3894 13.5313L42.3788 19.4285L40.5085 22.0954C40.3614 22.3055 40.5096 22.5944 40.7637 22.5944H42.5676C42.7388 22.5944 42.8991 22.5101 42.9962 22.3682L49.0035 13.6094C49.1472 13.3999 48.9996 13.1133 48.7466 13.1133Z" fill="white"/>
<path d="M54.7261 9.60742H50.9723C50.716 9.60742 50.4976 9.7959 50.4575 10.052L48.9395 19.7737C48.9093 19.9655 49.0564 20.1384 49.2479 20.1384H51.1742C51.3531 20.1384 51.5063 20.0065 51.5343 19.8269L51.9651 17.0712C52.0046 16.8145 52.2236 16.6261 52.4798 16.6261H53.6675C56.1404 16.6261 57.5667 15.4176 57.9399 13.0228C58.1084 11.9751 57.9465 11.1518 57.4608 10.5753C56.9279 9.94225 55.9823 9.60742 54.7261 9.60742ZM55.1591 13.158C54.9544 14.5184 53.9254 14.5184 52.9299 14.5184H52.3641L52.7619 11.9778C52.7855 11.8243 52.9161 11.7112 53.0704 11.7112H53.3299C54.0072 11.7112 54.6471 11.7112 54.9775 12.1014C55.1745 12.3343 55.2343 12.6802 55.1591 13.158Z" fill="white"/>
<path d="M65.9469 13.1141H64.1507C63.9964 13.1141 63.8653 13.2272 63.8422 13.3807L63.7627 13.8885L63.6364 13.7045C63.2473 13.1341 62.3802 12.9434 61.5142 12.9434C59.5281 12.9434 57.8322 14.4628 57.5019 16.5943C57.3306 17.6576 57.5738 18.6742 58.1709 19.3833C58.7197 20.0352 59.5023 20.3068 60.4347 20.3068C62.035 20.3068 62.9224 19.2674 62.9224 19.2674L62.8423 19.7719C62.8121 19.9648 62.9592 20.1377 63.1518 20.1377H64.7703C65.0266 20.1377 65.245 19.9493 65.285 19.6926L66.257 13.4789C66.2866 13.2876 66.1395 13.1141 65.9469 13.1141ZM63.4416 16.6475C63.2693 17.6847 62.4532 18.381 61.4138 18.381C60.8929 18.381 60.4747 18.2119 60.2069 17.8915C59.9413 17.5733 59.8414 17.1204 59.9248 16.6159C60.0878 15.5876 60.9154 14.8686 61.939 14.8686C62.4494 14.8686 62.8643 15.0399 63.1376 15.3631C63.4125 15.6896 63.5212 16.1453 63.4416 16.6475Z" fill="white"/>
<path d="M68.0676 9.87462L66.5271 19.7742C66.4969 19.966 66.644 20.139 66.8356 20.139H68.3843C68.6417 20.139 68.8601 19.9505 68.8996 19.6938L70.4187 9.97274C70.4489 9.78093 70.3018 9.60742 70.1103 9.60742H68.3761C68.223 9.60798 68.0912 9.72106 68.0676 9.87462Z" fill="white"/>
<path fill-rule="evenodd" clip-rule="evenodd" d="M7.96168 23.6238L8.26031 21.6916L7.59508 21.6758H4.41846L6.6261 7.41764C6.63297 7.37446 6.65521 7.33438 6.68768 7.30587C6.72031 7.27736 6.76189 7.26172 6.8054 7.26172H12.1617C13.94 7.26172 15.1671 7.63857 15.8077 8.38249C16.1081 8.73148 16.2994 9.09627 16.392 9.49756C16.4891 9.91872 16.4907 10.4218 16.396 11.0356L16.3892 11.0802V11.4735L16.6895 11.6469C16.9424 11.7836 17.1435 11.94 17.2977 12.119C17.5546 12.4175 17.7207 12.7968 17.791 13.2463C17.8636 13.7087 17.8396 14.2591 17.7208 14.8821C17.5837 15.5987 17.3621 16.2228 17.0629 16.7334C16.7878 17.204 16.4371 17.5943 16.0208 17.8967C15.6233 18.1841 15.1511 18.4023 14.6172 18.5419C14.0998 18.6791 13.5099 18.7483 12.8629 18.7483H12.4461C12.1481 18.7483 11.8586 18.8577 11.6313 19.0537C11.4033 19.2537 11.2527 19.5271 11.2064 19.8261L11.1749 20.0001L10.6473 23.4058L10.6234 23.5307C10.617 23.5703 10.6061 23.59 10.5902 23.6034C10.5759 23.6156 10.5554 23.6238 10.5354 23.6238H7.96168Z" fill="#28356A"/>
<path fill-rule="evenodd" clip-rule="evenodd" d="M16.9743 11.125C16.9585 11.2291 16.9401 11.3355 16.9196 11.4448C16.2133 15.139 13.7966 16.4152 10.7102 16.4152H9.13867C8.76119 16.4152 8.44305 16.6943 8.38435 17.0736L7.35187 23.7446C7.31364 23.9937 7.50206 24.2181 7.7487 24.2181H10.536C10.866 24.2181 11.1464 23.9738 11.1984 23.6423L11.2257 23.4981L11.7505 20.1058L11.7843 19.9198C11.8356 19.5871 12.1166 19.3427 12.4466 19.3427H12.8634C15.5639 19.3427 17.678 18.226 18.2959 14.9942C18.5539 13.6442 18.4203 12.5169 17.7373 11.7241C17.5306 11.4851 17.2742 11.2866 16.9743 11.125Z" fill="#B7CEE0"/>
<path fill-rule="evenodd" clip-rule="evenodd" d="M16.2352 10.8246C16.1272 10.7925 16.0159 10.7635 15.9017 10.7373C15.7869 10.7117 15.6693 10.6891 15.5482 10.6692C15.1245 10.5995 14.6602 10.5664 14.1629 10.5664H9.96467C9.86118 10.5664 9.76297 10.5902 9.67515 10.6332C9.48145 10.728 9.33766 10.9147 9.30279 11.1433L8.40963 16.9054L8.38403 17.0734C8.44274 16.6941 8.76088 16.415 9.13836 16.415H10.7099C13.7963 16.415 16.213 15.1381 16.9193 11.4446C16.9404 11.3353 16.9582 11.2289 16.974 11.1248C16.7954 11.0281 16.6018 10.9455 16.3934 10.8752C16.3419 10.8577 16.2888 10.8409 16.2352 10.8246Z" fill="#E9F0F6"/>
<path fill-rule="evenodd" clip-rule="evenodd" d="M9.30293 11.1442C9.3378 10.9156 9.48159 10.7289 9.67529 10.6347C9.76374 10.5916 9.86131 10.5678 9.9648 10.5678H14.163C14.6603 10.5678 15.1247 10.601 15.5484 10.6707C15.6694 10.6905 15.787 10.7133 15.9018 10.7388C16.0161 10.7649 16.1274 10.7941 16.2353 10.826C16.2889 10.8423 16.342 10.8592 16.394 10.876C16.6024 10.9464 16.7961 11.0297 16.9748 11.1256C17.185 9.76047 16.973 8.83098 16.2485 7.9893C15.4495 7.06258 14.0077 6.66602 12.1627 6.66602H6.80626C6.42941 6.66602 6.10791 6.94511 6.04969 7.32505L3.8187 21.7298C3.77471 22.0148 3.99048 22.2719 4.27264 22.2719H7.57946L9.30293 11.1442Z" fill="white"/>
</svg>
