<svg width="127" height="84" viewBox="0 0 127 84" fill="none" xmlns="http://www.w3.org/2000/svg">
<g clip-path="url(#clip0_19_26730)">
<rect x="0.5" y="-10.5" width="126" height="105" fill="black" fill-opacity="0.2"/>
<path d="M21.5164 51V35.6H27.7864C28.6224 35.6 29.3777 35.8127 30.0524 36.238C30.7417 36.6487 31.2917 37.2133 31.7024 37.932C32.113 38.6507 32.3184 39.45 32.3184 40.33C32.3184 41.21 32.113 42.0093 31.7024 42.728C31.2917 43.4467 30.7417 44.026 30.0524 44.466C29.3777 44.8913 28.6224 45.104 27.7864 45.104H23.8924V51H21.5164ZM23.8924 42.816H27.7424C28.1384 42.816 28.4977 42.706 28.8204 42.486C29.143 42.2513 29.3997 41.9507 29.5904 41.584C29.7957 41.2027 29.8984 40.7847 29.8984 40.33C29.8984 39.8753 29.7957 39.4647 29.5904 39.098C29.3997 38.7313 29.143 38.438 28.8204 38.218C28.4977 37.998 28.1384 37.888 27.7424 37.888H23.8924V42.816ZM34.8877 51V39.45H37.1757V43.08L36.9557 42.2C37.117 41.6427 37.3884 41.1367 37.7697 40.682C38.1657 40.2273 38.613 39.868 39.1117 39.604C39.625 39.34 40.153 39.208 40.6957 39.208C40.945 39.208 41.1797 39.23 41.3997 39.274C41.6344 39.318 41.8177 39.3693 41.9497 39.428L41.3557 41.892C41.1797 41.8187 40.9817 41.76 40.7617 41.716C40.5564 41.6573 40.351 41.628 40.1457 41.628C39.7497 41.628 39.3684 41.7087 39.0017 41.87C38.6497 42.0167 38.3344 42.2293 38.0557 42.508C37.7917 42.772 37.579 43.0873 37.4177 43.454C37.2564 43.806 37.1757 44.1947 37.1757 44.62V51H34.8877ZM48.4586 51.22C47.3293 51.22 46.3173 50.9633 45.4226 50.45C44.5426 49.922 43.846 49.2107 43.3326 48.316C42.8193 47.4067 42.5626 46.3727 42.5626 45.214C42.5626 44.0553 42.8193 43.0287 43.3326 42.134C43.846 41.2247 44.5426 40.5133 45.4226 40C46.3173 39.472 47.3293 39.208 48.4586 39.208C49.5733 39.208 50.5706 39.472 51.4506 40C52.3453 40.5133 53.0493 41.2247 53.5626 42.134C54.076 43.0287 54.3326 44.0553 54.3326 45.214C54.3326 46.3727 54.076 47.4067 53.5626 48.316C53.0493 49.2107 52.3453 49.922 51.4506 50.45C50.5706 50.9633 49.5733 51.22 48.4586 51.22ZM48.4586 49.152C49.148 49.152 49.764 48.9833 50.3066 48.646C50.8493 48.294 51.2746 47.8247 51.5826 47.238C51.8906 46.6367 52.0373 45.962 52.0226 45.214C52.0373 44.4513 51.8906 43.7767 51.5826 43.19C51.2746 42.5887 50.8493 42.1193 50.3066 41.782C49.764 41.4447 49.148 41.276 48.4586 41.276C47.7693 41.276 47.146 41.452 46.5886 41.804C46.046 42.1413 45.6206 42.6107 45.3126 43.212C45.0046 43.7987 44.858 44.466 44.8726 45.214C44.858 45.962 45.0046 46.6367 45.3126 47.238C45.6206 47.8247 46.046 48.294 46.5886 48.646C47.146 48.9833 47.7693 49.152 48.4586 49.152ZM63.5398 51V35.6H69.8098C70.6458 35.6 71.4011 35.8127 72.0758 36.238C72.7651 36.6487 73.3151 37.2133 73.7258 37.932C74.1365 38.6507 74.3418 39.45 74.3418 40.33C74.3418 41.21 74.1365 42.0093 73.7258 42.728C73.3151 43.4467 72.7651 44.026 72.0758 44.466C71.4011 44.8913 70.6458 45.104 69.8098 45.104H65.9158V51H63.5398ZM65.9158 42.816H69.7658C70.1618 42.816 70.5211 42.706 70.8438 42.486C71.1665 42.2513 71.4231 41.9507 71.6138 41.584C71.8191 41.2027 71.9218 40.7847 71.9218 40.33C71.9218 39.8753 71.8191 39.4647 71.6138 39.098C71.4231 38.7313 71.1665 38.438 70.8438 38.218C70.5211 37.998 70.1618 37.888 69.7658 37.888H65.9158V42.816ZM76.9551 51V34.72H79.2211V51H76.9551ZM86.6618 51.22C85.7085 51.22 84.8358 50.956 84.0438 50.428C83.2665 49.9 82.6431 49.1813 82.1738 48.272C81.7045 47.3627 81.4698 46.336 81.4698 45.192C81.4698 44.0333 81.7045 43.0067 82.1738 42.112C82.6578 41.2027 83.3031 40.4913 84.1098 39.978C84.9311 39.4647 85.8478 39.208 86.8598 39.208C87.4611 39.208 88.0111 39.296 88.5098 39.472C89.0085 39.648 89.4411 39.8973 89.8078 40.22C90.1891 40.528 90.4971 40.8873 90.7318 41.298C90.9811 41.7087 91.1351 42.1487 91.1938 42.618L90.6878 42.442V39.45H92.9758V51H90.6878V48.25L91.2158 48.096C91.1278 48.492 90.9445 48.8807 90.6658 49.262C90.4018 49.6287 90.0571 49.9587 89.6318 50.252C89.2211 50.5453 88.7591 50.78 88.2458 50.956C87.7471 51.132 87.2191 51.22 86.6618 51.22ZM87.2558 49.13C87.9451 49.13 88.5538 48.9613 89.0818 48.624C89.6098 48.2867 90.0205 47.8247 90.3138 47.238C90.6218 46.6367 90.7758 45.9547 90.7758 45.192C90.7758 44.444 90.6218 43.7767 90.3138 43.19C90.0205 42.6033 89.6098 42.1413 89.0818 41.804C88.5538 41.4667 87.9451 41.298 87.2558 41.298C86.5811 41.298 85.9798 41.4667 85.4518 41.804C84.9385 42.1413 84.5278 42.6033 84.2198 43.19C83.9265 43.7767 83.7798 44.444 83.7798 45.192C83.7798 45.9547 83.9265 46.6367 84.2198 47.238C84.5278 47.8247 84.9385 48.2867 85.4518 48.624C85.9798 48.9613 86.5811 49.13 87.2558 49.13ZM96.1397 51V39.45H98.4057V41.826L98.0097 42.09C98.1563 41.5767 98.4423 41.1073 98.8677 40.682C99.293 40.242 99.799 39.89 100.386 39.626C100.972 39.3473 101.574 39.208 102.19 39.208C103.07 39.208 103.803 39.384 104.39 39.736C104.976 40.0733 105.416 40.594 105.71 41.298C106.003 42.002 106.15 42.8893 106.15 43.96V51H103.884V44.114C103.884 43.454 103.796 42.9113 103.62 42.486C103.444 42.046 103.172 41.7307 102.806 41.54C102.439 41.3347 101.984 41.2467 101.442 41.276C101.002 41.276 100.598 41.3493 100.232 41.496C99.865 41.628 99.5423 41.8187 99.2637 42.068C98.9997 42.3173 98.787 42.6107 98.6257 42.948C98.479 43.2707 98.4057 43.6227 98.4057 44.004V51H97.2837C97.093 51 96.9023 51 96.7117 51C96.521 51 96.3303 51 96.1397 51Z" fill="white"/>
</g>
<defs>
<clipPath id="clip0_19_26730">
<rect x="0.5" width="126" height="84" rx="6.3" fill="white"/>
</clipPath>
</defs>
</svg>
