<svg width="180" height="48" viewBox="0 0 180 48" fill="none" xmlns="http://www.w3.org/2000/svg">
<path d="M6 0.5H173.5C176.538 0.5 179 2.96243 179 6V42C179 45.0376 176.538 47.5 173.5 47.5H6C2.96243 47.5 0.5 45.0376 0.5 42V6C0.5 2.96243 2.96243 0.5 6 0.5Z" fill="white"/>
<path d="M6 0.5H173.5C176.538 0.5 179 2.96243 179 6V42C179 45.0376 176.538 47.5 173.5 47.5H6C2.96243 47.5 0.5 45.0376 0.5 42V6C0.5 2.96243 2.96243 0.5 6 0.5Z" fill="#DD222D"/>
<path d="M6 0.5H173.5C176.538 0.5 179 2.96243 179 6V42C179 45.0376 176.538 47.5 173.5 47.5H6C2.96243 47.5 0.5 45.0376 0.5 42V6C0.5 2.96243 2.96243 0.5 6 0.5Z" stroke="#BDBDBD"/>
<g clip-path="url(#clip0_164_452)">
<path d="M57.75 16.5007H60.5259L60.5262 23.2218C62.7365 21.0116 67.2208 16.5541 67.2324 16.5225C67.2426 16.4947 70.5434 16.4931 70.5434 16.521C68.1302 18.9356 65.6802 21.3142 63.2372 23.6993C63.6847 24.1501 69.261 29.8034 70.8671 31.4783C70.8811 31.4928 70.8317 31.4994 69.2208 31.4994H67.5576L64.9294 28.8745C61.8501 25.7989 60.5575 24.5231 60.5391 24.5231C60.5184 26.8483 60.5259 29.174 60.5259 31.4994H57.75V16.5007ZM83.5298 24.9528H75.7331V31.4994H73.0417L73.0295 16.5007H75.7331V22.7801H83.5298V16.5022L86.2333 16.5V31.4994H83.5298V24.9528ZM115.834 28.9375C114.41 27.5286 113.248 26.3756 113.251 26.3748C113.254 26.3741 114.007 26.3788 114.925 26.3854L116.593 26.3973L118.437 28.203C121.376 31.0817 121.745 31.4995 121.738 31.4994C121.729 31.4994 119.527 31.4885 118.422 31.4994L115.834 28.9375ZM91.0395 31.4994C90.6953 31.4877 90.3365 31.283 90.0439 31.0871C89.8955 30.9878 89.6327 30.741 89.4768 30.5546C89.35 30.4029 89.1558 30.0068 89.0865 29.7586L89.0213 29.5251L89.0143 24.1052C89.0066 18.2237 89.0017 18.4685 89.134 18.07C89.2705 17.6588 89.5719 17.2454 89.9297 16.9787C90.1677 16.8013 90.3675 16.6996 90.6869 16.5931L90.9283 16.5126L96.5006 16.5064L102.073 16.5001L102.315 16.5605C102.631 16.6397 102.879 16.7433 103.099 16.8894C103.533 17.1761 103.858 17.5822 104.012 18.0309C104.15 18.4301 104.144 18.1523 104.144 24.2603V29.8831L102.962 28.7138L101.779 27.5446L101.773 23.8313C101.767 20.2836 101.764 20.1121 101.721 19.9866C101.533 19.4348 101.148 19.0626 100.607 18.9075L100.415 18.8525H96.5404H92.6662L92.5093 18.908C92.245 19.0016 92.0498 19.1238 91.8576 19.316C91.6511 19.5226 91.5178 19.7331 91.4404 19.9747L91.3869 20.1418V23.9739C91.3869 27.009 91.3933 27.8333 91.4179 27.9373C91.4349 28.0096 91.4964 28.1654 91.5545 28.2835C91.7375 28.6556 92.0167 28.907 92.4162 29.0594C92.5808 29.1222 92.6612 29.1371 92.9168 29.1526C93.0843 29.1627 94.7654 29.168 96.6524 29.1643C98.5394 29.1607 100.11 29.1652 100.143 29.1743C100.176 29.1834 100.727 29.7032 101.369 30.3309L102.535 31.4994H96.8887C93.783 31.4994 91.0774 31.5007 91.0395 31.4994ZM108.655 31.4742C108.08 31.4083 107.498 31.0563 107.137 30.5878C106.889 30.2653 106.753 29.9693 106.689 29.6099C106.648 29.382 106.64 24.2893 106.68 23.7072C106.764 22.4723 106.998 21.5915 107.502 20.6074C108.003 19.6285 108.665 18.8189 109.503 18.1596C110.698 17.2189 112.022 16.6876 113.546 16.5358C114.629 16.4279 115.839 16.5971 116.938 17.0101C117.327 17.1561 117.984 17.4897 118.326 17.7148C118.935 18.1148 119.638 18.7438 120.065 19.2703C120.803 20.1808 121.356 21.3344 121.583 22.4421C121.674 22.8837 121.781 23.8875 121.742 23.9324C121.733 23.9423 121.2 23.9477 120.557 23.9443L119.387 23.9381L119.37 23.6755C119.332 23.124 119.205 22.5266 119.05 22.1713C119.033 22.1319 118.983 22.0191 118.94 21.9206C118.536 20.9948 117.821 20.1746 116.946 19.6337C115.409 18.6833 113.564 18.5852 111.929 19.3669C110.632 19.9866 109.621 21.1763 109.229 22.5426C109.022 23.2635 109.037 22.8961 109.027 27.43L109.019 31.4994C108.884 31.4975 108.655 31.4742 108.655 31.4742ZM94.3559 26.747C94.1449 26.6784 93.9369 26.4944 93.8393 26.2899L93.7766 26.1586V23.9978V21.837L93.8369 21.7197C93.9267 21.5452 94.0863 21.3828 94.2424 21.307L94.3801 21.2401H96.5404H98.7008L98.8444 21.2973C99.0255 21.3695 99.1908 21.5212 99.2819 21.699L99.3526 21.837L99.3646 24.2923C99.3713 25.6427 99.3722 26.752 99.3666 26.7575C99.3498 26.7741 94.4076 26.7638 94.3559 26.747Z" fill="#DD222D"/>
<path d="M57.75 16.5007H60.5259L60.5262 23.2218C62.7365 21.0116 67.2208 16.5541 67.2324 16.5225C67.2426 16.4947 70.5434 16.4931 70.5434 16.521C68.1302 18.9356 65.6802 21.3142 63.2372 23.6993C63.6847 24.1501 69.261 29.8034 70.8671 31.4783C70.8811 31.4928 70.8317 31.4994 69.2208 31.4994H67.5576L64.9294 28.8745C61.8501 25.7989 60.5575 24.5231 60.5391 24.5231C60.5184 26.8483 60.5259 29.174 60.5259 31.4994H57.75V16.5007ZM83.5298 24.9528H75.7331V31.4994H73.0417L73.0295 16.5007H75.7331V22.7801H83.5298V16.5022L86.2333 16.5V31.4994H83.5298V24.9528ZM115.834 28.9375C114.41 27.5286 113.248 26.3756 113.251 26.3748C113.254 26.3741 114.007 26.3788 114.925 26.3854L116.593 26.3973L118.437 28.203C121.376 31.0817 121.745 31.4995 121.738 31.4994C121.729 31.4994 119.527 31.4885 118.422 31.4994L115.834 28.9375ZM91.0395 31.4994C90.6953 31.4877 90.3365 31.283 90.0439 31.0871C89.8955 30.9878 89.6327 30.741 89.4768 30.5546C89.35 30.4029 89.1558 30.0068 89.0865 29.7586L89.0213 29.5251L89.0143 24.1052C89.0066 18.2237 89.0017 18.4685 89.134 18.07C89.2705 17.6588 89.5719 17.2454 89.9297 16.9787C90.1677 16.8013 90.3675 16.6996 90.6869 16.5931L90.9283 16.5126L96.5006 16.5064L102.073 16.5001L102.315 16.5605C102.631 16.6397 102.879 16.7433 103.099 16.8894C103.533 17.1761 103.858 17.5822 104.012 18.0309C104.15 18.4301 104.144 18.1523 104.144 24.2603V29.8831L102.962 28.7138L101.779 27.5446L101.773 23.8313C101.767 20.2836 101.764 20.1121 101.721 19.9866C101.533 19.4348 101.148 19.0626 100.607 18.9075L100.415 18.8525H96.5404H92.6662L92.5093 18.908C92.245 19.0016 92.0498 19.1238 91.8576 19.316C91.6511 19.5226 91.5178 19.7331 91.4404 19.9747L91.3869 20.1418V23.9739C91.3869 27.009 91.3933 27.8333 91.4179 27.9373C91.4349 28.0096 91.4964 28.1654 91.5545 28.2835C91.7375 28.6556 92.0167 28.907 92.4162 29.0594C92.5808 29.1222 92.6612 29.1371 92.9168 29.1526C93.0843 29.1627 94.7654 29.168 96.6524 29.1643C98.5394 29.1607 100.11 29.1652 100.143 29.1743C100.176 29.1834 100.727 29.7032 101.369 30.3309L102.535 31.4994H96.8887C93.783 31.4994 91.0774 31.5007 91.0395 31.4994ZM108.655 31.4742C108.08 31.4083 107.498 31.0563 107.137 30.5878C106.889 30.2653 106.753 29.9693 106.689 29.6099C106.648 29.382 106.64 24.2893 106.68 23.7072C106.764 22.4723 106.998 21.5915 107.502 20.6074C108.003 19.6285 108.665 18.8189 109.503 18.1596C110.698 17.2189 112.022 16.6876 113.546 16.5358C114.629 16.4279 115.839 16.5971 116.938 17.0101C117.327 17.1561 117.984 17.4897 118.326 17.7148C118.935 18.1148 119.638 18.7438 120.065 19.2703C120.803 20.1808 121.356 21.3344 121.583 22.4421C121.674 22.8837 121.781 23.8875 121.742 23.9324C121.733 23.9423 121.2 23.9477 120.557 23.9443L119.387 23.9381L119.37 23.6755C119.332 23.124 119.205 22.5266 119.05 22.1713C119.033 22.1319 118.983 22.0191 118.94 21.9206C118.536 20.9948 117.821 20.1746 116.946 19.6337C115.409 18.6833 113.564 18.5852 111.929 19.3669C110.632 19.9866 109.621 21.1763 109.229 22.5426C109.022 23.2635 109.037 22.8961 109.027 27.43L109.019 31.4994C108.884 31.4975 108.655 31.4742 108.655 31.4742ZM94.3559 26.747C94.1449 26.6784 93.9369 26.4944 93.8393 26.2899L93.7766 26.1586V23.9978V21.837L93.8369 21.7197C93.9267 21.5452 94.0863 21.3828 94.2424 21.307L94.3801 21.2401H96.5404H98.7008L98.8444 21.2973C99.0255 21.3695 99.1908 21.5212 99.2819 21.699L99.3526 21.837L99.3646 24.2923C99.3713 25.6427 99.3722 26.752 99.3666 26.7575C99.3498 26.7741 94.4076 26.7638 94.3559 26.747Z" fill="white"/>
</g>
<defs>
<clipPath id="clip0_164_452">
<rect width="64" height="15" fill="white" transform="translate(57.75 16.5)"/>
</clipPath>
</defs>
</svg>
