<svg width="35" height="25" viewBox="0 0 35 25" fill="none" xmlns="http://www.w3.org/2000/svg">
<g id="Payment Method/Amex">
<rect id="BASE" x="0.5" y="1.11426" width="34" height="23" rx="3.5" fill="#1F72CD" stroke="#D9D9D9"/>
<path id="AMEX" fill-rule="evenodd" clip-rule="evenodd" d="M6.68111 9.11426L3.5 16.361H7.30824L7.78035 15.2056H8.85949L9.3316 16.361H13.5234V15.4791L13.8969 16.361H16.0652L16.4387 15.4605V16.361H25.1566L26.2166 15.2356L27.2092 16.361L31.6868 16.3703L28.4957 12.7579L31.6868 9.11426H27.2786L26.2467 10.2189L25.2854 9.11426H15.8016L14.9872 10.9847L14.1537 9.11426H10.3534V9.96611L9.93068 9.11426H6.68111ZM19.6994 10.1433H24.7055L26.2367 11.8459L27.8172 10.1433H29.3484L27.0219 12.7568L29.3484 15.3403H27.7477L26.2166 13.6179L24.628 15.3403H19.6994V10.1433ZM20.9356 12.1692V11.22V11.2191H24.0593L25.4223 12.7372L23.9989 14.2636H20.9356V13.2273H23.6667V12.1692H20.9356ZM7.41799 10.1433H9.2743L11.3843 15.0574V10.1433H13.4178L15.0476 13.6667L16.5496 10.1433H18.573V15.3433H17.3418L17.3317 11.2686L15.5368 15.3433H14.4355L12.6305 11.2686V15.3433H10.0977L9.61756 14.1775H7.02338L6.54421 15.3423H5.18717L7.41799 10.1433ZM7.46634 13.0999L8.32101 11.0231L9.1747 13.0999H7.46634Z" fill="white"/>
</g>
</svg>
