<svg width="35" height="25" viewBox="0 0 35 25" fill="none" xmlns="http://www.w3.org/2000/svg">
<g id="Payment Method/ApplePay">
<rect id="BASE" x="0.5" y="1.11426" width="34" height="23" rx="3.5" fill="white" stroke="#D9D9D9"/>
<path id="ApplePay" fill-rule="evenodd" clip-rule="evenodd" d="M8.3462 9.54722C8.81624 9.58687 9.28628 9.30931 9.58006 8.95742C9.86894 8.59561 10.0599 8.10989 10.0109 7.61426C9.59475 7.63408 9.08064 7.89181 8.78686 8.25362C8.51757 8.56587 8.28745 9.07141 8.3462 9.54722ZM13.9377 15.9309V8.20407H16.8021C18.2807 8.20407 19.3138 9.23498 19.3138 10.7417C19.3138 12.2484 18.2611 13.2892 16.7629 13.2892H15.1226V15.9309H13.9377ZM10.006 9.64139C9.5919 9.61727 9.21406 9.76746 8.90886 9.88877C8.71246 9.96683 8.54614 10.0329 8.41961 10.0329C8.27762 10.0329 8.10444 9.9633 7.90999 9.8851C7.65521 9.78265 7.36392 9.66551 7.05845 9.67113C6.35829 9.68104 5.70709 10.0825 5.34966 10.7219C4.61522 12.0006 5.1587 13.8939 5.86866 14.9347C6.2163 15.4502 6.63248 16.0152 7.18086 15.9954C7.42211 15.9862 7.59566 15.9116 7.77526 15.8345C7.98203 15.7456 8.19683 15.6534 8.53223 15.6534C8.85599 15.6534 9.0614 15.7432 9.25858 15.8295C9.44606 15.9115 9.62611 15.9903 9.89339 15.9855C10.4614 15.9755 10.8188 15.47 11.1664 14.9545C11.5416 14.4013 11.7064 13.8614 11.7314 13.7795L11.7344 13.77C11.7338 13.7694 11.7291 13.7672 11.721 13.7634C11.5956 13.7053 10.637 13.2611 10.6278 12.07C10.6186 11.0702 11.3881 10.5636 11.5093 10.4839L11.5093 10.4839C11.5166 10.479 11.5216 10.4758 11.5238 10.4741C11.0342 9.74052 10.2704 9.66122 10.006 9.64139ZM21.478 15.9904C22.2223 15.9904 22.9126 15.6087 23.226 15.0041H23.2505V15.9309H24.3472V12.0848C24.3472 10.9696 23.4659 10.251 22.1096 10.251C20.8513 10.251 19.921 10.9796 19.8867 11.9807H20.9541C21.0423 11.5049 21.478 11.1927 22.0754 11.1927C22.8 11.1927 23.2064 11.5347 23.2064 12.1641V12.5904L21.7277 12.6796C20.3519 12.7638 19.6077 13.3338 19.6077 14.3251C19.6077 15.3262 20.3764 15.9904 21.478 15.9904ZM21.7962 15.0735C21.1646 15.0735 20.7631 14.7662 20.7631 14.2954C20.7631 13.8096 21.1499 13.5271 21.8893 13.4825L23.2063 13.3983V13.8344C23.2063 14.558 22.5992 15.0735 21.7962 15.0735ZM27.9851 16.2332C27.5102 17.5863 26.9667 18.0324 25.8112 18.0324C25.7231 18.0324 25.4293 18.0225 25.3607 18.0026V17.0758C25.4342 17.0857 25.6153 17.0956 25.7084 17.0956C26.2323 17.0956 26.526 16.8726 26.7072 16.2927L26.8149 15.9507L24.8075 10.3253H26.0462L27.4416 14.8901H27.4661L28.8616 10.3253H30.066L27.9851 16.2332ZM15.1225 9.21513H16.4886C17.5168 9.21513 18.1044 9.77024 18.1044 10.7466C18.1044 11.723 17.5168 12.2831 16.4837 12.2831H15.1225V9.21513Z" fill="black"/>
</g>
</svg>
