<svg width="25" height="11" viewBox="0 0 25 11" fill="none" xmlns="http://www.w3.org/2000/svg">
<g id="GooglePay">
<g id="Pay">
<path id="Union" fill-rule="evenodd" clip-rule="evenodd" d="M11.5296 8.37235V5.35139H13.0888C13.7277 5.35139 14.267 5.13731 14.7066 4.71509L14.8121 4.60805C15.6152 3.73387 15.5624 2.37206 14.7066 1.56331C14.2787 1.13514 13.6926 0.903215 13.0888 0.915109H10.5859V8.37235H11.5296ZM11.5298 4.4356V1.83092H13.1126C13.4527 1.83092 13.7751 1.96175 14.0155 2.19962C14.5255 2.69915 14.5372 3.5317 14.0448 4.04906C13.8044 4.30478 13.4644 4.4475 13.1126 4.4356H11.5298ZM19.2142 3.66847C18.8097 3.29383 18.2587 3.10353 17.5612 3.10353C16.6644 3.10353 15.9903 3.43655 15.5448 4.09664L16.3772 4.6259C16.682 4.17395 17.0982 3.94797 17.6257 3.94797C17.9598 3.94797 18.2822 4.07285 18.5342 4.29883C18.7804 4.51291 18.9211 4.82214 18.9211 5.14921V5.36924C18.5577 5.16706 18.1005 5.06001 17.5378 5.06001C16.8813 5.06001 16.3537 5.21463 15.961 5.52981C15.5683 5.84499 15.369 6.26126 15.369 6.79052C15.3573 7.27221 15.5624 7.73011 15.9259 8.03934C16.2951 8.37236 16.7641 8.53887 17.315 8.53887C17.9657 8.53887 18.4815 8.24748 18.8742 7.66469H18.9152V8.37236H19.8179V5.22652C19.8179 4.56643 19.6186 4.04312 19.2142 3.66847ZM16.6529 7.43274C16.4594 7.29002 16.3421 7.0581 16.3421 6.80833C16.3421 6.52884 16.4711 6.29691 16.7232 6.11256C16.9812 5.92821 17.3036 5.83307 17.6847 5.83307C18.2123 5.82712 18.6227 5.94605 18.9158 6.18392C18.9158 6.5883 18.7575 6.93916 18.4468 7.2365C18.1654 7.52194 17.7843 7.68251 17.3857 7.68251C17.1219 7.68845 16.8639 7.59925 16.6529 7.43274ZM21.846 10.6143L24.9995 3.27005H23.9738L22.5142 6.93325H22.4967L21.002 3.27005H19.9762L22.0453 8.0453L20.873 10.6143H21.846Z" fill="#3C4043"/>
</g>
<g id="G">
<path id="Blue" d="M8.27202 4.69727C8.27202 4.40588 8.24857 4.11449 8.20168 3.82904H4.22168V5.47629H6.50183C6.40804 6.00555 6.10324 6.4813 5.65776 6.77863V7.84905H7.01764C7.81481 7.10571 8.27202 6.00555 8.27202 4.69727Z" fill="#4285F4"/>
<path id="Green" d="M4.22211 8.88374C5.35925 8.88374 6.32055 8.50315 7.01807 7.84901L5.65819 6.77859C5.27719 7.04025 4.79068 7.18892 4.22211 7.18892C3.12013 7.18892 2.18815 6.43368 1.85404 5.42273H0.453125V6.52883C1.16824 7.97389 2.62776 8.88374 4.22211 8.88374Z" fill="#34A853"/>
<path id="Yellow" d="M1.85401 5.42279C1.67814 4.89353 1.67814 4.31669 1.85401 3.78149V2.68134H0.452877C-0.150959 3.88853 -0.150959 5.31575 0.452877 6.52294L1.85401 5.42279Z" fill="#FBBC04"/>
<path id="Red" d="M4.22211 2.01528C4.82585 2.00338 5.40614 2.23531 5.8399 2.65753L7.04738 1.43249C6.27951 0.706989 5.27133 0.308556 4.22211 0.320449C2.62776 0.320449 1.16824 1.23625 0.453125 2.68131L1.85404 3.78741C2.18815 2.77052 3.12013 2.01528 4.22211 2.01528Z" fill="#EA4335"/>
</g>
</g>
</svg>
