<svg width="23" height="15" viewBox="0 0 23 15" fill="none" xmlns="http://www.w3.org/2000/svg">
<g id="Mastercard">
<path id="Left" fill-rule="evenodd" clip-rule="evenodd" d="M11.75 12.7712C10.5584 13.7995 9.01276 14.4202 7.32377 14.4202C3.55511 14.4202 0.5 11.3297 0.5 7.51724C0.5 3.70483 3.55511 0.614258 7.32377 0.614258C9.01276 0.614258 10.5584 1.23501 11.75 2.26329C12.9416 1.23501 14.4872 0.614258 16.1762 0.614258C19.9449 0.614258 23 3.70483 23 7.51724C23 11.3297 19.9449 14.4202 16.1762 14.4202C14.4872 14.4202 12.9416 13.7995 11.75 12.7712Z" fill="#ED0006"/>
<path id="Right" fill-rule="evenodd" clip-rule="evenodd" d="M11.75 12.7712C13.2172 11.5051 14.1475 9.62106 14.1475 7.51724C14.1475 5.41343 13.2172 3.52943 11.75 2.26329C12.9416 1.23501 14.4872 0.614258 16.1762 0.614258C19.9449 0.614258 23 3.70483 23 7.51724C23 11.3297 19.9449 14.4202 16.1762 14.4202C14.4872 14.4202 12.9416 13.7995 11.75 12.7712Z" fill="#F9A000"/>
<path id="Middle" fill-rule="evenodd" clip-rule="evenodd" d="M11.75 2.26331C13.2172 3.52944 14.1476 5.41343 14.1476 7.51723C14.1476 9.62103 13.2172 11.505 11.75 12.7712C10.2829 11.505 9.35254 9.62103 9.35254 7.51723C9.35254 5.41343 10.2829 3.52944 11.75 2.26331Z" fill="#FF5E00"/>
</g>
</svg>
