<svg width="21" height="19" viewBox="0 0 21 19" fill="none" xmlns="http://www.w3.org/2000/svg">
<g id="PayPal">
<path id="Vector" fill-rule="evenodd" clip-rule="evenodd" d="M2.90001 12.8552H1.34439C1.23794 12.8552 1.1474 12.9326 1.1308 13.0376L0.501632 17.0267C0.489127 17.1054 0.550085 17.1764 0.629927 17.1764H1.37259C1.47905 17.1764 1.56958 17.099 1.58618 16.9938L1.75588 15.9179C1.77225 15.8125 1.863 15.7352 1.96924 15.7352H2.46169C3.48643 15.7352 4.0778 15.2393 4.23233 14.2567C4.3019 13.8268 4.23527 13.489 4.0339 13.2524C3.81285 12.9927 3.42064 12.8552 2.90001 12.8552ZM3.07948 14.3122C2.99443 14.8704 2.56792 14.8704 2.15553 14.8704H1.92078L2.08547 13.8279C2.09525 13.7649 2.14984 13.7185 2.21353 13.7185H2.32112C2.60204 13.7185 2.86706 13.7185 3.00401 13.8786C3.08559 13.9742 3.11064 14.1161 3.07948 14.3122ZM7.55012 14.2943H6.80517C6.7417 14.2943 6.68686 14.3407 6.67707 14.4038L6.64412 14.6121L6.59202 14.5366C6.43075 14.3025 6.07117 14.2243 5.71222 14.2243C4.88896 14.2243 4.1859 14.8478 4.04896 15.7224C3.9778 16.1586 4.07896 16.5758 4.32643 16.8667C4.55348 17.1342 4.87833 17.2457 5.26475 17.2457C5.92801 17.2457 6.29591 16.8191 6.29591 16.8191L6.26265 17.0262C6.25012 17.1053 6.31107 17.1763 6.39044 17.1763H7.06149C7.16823 17.1763 7.25823 17.0989 7.27507 16.9937L7.6777 14.444C7.69044 14.3655 7.6297 14.2943 7.55012 14.2943ZM6.5117 15.7442C6.4398 16.1698 6.10201 16.4554 5.67128 16.4554C5.45496 16.4554 5.28201 16.3861 5.17106 16.2546C5.06096 16.1241 5.01906 15.9382 5.05412 15.7312C5.12127 15.3092 5.46475 15.0143 5.88896 15.0143C6.10044 15.0143 6.27244 15.0845 6.3857 15.2171C6.49917 15.3511 6.54423 15.5381 6.5117 15.7442ZM10.769 14.2942H11.5176C11.6224 14.2942 11.6836 14.4118 11.624 14.4978L9.13423 18.0917C9.09392 18.1499 9.0275 18.1845 8.95655 18.1845H8.20886C8.1036 18.1845 8.04212 18.066 8.10307 17.9798L8.87834 16.8854L8.05381 14.4656C8.02528 14.3815 8.08739 14.2942 8.17686 14.2942H8.91244C9.00802 14.2942 9.09234 14.3569 9.11992 14.4484L9.5575 15.9099L10.59 14.389C10.6304 14.3296 10.6976 14.2942 10.769 14.2942Z" fill="#253B80"/>
<path id="Vector_2" fill-rule="evenodd" clip-rule="evenodd" d="M18.8851 17.0267L19.5236 12.9647C19.5334 12.9016 19.588 12.8552 19.6515 12.855H20.3702C20.4496 12.855 20.5105 12.9261 20.498 13.0049L19.8684 16.9937C19.852 17.099 19.7615 17.1764 19.6548 17.1764H19.0129C18.9336 17.1764 18.8726 17.1054 18.8851 17.0267ZM13.9958 12.8552H12.4399C12.3337 12.8552 12.2431 12.9326 12.2265 13.0376L11.5973 17.0267C11.5848 17.1054 11.6458 17.1764 11.7252 17.1764H12.5236C12.5978 17.1764 12.6612 17.1223 12.6728 17.0486L12.8513 15.9178C12.8678 15.8125 12.9585 15.7352 13.0647 15.7352H13.5569C14.5819 15.7352 15.1731 15.2393 15.3278 14.2567C15.3976 13.8268 15.3305 13.489 15.1292 13.2523C14.9083 12.9927 14.5164 12.8552 13.9958 12.8552ZM14.1752 14.3121C14.0904 14.8704 13.6639 14.8704 13.2512 14.8704H13.0167L13.1817 13.8278C13.1914 13.7649 13.2456 13.7185 13.3094 13.7185H13.417C13.6978 13.7185 13.963 13.7185 14.0999 13.8786C14.1816 13.9741 14.2064 14.116 14.1752 14.3121ZM18.6455 14.2942H17.901C17.837 14.2942 17.7827 14.3407 17.7731 14.4037L17.7402 14.612L17.6879 14.5366C17.5266 14.3025 17.1672 14.2242 16.8083 14.2242C15.985 14.2242 15.2822 14.8477 15.1452 15.7224C15.0743 16.1586 15.175 16.5757 15.4225 16.8667C15.65 17.1341 15.9744 17.2456 16.3608 17.2456C17.0241 17.2456 17.3919 16.8191 17.3919 16.8191L17.3587 17.0261C17.3462 17.1053 17.4071 17.1763 17.487 17.1763H18.1578C18.264 17.1763 18.3545 17.0989 18.3711 16.9936L18.774 14.4439C18.7863 14.3655 18.7254 14.2942 18.6455 14.2942ZM17.6071 15.7441C17.5357 16.1697 17.1975 16.4554 16.7666 16.4554C16.5507 16.4554 16.3775 16.386 16.2664 16.2546C16.1563 16.124 16.1149 15.9381 16.1496 15.7312C16.217 15.3092 16.5601 15.0142 16.9843 15.0142C17.1959 15.0142 17.3678 15.0845 17.4811 15.2171C17.595 15.3511 17.6401 15.538 17.6071 15.7441Z" fill="#179BD7"/>
<path id="Vector_3" d="M8.65665 11.4281L8.84791 10.2134L8.42191 10.2035H6.3877L7.80138 1.23966C7.8057 1.2126 7.82001 1.18737 7.84086 1.16945C7.8617 1.15154 7.88844 1.14166 7.91623 1.14166H11.3462C12.485 1.14166 13.2708 1.37862 13.6811 1.84632C13.8734 2.06573 13.9959 2.295 14.0552 2.54732C14.1173 2.81208 14.1184 3.12838 14.0577 3.51417L14.0533 3.54233V3.78952L14.2457 3.8985C14.4077 3.98443 14.5363 4.0828 14.6351 4.19543C14.7997 4.38302 14.9061 4.62144 14.9511 4.9041C14.9975 5.19482 14.9821 5.54075 14.9061 5.93239C14.8183 6.38291 14.6765 6.77528 14.4849 7.09634C14.3086 7.39217 14.084 7.63749 13.8175 7.8277C13.563 8.00833 13.2606 8.14549 12.9187 8.23328C12.5873 8.31949 12.2096 8.36307 11.7953 8.36307H11.5283C11.3375 8.36307 11.152 8.43181 11.0065 8.55507C10.8607 8.68086 10.764 8.85265 10.7344 9.04065L10.7143 9.15002L10.3764 11.291L10.3611 11.3696C10.3571 11.3945 10.3501 11.407 10.3399 11.4154C10.3308 11.423 10.3176 11.4281 10.3048 11.4281H8.65665Z" fill="#253B80"/>
<path id="Vector_4" d="M14.4279 3.57098C14.4177 3.63644 14.406 3.70335 14.3928 3.7721C13.9404 6.09452 12.3929 6.89681 10.4164 6.89681H9.41008C9.1684 6.89681 8.96471 7.07233 8.92703 7.31075L8.41176 10.5785L8.26587 11.5047C8.24134 11.6612 8.36208 11.8024 8.51998 11.8024H10.3049C10.5163 11.8024 10.6958 11.6488 10.729 11.4404L10.7466 11.3496L11.0827 9.217L11.1043 9.10005C11.1371 8.89089 11.317 8.73731 11.5284 8.73731H11.7954C13.5246 8.73731 14.8784 8.0352 15.2741 6.00346C15.4394 5.15472 15.3538 4.44605 14.9164 3.94763C14.7841 3.79733 14.6199 3.67264 14.4279 3.57098Z" fill="#179BD7"/>
<path id="Vector_5" d="M13.9545 3.38245C13.8854 3.36234 13.814 3.34405 13.7409 3.3276C13.6674 3.31151 13.592 3.29725 13.5146 3.28482C13.2432 3.24093 12.9459 3.22009 12.6274 3.22009H9.93897C9.87276 3.22009 9.80992 3.23508 9.7536 3.26215C9.6296 3.32175 9.5375 3.43914 9.51518 3.58284L8.94318 7.20524L8.92676 7.31091C8.96444 7.07249 9.16813 6.89696 9.40981 6.89696H10.4161C12.3927 6.89696 13.9402 6.09431 14.3926 3.77226C14.406 3.70351 14.4174 3.6366 14.4276 3.57115C14.3132 3.51044 14.1892 3.45851 14.0557 3.41426C14.0229 3.40329 13.9889 3.39269 13.9545 3.38245Z" fill="#222D65"/>
<path id="Vector_6" d="M9.51557 3.58274C9.53788 3.43902 9.63009 3.32164 9.75399 3.2624C9.81073 3.23534 9.87325 3.22035 9.93936 3.22035H12.6279C12.9464 3.22035 13.2437 3.24119 13.5149 3.28507C13.5925 3.29751 13.6679 3.31177 13.7414 3.32785C13.8145 3.34432 13.8858 3.3626 13.9549 3.38271C13.9893 3.39295 14.0233 3.40355 14.0565 3.41416C14.19 3.4584 14.314 3.5107 14.4284 3.57103C14.5631 2.71279 14.4274 2.12844 13.9634 1.5993C13.4518 1.01678 12.5284 0.767395 11.3469 0.767395H7.91683C7.67546 0.767395 7.46967 0.942911 7.4323 1.1817L6.00367 10.2377C5.97546 10.4168 6.11367 10.5785 6.2943 10.5785H8.41199L8.94367 7.20513L9.51557 3.58274Z" fill="#253B80"/>
</g>
</svg>
