<svg width="23" height="15" viewBox="0 0 23 15" fill="none" xmlns="http://www.w3.org/2000/svg">
<g id="UnionPay">
<path id="Vector" d="M4.82774 0.615784H10.3435C11.1135 0.615784 11.5924 1.24336 11.4127 2.01587L8.84475 13.0412C8.66352 13.8111 7.89263 14.4392 7.12214 14.4392H1.6069C0.838023 14.4392 0.358063 13.8111 0.537678 13.0412L3.10674 2.01587C3.28636 1.24336 4.05685 0.615784 4.82774 0.615784Z" fill="#E21836"/>
<path id="Vector_2" d="M9.88404 0.614258H16.227C16.9969 0.614258 16.6497 1.24184 16.4686 2.01434L13.901 13.0397C13.7209 13.8095 13.7771 14.4376 13.0057 14.4376H6.66266C5.89123 14.4376 5.41382 13.8095 5.59505 13.0397L8.1625 2.01434C8.3448 1.24184 9.11368 0.614258 9.88404 0.614258Z" fill="#00447C"/>
<path id="Vector_3" d="M15.9756 0.614258H21.4914C22.2624 0.614258 22.7413 1.24184 22.5602 2.01434L19.9926 13.0397C19.8114 13.8095 19.0399 14.4376 18.269 14.4376H12.7558C11.9844 14.4376 11.5059 13.8095 11.6866 13.0397L14.2546 2.01434C14.4342 1.24184 15.2041 0.614258 15.9756 0.614258Z" fill="#007B84"/>
<path id="Vector_4" d="M6.2678 4.14758C5.70058 4.15336 5.53307 4.14758 5.47956 4.13494C5.45899 4.23268 5.07623 5.99832 5.07516 5.99979C4.99274 6.35701 4.93278 6.61164 4.7291 6.77607C4.61348 6.87165 4.4785 6.91777 4.32201 6.91777C4.07047 6.91777 3.92392 6.79287 3.89932 6.55598L3.89461 6.47465C3.89461 6.47465 3.97125 5.99617 3.97125 5.99348C3.97125 5.99348 4.37296 4.38447 4.44489 4.17178C4.44865 4.15968 4.44973 4.15336 4.45067 4.14758C3.66875 4.15444 3.53014 4.14758 3.5206 4.13494C3.51535 4.15229 3.49599 4.25204 3.49599 4.25204L3.08581 6.06554L3.05058 6.21934L2.98242 6.72242C2.98242 6.87166 3.01173 6.99346 3.07008 7.09644C3.25695 7.423 3.79002 7.47194 4.09157 7.47194C4.48011 7.47194 4.84459 7.38939 5.09088 7.23868C5.51841 6.98607 5.63027 6.59121 5.73003 6.24031L5.77627 6.06029C5.77627 6.06029 6.19009 4.38917 6.2604 4.17178C6.26309 4.15968 6.26417 4.15336 6.2678 4.14758ZM7.67577 5.49569C7.57602 5.49569 7.39371 5.51989 7.22996 5.60015C7.17054 5.63067 7.11434 5.66589 7.05505 5.70098L7.10856 5.50779L7.07925 5.47525C6.73199 5.54557 6.65428 5.55498 6.3335 5.60015L6.30661 5.61803C6.26937 5.92685 6.2363 6.15903 6.09822 6.76604C6.04566 6.98975 5.99107 7.21561 5.93635 7.43879L5.95114 7.46716C6.27986 7.44981 6.37961 7.44981 6.6653 7.45452L6.68843 7.42938C6.72473 7.24344 6.72943 7.19988 6.80983 6.82331C6.84761 6.64477 6.92639 6.25247 6.96524 6.11278C7.03663 6.07971 7.10708 6.04717 7.1743 6.04717C7.33442 6.04717 7.31493 6.18686 7.30874 6.24252C7.30189 6.33596 7.24354 6.64114 7.18371 6.90317L7.14378 7.0723C7.11595 7.19719 7.08544 7.3186 7.05761 7.44242L7.06971 7.46716C7.39371 7.44981 7.49253 7.44981 7.76921 7.45452L7.80174 7.42938C7.85176 7.13898 7.86641 7.06127 7.95514 6.63845L7.99978 6.44418C8.08649 6.06398 8.13005 5.87119 8.06445 5.71416C7.99507 5.53817 7.82863 5.49569 7.67577 5.49569ZM9.24864 5.89376C9.07642 5.92683 8.96658 5.94888 8.85742 5.96313C8.74919 5.98048 8.64365 5.99621 8.47721 6.01933L8.46404 6.03129L8.45194 6.04084C8.43459 6.1648 8.42249 6.27195 8.3995 6.39792C8.38001 6.52819 8.35003 6.67622 8.30123 6.8889C8.26345 7.05171 8.24395 7.10845 8.22244 7.16572C8.20147 7.22299 8.17835 7.27865 8.13586 7.43877L8.14581 7.45356L8.15415 7.46714C8.3097 7.45975 8.41147 7.4545 8.51607 7.45356C8.62053 7.4498 8.72875 7.45356 8.89627 7.4545L8.91092 7.44254L8.92665 7.42936C8.95085 7.28497 8.95448 7.24612 8.96927 7.17567C8.98393 7.10011 9.0092 6.99552 9.07118 6.71615C9.10049 6.58493 9.13316 6.45412 9.16354 6.32021C9.19513 6.18684 9.22821 6.05549 9.25967 5.92428L9.25496 5.90841L9.24864 5.89376ZM9.25231 5.35704C9.09582 5.26468 8.82116 5.29399 8.6363 5.42157C8.45198 5.5466 8.431 5.72407 8.58696 5.81764C8.74076 5.90745 9.0165 5.88069 9.19975 5.75203C9.38366 5.62431 9.40665 5.44846 9.25231 5.35704ZM10.1987 7.49609C10.5153 7.49609 10.8399 7.40883 11.0842 7.1499C11.2721 6.9399 11.3583 6.62745 11.3881 6.49879C11.4853 6.07234 11.4096 5.87323 11.3146 5.75196C11.1702 5.56711 10.915 5.50782 10.6503 5.50782C10.4911 5.50782 10.112 5.52355 9.81583 5.7966C9.60314 5.99356 9.50486 6.26083 9.44557 6.51708C9.38575 6.77816 9.31691 7.24818 9.74915 7.42308C9.88251 7.48036 10.0748 7.49609 10.1987 7.49609ZM10.174 6.53657C10.247 6.21364 10.3332 5.9426 10.5531 5.9426C10.7255 5.9426 10.738 6.14427 10.6613 6.46827C10.6476 6.5402 10.5847 6.80761 10.4996 6.92148C10.4402 7.00551 10.3699 7.05646 10.2922 7.05646C10.269 7.05646 10.1315 7.05646 10.1293 6.85224C10.1283 6.75141 10.1488 6.64843 10.174 6.53657ZM12.1796 7.45456L12.2043 7.42942C12.2394 7.24348 12.2452 7.19979 12.3229 6.82335C12.3618 6.64481 12.4422 6.25251 12.4799 6.11282C12.5515 6.07961 12.6207 6.04708 12.6901 6.04708C12.8491 6.04708 12.8298 6.18676 12.8234 6.24242C12.8177 6.336 12.7593 6.64105 12.6984 6.90307L12.6606 7.0722C12.6317 7.19723 12.6003 7.3185 12.5724 7.44246L12.5845 7.4672C12.9096 7.44985 13.0047 7.44985 13.283 7.45456L13.3166 7.42942C13.3654 7.13889 13.3786 7.06118 13.47 6.63849L13.5135 6.44409C13.6007 6.06388 13.6448 5.87123 13.5802 5.7142C13.5088 5.53821 13.3413 5.49573 13.1906 5.49573C13.0907 5.49573 12.9075 5.51979 12.7447 5.60019C12.6864 5.63071 12.6281 5.6658 12.5708 5.70102L12.6207 5.50783L12.594 5.47516C12.2468 5.54561 12.1675 5.55502 11.8471 5.60019L11.8225 5.61807C11.7837 5.92689 11.7521 6.15893 11.614 6.76608C11.5614 6.98979 11.5068 7.21565 11.4523 7.43883L11.4669 7.4672C11.7962 7.44985 11.8944 7.44985 12.1796 7.45456ZM14.568 7.46713C14.5885 7.36737 14.7099 6.77609 14.711 6.77609C14.711 6.77609 14.8143 6.34225 14.8207 6.32652C14.8207 6.32652 14.8532 6.28134 14.8857 6.26346H14.9336C15.3852 6.26346 15.8951 6.26346 16.2948 5.96944C16.5668 5.76777 16.7527 5.46998 16.8357 5.10806C16.8572 5.01933 16.8731 4.9138 16.8731 4.80826C16.8731 4.66965 16.8452 4.53252 16.7648 4.42537C16.561 4.14021 16.1551 4.13497 15.6866 4.13282C15.6851 4.13282 15.4556 4.13497 15.4556 4.13497C14.8559 4.14236 14.6154 4.14021 14.5165 4.12811C14.5082 4.17181 14.4925 4.24951 14.4925 4.24951C14.4925 4.24951 14.2776 5.2452 14.2776 5.24681C14.2776 5.24681 13.7635 7.36374 13.7393 7.4635C14.263 7.45718 14.4777 7.45718 14.568 7.46713ZM14.9661 5.6984C14.9661 5.6984 15.1945 4.70474 15.1935 4.7085L15.2009 4.65755L15.2041 4.61869L15.2954 4.6281C15.2954 4.6281 15.7665 4.66857 15.7775 4.66965C15.9634 4.74157 16.0401 4.92697 15.9865 5.16897C15.9377 5.39013 15.7943 5.57606 15.61 5.66587C15.4582 5.74196 15.2722 5.74828 15.0807 5.74828H14.9567L14.9661 5.6984ZM16.3883 6.55498C16.3279 6.8123 16.2586 7.28231 16.6887 7.44983C16.8258 7.50817 16.9487 7.52552 17.0736 7.5192C17.2055 7.51207 17.3277 7.44593 17.4409 7.35074C17.4306 7.38986 17.4204 7.42899 17.4102 7.46824L17.4297 7.49338C17.7391 7.48034 17.835 7.48034 18.1702 7.4829L18.2006 7.45977C18.2495 7.17207 18.2956 6.89269 18.4228 6.34229C18.4848 6.07865 18.5467 5.81756 18.6102 5.55499L18.6003 5.52609C18.2542 5.59022 18.1617 5.60393 17.8289 5.65112L17.8036 5.67169C17.8002 5.69844 17.7967 5.72412 17.7935 5.7498C17.7417 5.66618 17.6667 5.59479 17.551 5.55029C17.4029 5.49207 17.0553 5.56709 16.7564 5.8392C16.5464 6.03347 16.4456 6.29967 16.3883 6.55498ZM17.1151 6.57071C17.1892 6.25356 17.2743 5.98521 17.4948 5.98521C17.6342 5.98521 17.7076 6.11387 17.6927 6.33328C17.6808 6.388 17.6681 6.44567 17.6529 6.51088C17.6308 6.60512 17.6069 6.69856 17.5836 6.79213C17.56 6.85613 17.5324 6.91649 17.5022 6.95669C17.4454 7.03709 17.3105 7.08696 17.2327 7.08696C17.2107 7.08696 17.0746 7.08696 17.0699 6.88638C17.0689 6.78649 17.0894 6.68364 17.1151 6.57071ZM20.9105 5.52352L20.8837 5.493C20.5413 5.56237 20.4793 5.5734 20.1647 5.61588L20.1416 5.639C20.1405 5.64277 20.1396 5.64855 20.138 5.65379L20.1369 5.64855C19.9027 6.18887 19.9096 6.07231 19.7189 6.49769C19.7178 6.47833 19.7178 6.46623 19.7168 6.44566L19.669 5.52352L19.6391 5.493C19.2804 5.56237 19.2719 5.5734 18.9406 5.61588L18.9148 5.639C18.9112 5.65003 18.9112 5.66213 18.909 5.6753L18.9112 5.68001C18.9526 5.89162 18.9427 5.84443 18.9842 6.17839C19.0036 6.34227 19.0294 6.5071 19.0487 6.66897C19.0814 6.93987 19.0997 7.07324 19.1396 7.48665C18.9159 7.85583 18.8629 7.99551 18.6476 8.31952L18.649 8.32275L18.4974 8.56259C18.48 8.58787 18.4643 8.60521 18.4423 8.61261C18.4181 8.62457 18.3866 8.62672 18.3429 8.62672H18.2589L18.134 9.04215L18.5624 9.04954C18.814 9.04847 18.9721 8.93083 19.0572 8.77273L19.3266 8.31105H19.3223L19.3507 8.27852C19.5319 7.88836 20.9105 5.52352 20.9105 5.52352ZM16.3883 10.9795H16.2065L16.8793 8.75437H17.1025L17.1733 8.52515L17.1802 8.78005C17.1718 8.93762 17.2958 9.07731 17.6214 9.05418H17.998L18.1276 8.62571H17.9859C17.9044 8.62571 17.8666 8.60514 17.8713 8.56105L17.8645 8.30171H17.1671V8.30305C16.9417 8.30776 16.2684 8.3247 16.1321 8.361C15.9671 8.40348 15.7933 8.52851 15.7933 8.52851L15.8616 8.29902H15.2092L15.0733 8.75437L14.3916 11.0135H14.2593L14.1295 11.4389H15.4288L15.3852 11.5808H16.0254L16.0679 11.4389H16.2475L16.3883 10.9795ZM15.8552 9.20651C15.7508 9.23541 15.5564 9.32307 15.5564 9.32307L15.7293 8.75437H16.2475L16.1225 9.16873C16.1225 9.16873 15.9624 9.17814 15.8552 9.20651ZM15.8652 10.0189C15.8652 10.0189 15.7024 10.0394 15.5952 10.0636C15.4897 10.0956 15.2918 10.1964 15.2918 10.1964L15.4703 9.60459H15.9913L15.8652 10.0189ZM15.5748 10.9848H15.0549L15.2056 10.4853H15.7239L15.5748 10.9848ZM16.8268 9.60459H17.5762L17.4685 9.95333H16.7092L16.5952 10.3346H17.2596L16.7565 11.043C16.7213 11.095 16.6897 11.1134 16.6546 11.1281C16.6194 11.146 16.5731 11.1669 16.5196 11.1669H16.3353L16.2086 11.5845H16.6907C16.9413 11.5845 17.0894 11.4705 17.1987 11.3209L17.5436 10.8487L17.6177 11.3281C17.6335 11.418 17.698 11.4705 17.7417 11.491C17.7899 11.5152 17.8398 11.5567 17.9103 11.5629C17.9858 11.5661 18.0404 11.5687 18.0767 11.5687H18.3136L18.4558 11.1013H18.3624C18.3088 11.1013 18.2164 11.0923 18.2007 11.0755C18.1849 11.0551 18.1849 11.0236 18.1765 10.9758L18.1013 10.4953H17.7936L17.9286 10.3346H18.6864L18.803 9.95333H18.1013L18.2106 9.60459H18.9101L19.0399 9.17451H16.9544L16.8268 9.60459ZM10.4975 11.0819L10.6724 10.5H11.3913L11.5226 10.0672H10.8031L10.9129 9.70909H11.616L11.7463 9.29003H9.987L9.85942 9.70909H10.2591L10.1525 10.0672H9.75173L9.6189 10.5074H10.0185L9.78534 11.2772C9.75388 11.3791 9.80013 11.418 9.82943 11.4653C9.85942 11.5114 9.8898 11.5419 9.9581 11.5593C10.0285 11.575 10.0768 11.5844 10.1424 11.5844H10.9528L11.0972 11.105L10.738 11.1543C10.6686 11.1543 10.4765 11.146 10.4975 11.0819ZM10.5799 8.2964L10.3978 8.62565C10.3588 8.69757 10.3237 8.74221 10.2921 8.76278C10.2643 8.78012 10.2091 8.78738 10.1293 8.78738H10.0342L9.90718 9.20859H10.2229C10.3746 9.20859 10.4912 9.15293 10.5469 9.1251C10.6067 9.0931 10.6224 9.11139 10.6687 9.06675L10.7753 8.97439H11.761L11.8918 8.53584H11.1703L11.2962 8.2964H10.5799ZM12.0352 11.0903C12.0184 11.0661 12.0305 11.0235 12.0562 10.9348L12.3256 10.043H13.284C13.4237 10.041 13.5246 10.0394 13.5902 10.0347C13.6606 10.0273 13.7372 10.0022 13.8207 9.95699C13.9069 9.90967 13.951 9.85979 13.9882 9.80252C14.0298 9.74538 14.0965 9.62035 14.1537 9.42756L14.4924 8.29905L13.4978 8.30483C13.4978 8.30483 13.1915 8.35 13.0567 8.39988C12.9206 8.45554 12.7262 8.61095 12.7262 8.61095L12.816 8.3016H12.2016L11.3415 11.1543C11.311 11.2651 11.2905 11.3455 11.2858 11.3938C11.2842 11.4458 11.3514 11.4973 11.395 11.5362C11.4465 11.575 11.5226 11.5687 11.5956 11.575C11.6723 11.5808 11.7815 11.5844 11.9322 11.5844H12.4044L12.5493 11.095L12.1266 11.135C12.0814 11.135 12.0488 11.1108 12.0352 11.0903ZM12.4994 9.44073H13.5061L13.4421 9.64132C13.4331 9.64602 13.4116 9.63137 13.3092 9.64347H12.4374L12.4994 9.44073ZM12.7011 8.76798H13.7163L13.6433 9.00957C13.6433 9.00957 13.1648 9.00487 13.0881 9.01899C12.751 9.07733 12.554 9.25749 12.554 9.25749L12.7011 8.76798ZM13.4647 10.313C13.4563 10.343 13.4432 10.3613 13.4247 10.375C13.4043 10.3882 13.3712 10.3929 13.3219 10.3929H13.1784L13.1869 10.1486H12.5903L12.5661 11.3429C12.5651 11.429 12.5735 11.4789 12.6365 11.5189C12.6996 11.5687 12.8938 11.575 13.1553 11.575H13.5292L13.6642 11.128L13.3387 11.1459L13.2305 11.1522C13.2157 11.1459 13.2016 11.1401 13.1858 11.1244C13.1721 11.1108 13.149 11.1192 13.1528 11.033L13.1553 10.7268L13.4967 10.7127C13.681 10.7127 13.7598 10.6528 13.827 10.5956C13.8911 10.5409 13.9121 10.478 13.9363 10.3929L13.9936 10.1219H13.5245L13.4647 10.313Z" fill="#FEFEFE"/>
</g>
</svg>
