<svg width="35" height="25" viewBox="0 0 35 25" fill="none" xmlns="http://www.w3.org/2000/svg">
<g id="Payment Method/Visa">
<rect id="BASE" x="0.5" y="1.11426" width="34" height="23" rx="3.5" fill="white" stroke="#D9D9D9"/>
<path id="visa-logo" fill-rule="evenodd" clip-rule="evenodd" d="M10.6253 16.8725H8.50494L6.91495 10.8066C6.83949 10.5276 6.67925 10.2809 6.44354 10.1647C5.85531 9.87249 5.20712 9.63996 4.5 9.52269V9.28915H7.91567C8.38708 9.28915 8.74064 9.63996 8.79957 10.0474L9.62454 14.4229L11.7438 9.28915H13.8052L10.6253 16.8725ZM14.9838 16.8725H12.9813L14.6302 9.28915H16.6327L14.9838 16.8725ZM19.2234 11.39C19.2823 10.9815 19.6359 10.748 20.0483 10.748C20.6965 10.6894 21.4026 10.8066 21.9919 11.0978L22.3454 9.46507C21.7562 9.23153 21.108 9.11426 20.5198 9.11426C18.5762 9.11426 17.162 10.1647 17.162 11.6225C17.162 12.7315 18.1637 13.3139 18.8708 13.6647C19.6359 14.0145 19.9305 14.248 19.8716 14.5978C19.8716 15.1225 19.2823 15.356 18.6941 15.356C17.9869 15.356 17.2798 15.1811 16.6327 14.889L16.2791 16.5227C16.9862 16.8139 17.7512 16.9311 18.4584 16.9311C20.6376 16.9888 21.9919 15.9394 21.9919 14.3643C21.9919 12.3807 19.2234 12.2645 19.2234 11.39ZM29 16.8725L27.41 9.28915H25.7022C25.3486 9.28915 24.9951 9.52269 24.8772 9.87249L21.9329 16.8725H23.9943L24.4058 15.7645H26.9386L27.1743 16.8725H29ZM25.9968 11.3313L26.585 14.1894H24.9361L25.9968 11.3313Z" fill="#172B85"/>
</g>
</svg>
